<svg width="1150" height="391" viewBox="0 0 1150 391" fill="none" xmlns="http://www.w3.org/2000/svg">
<mask id="mask0" mask-type="alpha" maskUnits="userSpaceOnUse" x="383" y="0" width="384" height="195">
<rect x="383.705" width="382.59" height="195" fill="#C4C4C4"/>
</mask>
<g mask="url(#mask0)">
<rect x="370.102" y="-19" width="425.1" height="256.579" rx="3" fill="#6CC24A"/>
</g>
<mask id="mask1" mask-type="alpha" maskUnits="userSpaceOnUse" x="383" y="196" width="384" height="195">
<rect x="383.705" y="196" width="382.59" height="195" fill="#C4C4C4"/>
</mask>
<g mask="url(#mask1)">
<rect x="370.102" y="177" width="425.1" height="256.579" rx="3" fill="#509E2F"/>
</g>
<mask id="mask2" mask-type="alpha" maskUnits="userSpaceOnUse" x="0" y="0" width="383" height="195">
<rect width="382.59" height="195" fill="#C4C4C4"/>
</mask>
<g mask="url(#mask2)">
<rect x="-13.6031" y="-19" width="425.1" height="256.579" rx="3" fill="#051C2C"/>
</g>
<mask id="mask3" mask-type="alpha" maskUnits="userSpaceOnUse" x="767" y="0" width="383" height="195">
<rect x="767.91" y="0.5" width="381.59" height="194" fill="#C4C4C4" stroke="#B1B3B3"/>
</mask>
<g mask="url(#mask3)">
<rect x="753.807" y="-19" width="425.1" height="256.579" rx="3" fill="white"/>
<path d="M753.807 -19V-20H752.807V-19H753.807ZM1178.91 -19H1179.91V-20H1178.91V-19ZM1178.91 237.579V238.579H1179.91V237.579H1178.91ZM753.807 237.579H752.807V238.579H753.807V237.579ZM753.807 -18H1178.91V-20H753.807V-18ZM1177.91 -19V237.579H1179.91V-19H1177.91ZM1178.91 236.579H753.807V238.579H1178.91V236.579ZM754.807 237.579V-19H752.807V237.579H754.807Z" fill="#B1B3B3"/>
<rect x="767.785" y="0.375" width="381.84" height="194.25" stroke="#B1B3B3" stroke-width="0.75"/>
</g>
<path d="M407.036 22.004H410.606C411.371 22.004 412.001 22.0927 412.496 22.27C413 22.438 413.396 22.6667 413.686 22.956C413.984 23.236 414.19 23.5673 414.302 23.95C414.423 24.3233 414.484 24.7153 414.484 25.126C414.484 25.5647 414.423 25.9847 414.302 26.386C414.19 26.7873 413.984 27.142 413.686 27.45C413.396 27.7487 413.004 27.9867 412.51 28.164C412.024 28.3413 411.408 28.43 410.662 28.43H409.094V32H407.036V22.004ZM410.592 26.694C410.956 26.694 411.254 26.6567 411.488 26.582C411.73 26.5073 411.922 26.4047 412.062 26.274C412.202 26.1433 412.295 25.9847 412.342 25.798C412.398 25.602 412.426 25.392 412.426 25.168C412.426 24.9347 412.398 24.7293 412.342 24.552C412.286 24.3747 412.188 24.2253 412.048 24.104C411.908 23.9827 411.716 23.8893 411.474 23.824C411.24 23.7587 410.942 23.726 410.578 23.726H409.094V26.694H410.592ZM419.191 22.004H422.733C423.517 22.004 424.161 22.0973 424.665 22.284C425.178 22.4613 425.579 22.6993 425.869 22.998C426.158 23.2873 426.359 23.614 426.471 23.978C426.583 24.3327 426.639 24.6827 426.639 25.028C426.639 25.672 426.522 26.2133 426.289 26.652C426.055 27.0907 425.663 27.4593 425.113 27.758L427.143 32H424.889L423.209 28.248H421.249V32H419.191V22.004ZM422.873 26.512C423.199 26.512 423.47 26.4793 423.685 26.414C423.899 26.3393 424.067 26.2413 424.189 26.12C424.319 25.9893 424.408 25.8353 424.455 25.658C424.501 25.4807 424.525 25.2847 424.525 25.07C424.525 24.8927 424.497 24.7247 424.441 24.566C424.385 24.398 424.287 24.2533 424.147 24.132C424.016 24.0013 423.829 23.9033 423.587 23.838C423.353 23.7633 423.055 23.726 422.691 23.726H421.249V26.512H422.873ZM431.537 22.004H433.623V32H431.537V22.004ZM438.866 22.004H441.372L443.864 29.466L446.426 22.004H448.862V32H446.944V25.336L444.662 32H443.038L440.742 25.35V32H438.866V22.004ZM456.981 22.004H458.969L462.721 32H460.481L459.683 29.69H456.183L455.385 32H453.229L456.981 22.004ZM459.137 27.968L457.919 24.384L456.715 27.968H459.137ZM467.086 22.004H470.628C471.412 22.004 472.056 22.0973 472.56 22.284C473.074 22.4613 473.475 22.6993 473.764 22.998C474.054 23.2873 474.254 23.614 474.366 23.978C474.478 24.3327 474.534 24.6827 474.534 25.028C474.534 25.672 474.418 26.2133 474.184 26.652C473.951 27.0907 473.559 27.4593 473.008 27.758L475.038 32H472.784L471.104 28.248H469.144V32H467.086V22.004ZM470.768 26.512C471.095 26.512 471.366 26.4793 471.58 26.414C471.795 26.3393 471.963 26.2413 472.084 26.12C472.215 25.9893 472.304 25.8353 472.35 25.658C472.397 25.4807 472.42 25.2847 472.42 25.07C472.42 24.8927 472.392 24.7247 472.336 24.566C472.28 24.398 472.182 24.2533 472.042 24.132C471.912 24.0013 471.725 23.9033 471.482 23.838C471.249 23.7633 470.95 23.726 470.586 23.726H469.144V26.512H470.768ZM481.517 27.926L478.059 22.004H480.383L482.539 26.05L484.765 22.004H486.977L483.603 27.926V32H481.517V27.926ZM502.265 26.526H506.101V30.754C505.588 31.23 504.976 31.5987 504.267 31.86C503.558 32.1213 502.825 32.252 502.069 32.252C501.276 32.252 500.58 32.126 499.983 31.874C499.395 31.622 498.905 31.2673 498.513 30.81C498.121 30.3527 497.827 29.802 497.631 29.158C497.435 28.5047 497.337 27.786 497.337 27.002C497.337 26.19 497.444 25.462 497.659 24.818C497.874 24.174 498.177 23.6233 498.569 23.166C498.97 22.7087 499.456 22.3587 500.025 22.116C500.594 21.8733 501.229 21.752 501.929 21.752C502.573 21.752 503.124 21.8313 503.581 21.99C504.048 22.1487 504.44 22.368 504.757 22.648C505.084 22.928 505.34 23.2547 505.527 23.628C505.723 24.0013 505.863 24.4027 505.947 24.832L503.875 25.098C503.819 24.846 503.749 24.6267 503.665 24.44C503.59 24.244 503.478 24.0807 503.329 23.95C503.18 23.81 502.993 23.7073 502.769 23.642C502.545 23.5673 502.265 23.53 501.929 23.53C501.117 23.53 500.51 23.8333 500.109 24.44C499.708 25.0467 499.507 25.9007 499.507 27.002C499.507 28.1127 499.708 28.9713 500.109 29.578C500.52 30.1753 501.182 30.474 502.097 30.474C502.536 30.474 502.914 30.432 503.231 30.348C503.558 30.2547 503.87 30.1147 504.169 29.928V28.262H502.265V26.526ZM511.017 22.004H514.559C515.343 22.004 515.987 22.0973 516.491 22.284C517.005 22.4613 517.406 22.6993 517.695 22.998C517.985 23.2873 518.185 23.614 518.297 23.978C518.409 24.3327 518.465 24.6827 518.465 25.028C518.465 25.672 518.349 26.2133 518.115 26.652C517.882 27.0907 517.49 27.4593 516.939 27.758L518.969 32H516.715L515.035 28.248H513.075V32H511.017V22.004ZM514.699 26.512C515.026 26.512 515.297 26.4793 515.511 26.414C515.726 26.3393 515.894 26.2413 516.015 26.12C516.146 25.9893 516.235 25.8353 516.281 25.658C516.328 25.4807 516.351 25.2847 516.351 25.07C516.351 24.8927 516.323 24.7247 516.267 24.566C516.211 24.398 516.113 24.2533 515.973 24.132C515.843 24.0013 515.656 23.9033 515.413 23.838C515.18 23.7633 514.881 23.726 514.517 23.726H513.075V26.512H514.699ZM523.364 22.004H530.182V23.782H525.45V25.966H529.902V27.758H525.45V30.222H530.476L530.266 32H523.364V22.004ZM535.15 22.004H541.968V23.782H537.236V25.966H541.688V27.758H537.236V30.222H542.262L542.052 32H535.15V22.004ZM546.936 22.004H548.812L552.928 28.556V22.004H554.958V32H553.096L548.966 25.504V32H546.936V22.004ZM407.218 58H408.66V54.164H410.466C412.79 54.164 413.686 52.554 413.686 51.182C413.686 49.712 412.874 48.2 410.466 48.2H407.218V58ZM408.66 52.834V49.53H410.55C411.866 49.53 412.23 50.482 412.23 51.182C412.23 51.966 411.796 52.834 410.55 52.834H408.66ZM416.345 58H417.619V52.26C417.619 52.064 417.605 51.658 417.591 51.42C417.675 51.714 417.759 51.98 417.829 52.26L419.369 58H419.537L421.077 52.26C421.161 51.98 421.231 51.714 421.315 51.42C421.287 51.658 421.287 52.064 421.287 52.26V58H422.561V48.2H421.161L419.691 53.814C419.579 54.192 419.509 54.528 419.467 54.808C419.425 54.528 419.341 54.192 419.243 53.814L417.801 48.2H416.345V58ZM428.677 58.168C430.385 58.168 431.771 57.132 431.771 55.312C431.771 53.534 430.259 52.722 429.055 52.162C428.061 51.714 427.137 51.336 427.137 50.524C427.137 49.81 427.697 49.362 428.495 49.362C429.251 49.362 429.797 49.824 430.035 50.37L431.337 49.936C431.029 48.844 429.979 48.032 428.565 48.032C426.787 48.032 425.681 49.166 425.681 50.524C425.681 52.162 427.095 52.862 428.327 53.408C429.377 53.87 430.315 54.444 430.315 55.354C430.315 56.32 429.699 56.824 428.775 56.824C427.851 56.824 427.081 56.222 426.689 55.34L425.359 55.83C425.835 57.188 427.109 58.168 428.677 58.168ZM446.819 58.168C448.681 58.168 450.095 57.006 450.095 55.214C450.095 54.01 449.437 53.128 448.513 52.764C449.255 52.33 449.731 51.546 449.731 50.636C449.731 49.124 448.513 48.032 446.833 48.032C445.321 48.032 444.327 48.956 443.865 50.076L445.181 50.58C445.447 49.992 445.951 49.376 446.833 49.376C447.659 49.376 448.275 49.936 448.275 50.79C448.275 51.672 447.659 52.232 446.721 52.232H445.979V53.576H446.791C448.023 53.576 448.639 54.262 448.639 55.228C448.639 56.278 447.841 56.81 446.847 56.81C445.965 56.81 445.321 56.376 444.887 55.34L443.571 55.872C444.075 57.216 445.097 58.168 446.819 58.168ZM456.002 58.168C457.892 58.168 459.32 56.81 459.32 54.948C459.32 53.254 458.046 51.854 456.268 51.854C455.442 51.854 454.784 52.12 454.392 52.54C454.812 50.944 456.352 49.698 457.962 49.306V48.032C454.532 48.704 452.6 51.406 452.6 54.374C452.6 56.516 453.762 58.168 456.002 58.168ZM455.974 56.824C454.882 56.824 454.042 56.096 454.042 55.018C454.042 53.926 454.854 53.17 455.974 53.17C457.136 53.17 457.906 53.912 457.906 55.018C457.906 56.096 457.108 56.824 455.974 56.824ZM465.087 58.168C467.845 58.168 468.573 55.34 468.573 53.1C468.573 50.678 467.775 48.032 465.087 48.032C462.315 48.032 461.601 50.86 461.601 53.1C461.601 55.522 462.399 58.168 465.087 58.168ZM465.087 56.824C463.491 56.824 463.057 54.948 463.057 53.1C463.057 51.392 463.449 49.362 465.087 49.362C466.683 49.362 467.103 51.266 467.103 53.1C467.103 54.822 466.739 56.824 465.087 56.824ZM465.087 54.052C465.633 54.052 466.039 53.618 466.039 53.1C466.039 52.596 465.633 52.148 465.087 52.148C464.541 52.148 464.135 52.596 464.135 53.1C464.135 53.618 464.541 54.052 465.087 54.052ZM413.56 77.07C413.56 75.614 412.818 74.2 410.41 74.2H407.218V84H408.66V79.982H409.976L411.936 84H413.532L411.502 79.842C412.93 79.436 413.56 78.246 413.56 77.07ZM408.66 75.53H410.438C411.768 75.53 412.118 76.398 412.118 77.098C412.118 77.868 411.712 78.638 410.438 78.638H408.66V75.53ZM419.649 84.168C421.427 84.168 422.799 82.838 422.799 80.388V79.128H419.579V80.458H421.315V80.794C421.315 81.984 420.727 82.81 419.649 82.81C418.123 82.81 417.437 81.004 417.437 79.1C417.437 77.406 418.025 75.376 419.649 75.376C420.447 75.376 420.895 75.95 421.245 76.594L422.519 75.866C422.001 74.928 421.259 74.032 419.649 74.032C417.143 74.032 415.953 76.566 415.953 79.1C415.953 81.662 417.073 84.168 419.649 84.168ZM425.471 84H428.747C431.169 84 431.967 82.53 431.967 81.172C431.967 80.066 431.337 79.17 430.259 78.834C431.141 78.456 431.617 77.7 431.617 76.79C431.617 75.488 430.875 74.2 428.537 74.2H425.471V84ZM426.913 78.26V75.516H428.593C429.923 75.516 430.203 76.216 430.203 76.86C430.203 77.714 429.573 78.26 428.299 78.26H426.913ZM426.913 82.67V79.576H428.453C430.147 79.576 430.553 80.374 430.553 81.214C430.553 81.914 430.189 82.67 428.873 82.67H426.913ZM447.575 82.614V74.172L443.991 75.334V76.706L446.133 76.048V82.614H443.697V84H449.969V82.614H447.575ZM455.96 84.168C458.718 84.168 459.446 81.34 459.446 79.1C459.446 76.678 458.648 74.032 455.96 74.032C453.188 74.032 452.474 76.86 452.474 79.1C452.474 81.522 453.272 84.168 455.96 84.168ZM455.96 82.824C454.364 82.824 453.93 80.948 453.93 79.1C453.93 77.392 454.322 75.362 455.96 75.362C457.556 75.362 457.976 77.266 457.976 79.1C457.976 80.822 457.612 82.824 455.96 82.824ZM455.96 80.052C456.506 80.052 456.912 79.618 456.912 79.1C456.912 78.596 456.506 78.148 455.96 78.148C455.414 78.148 455.008 78.596 455.008 79.1C455.008 79.618 455.414 80.052 455.96 80.052ZM465.087 84.168C467.145 84.168 468.531 82.894 468.531 81.144C468.531 79.968 467.803 79.016 466.767 78.596C467.551 78.246 468.111 77.504 468.111 76.594C468.111 75.152 466.893 74.032 465.087 74.032C463.267 74.032 462.063 75.152 462.063 76.594C462.063 77.518 462.637 78.26 463.393 78.61C462.357 79.03 461.643 79.968 461.643 81.144C461.643 82.894 463.029 84.168 465.087 84.168ZM465.087 78.05C464.107 78.05 463.505 77.49 463.505 76.72C463.505 75.866 464.149 75.306 465.087 75.306C466.011 75.306 466.669 75.866 466.669 76.72C466.669 77.49 466.039 78.05 465.087 78.05ZM465.087 82.866C463.925 82.866 463.099 82.166 463.099 81.06C463.099 80.052 463.897 79.24 465.087 79.24C466.263 79.24 467.075 80.052 467.075 81.06C467.075 82.166 466.221 82.866 465.087 82.866ZM484.083 82.614V74.172L480.499 75.334V76.706L482.641 76.048V82.614H480.205V84H486.477V82.614H484.083ZM490.69 84.168C493.98 83.748 495.828 81.102 495.828 77.826C495.828 75.656 494.778 74.032 492.496 74.032C490.55 74.032 489.108 75.348 489.108 77.224C489.108 79.016 490.424 80.304 492.188 80.304C493.07 80.304 493.77 80.01 494.19 79.562C493.812 81.396 492.328 82.586 490.69 82.88V84.168ZM492.454 79.016C491.264 79.016 490.522 78.274 490.522 77.168C490.522 76.118 491.278 75.348 492.468 75.348C493.588 75.348 494.4 76.118 494.4 77.168C494.4 78.274 493.616 79.016 492.454 79.016ZM502.561 84H503.975V81.69H505.277V80.402H503.975V74.2H502.687L497.955 80.836V81.69H502.561V84ZM502.561 80.402H499.817L502.561 76.37V80.402ZM516.699 74.2V75.53H521.347C519.317 78.218 518.589 80.864 518.575 84H520.017C520.017 81.76 520.605 78.078 522.999 75.348V74.2H516.699ZM529.942 84H531.356V81.69H532.658V80.402H531.356V74.2H530.068L525.336 80.836V81.69H529.942V84ZM529.942 80.402H527.198L529.942 76.37V80.402ZM407.218 110H408.66V105.604H412.006V110H413.434V100.2H412.006V104.246H408.66V100.2H407.218V110ZM416.345 110H422.659V108.628H417.787V105.618H420.825V104.26H417.787V101.558H422.351V100.2H416.345V110ZM432.233 110L429.321 104.862L431.995 100.2H430.371L428.579 103.546L426.773 100.2H425.135L427.823 104.932L424.925 110H426.549L428.551 106.248L430.595 110H432.233ZM446.875 110.168C448.765 110.168 450.193 108.81 450.193 106.948C450.193 105.254 448.919 103.854 447.141 103.854C446.315 103.854 445.657 104.12 445.265 104.54C445.685 102.944 447.225 101.698 448.835 101.306V100.032C445.405 100.704 443.473 103.406 443.473 106.374C443.473 108.516 444.635 110.168 446.875 110.168ZM446.847 108.824C445.755 108.824 444.915 108.096 444.915 107.018C444.915 105.926 445.727 105.17 446.847 105.17C448.009 105.17 448.779 105.912 448.779 107.018C448.779 108.096 447.981 108.824 446.847 108.824ZM456.212 110.168C457.752 110.168 458.676 109.216 459.152 108.054L457.85 107.55C457.5 108.292 457.024 108.81 456.212 108.81C454.63 108.81 453.93 106.934 453.93 105.1C453.93 103.406 454.518 101.39 456.212 101.39C457.01 101.39 457.43 101.88 457.794 102.566L459.082 101.936C458.676 100.984 457.808 100.032 456.212 100.032C453.524 100.032 452.432 102.636 452.432 105.1C452.432 107.592 453.468 110.168 456.212 110.168ZM465.339 110.168C466.879 110.168 467.803 109.216 468.279 108.054L466.977 107.55C466.627 108.292 466.151 108.81 465.339 108.81C463.757 108.81 463.057 106.934 463.057 105.1C463.057 103.406 463.645 101.39 465.339 101.39C466.137 101.39 466.557 101.88 466.921 102.566L468.209 101.936C467.803 100.984 466.935 100.032 465.339 100.032C462.651 100.032 461.559 102.636 461.559 105.1C461.559 107.592 462.595 110.168 465.339 110.168ZM471.05 110H477.378V108.614H472.688C472.842 107.662 473.724 106.948 474.732 106.304C476.104 105.45 477.294 104.652 477.294 102.86C477.294 101.208 476.174 100.032 474.298 100.032C472.758 100.032 471.54 100.9 471.12 102.132L472.408 102.706C472.674 101.894 473.304 101.362 474.312 101.362C475.25 101.362 475.838 101.978 475.838 102.874C475.838 103.896 474.998 104.484 474.102 105.086C472.52 106.066 471.05 107.284 471.05 110ZM484.307 110H485.721V107.69H487.023V106.402H485.721V100.2H484.433L479.701 106.836V107.69H484.307V110ZM484.307 106.402H481.563L484.307 102.37V106.402ZM494.82 110H496.346L493.112 100.2H491.81L488.604 110H490.144L490.83 107.718H494.12L494.82 110ZM491.236 106.416L492.216 103.168C492.286 102.944 492.412 102.454 492.468 102.146C492.524 102.454 492.65 102.944 492.72 103.168L493.714 106.416H491.236ZM410.578 136.168C412.118 136.168 413.042 135.216 413.518 134.054L412.216 133.55C411.866 134.292 411.39 134.81 410.578 134.81C408.996 134.81 408.296 132.934 408.296 131.1C408.296 129.406 408.884 127.39 410.578 127.39C411.376 127.39 411.796 127.88 412.16 128.566L413.448 127.936C413.042 126.984 412.174 126.032 410.578 126.032C407.89 126.032 406.798 128.636 406.798 131.1C406.798 133.592 407.834 136.168 410.578 136.168ZM416.345 136H417.619V130.26C417.619 130.064 417.605 129.658 417.591 129.42C417.675 129.714 417.759 129.98 417.829 130.26L419.369 136H419.537L421.077 130.26C421.161 129.98 421.231 129.714 421.315 129.42C421.287 129.658 421.287 130.064 421.287 130.26V136H422.561V126.2H421.161L419.691 131.814C419.579 132.192 419.509 132.528 419.467 132.808C419.425 132.528 419.341 132.192 419.243 131.814L417.801 126.2H416.345V136ZM430.581 126.2L428.593 130.666L426.619 126.2H425.023L427.879 132.15V136H429.307V132.15L432.149 126.2H430.581ZM439.778 136H441.43L438.028 129.658L440.8 126.2H439.134L436.04 130.148V126.2H434.598V136H436.04V132.15L437.062 130.876L439.778 136ZM455.68 136.168C457.794 136.168 459.194 134.656 459.194 132.766C459.194 130.96 458.088 129.574 456.226 129.574C455.54 129.574 454.966 129.784 454.518 130.148L454.854 127.544H458.634V126.2H453.594L453.062 131.198L454.35 131.744C454.728 131.31 455.274 130.932 456.086 130.932C457.122 130.932 457.738 131.716 457.738 132.808C457.738 133.97 456.884 134.824 455.666 134.824C454.644 134.824 454.042 134.418 453.524 133.97L452.726 135.076C453.23 135.594 454.238 136.168 455.68 136.168ZM463.309 136.168C466.599 135.748 468.447 133.102 468.447 129.826C468.447 127.656 467.397 126.032 465.115 126.032C463.169 126.032 461.727 127.348 461.727 129.224C461.727 131.016 463.043 132.304 464.807 132.304C465.689 132.304 466.389 132.01 466.809 131.562C466.431 133.396 464.947 134.586 463.309 134.88V136.168ZM465.073 131.016C463.883 131.016 463.141 130.274 463.141 129.168C463.141 128.118 463.897 127.348 465.087 127.348C466.207 127.348 467.019 128.118 467.019 129.168C467.019 130.274 466.235 131.016 465.073 131.016ZM483.341 136.168C486.099 136.168 486.827 133.34 486.827 131.1C486.827 128.678 486.029 126.032 483.341 126.032C480.569 126.032 479.855 128.86 479.855 131.1C479.855 133.522 480.653 136.168 483.341 136.168ZM483.341 134.824C481.745 134.824 481.311 132.948 481.311 131.1C481.311 129.392 481.703 127.362 483.341 127.362C484.937 127.362 485.357 129.266 485.357 131.1C485.357 132.822 484.993 134.824 483.341 134.824ZM483.341 132.052C483.887 132.052 484.293 131.618 484.293 131.1C484.293 130.596 483.887 130.148 483.341 130.148C482.795 130.148 482.389 130.596 482.389 131.1C482.389 131.618 482.795 132.052 483.341 132.052ZM499.817 136.168C503.107 135.748 504.955 133.102 504.955 129.826C504.955 127.656 503.905 126.032 501.623 126.032C499.677 126.032 498.235 127.348 498.235 129.224C498.235 131.016 499.551 132.304 501.315 132.304C502.197 132.304 502.897 132.01 503.317 131.562C502.939 133.396 501.455 134.586 499.817 134.88V136.168ZM501.581 131.016C500.391 131.016 499.649 130.274 499.649 129.168C499.649 128.118 500.405 127.348 501.595 127.348C502.715 127.348 503.527 128.118 503.527 129.168C503.527 130.274 502.743 131.016 501.581 131.016ZM510.722 136.168C513.48 136.168 514.208 133.34 514.208 131.1C514.208 128.678 513.41 126.032 510.722 126.032C507.95 126.032 507.236 128.86 507.236 131.1C507.236 133.522 508.034 136.168 510.722 136.168ZM510.722 134.824C509.126 134.824 508.692 132.948 508.692 131.1C508.692 129.392 509.084 127.362 510.722 127.362C512.318 127.362 512.738 129.266 512.738 131.1C512.738 132.822 512.374 134.824 510.722 134.824ZM510.722 132.052C511.268 132.052 511.674 131.618 511.674 131.1C511.674 130.596 511.268 130.148 510.722 130.148C510.176 130.148 509.77 130.596 509.77 131.1C509.77 131.618 510.176 132.052 510.722 132.052ZM528.976 136.168C531.734 136.168 532.462 133.34 532.462 131.1C532.462 128.678 531.664 126.032 528.976 126.032C526.204 126.032 525.49 128.86 525.49 131.1C525.49 133.522 526.288 136.168 528.976 136.168ZM528.976 134.824C527.38 134.824 526.946 132.948 526.946 131.1C526.946 129.392 527.338 127.362 528.976 127.362C530.572 127.362 530.992 129.266 530.992 131.1C530.992 132.822 530.628 134.824 528.976 134.824ZM528.976 132.052C529.522 132.052 529.928 131.618 529.928 131.1C529.928 130.596 529.522 130.148 528.976 130.148C528.43 130.148 528.024 130.596 528.024 131.1C528.024 131.618 528.43 132.052 528.976 132.052Z" fill="#051C2C"/>
<path d="M408.52 223.934C408.566 224.541 408.72 224.965 408.982 225.208C409.243 225.451 409.626 225.572 410.13 225.572C410.578 225.572 410.942 225.469 411.222 225.264C411.511 225.049 411.656 224.699 411.656 224.214C411.656 223.738 411.534 223.397 411.292 223.192C411.058 222.977 410.666 222.87 410.116 222.87H409.136V221.148H410.228C411.058 221.148 411.474 220.733 411.474 219.902C411.474 219.743 411.45 219.594 411.404 219.454C411.357 219.305 411.282 219.179 411.18 219.076C411.077 218.964 410.942 218.88 410.774 218.824C410.606 218.759 410.396 218.726 410.144 218.726C409.696 218.726 409.336 218.829 409.066 219.034C408.795 219.239 408.599 219.603 408.478 220.126L406.602 219.874C406.686 219.473 406.807 219.099 406.966 218.754C407.134 218.409 407.358 218.11 407.638 217.858C407.927 217.606 408.277 217.41 408.688 217.27C409.098 217.13 409.588 217.06 410.158 217.06C410.708 217.06 411.189 217.13 411.6 217.27C412.01 217.401 412.351 217.583 412.622 217.816C412.902 218.049 413.107 218.329 413.238 218.656C413.378 218.973 413.448 219.314 413.448 219.678C413.448 220.154 413.34 220.579 413.126 220.952C412.92 221.316 412.594 221.619 412.146 221.862C412.706 222.095 413.098 222.417 413.322 222.828C413.555 223.229 413.672 223.668 413.672 224.144C413.672 224.601 413.606 225.021 413.476 225.404C413.345 225.787 413.135 226.113 412.846 226.384C412.566 226.655 412.206 226.865 411.768 227.014C411.329 227.173 410.802 227.252 410.186 227.252C409.486 227.252 408.902 227.154 408.436 226.958C407.978 226.753 407.61 226.491 407.33 226.174C407.05 225.857 406.849 225.502 406.728 225.11C406.606 224.709 406.536 224.317 406.518 223.934H408.52ZM418.227 224.746H420.229V227H418.227V224.746ZM418.227 219.692H420.229V221.946H418.227V219.692ZM427.994 219.594L426.104 220.728L425.236 219.286L428.33 217.326H429.996V227H427.994V219.594ZM445.838 217.004H447.826L451.578 227H449.338L448.54 224.69H445.04L444.242 227H442.086L445.838 217.004ZM447.994 222.968L446.776 219.384L445.572 222.968H447.994ZM463.923 223.542C463.877 224.074 463.751 224.569 463.545 225.026C463.349 225.474 463.074 225.866 462.719 226.202C462.374 226.529 461.945 226.785 461.431 226.972C460.927 227.159 460.339 227.252 459.667 227.252C458.911 227.252 458.244 227.126 457.665 226.874C457.096 226.622 456.615 226.267 456.223 225.81C455.841 225.353 455.551 224.802 455.355 224.158C455.159 223.505 455.061 222.786 455.061 222.002C455.061 221.19 455.169 220.462 455.383 219.818C455.598 219.174 455.906 218.623 456.307 218.166C456.709 217.709 457.194 217.359 457.763 217.116C458.333 216.873 458.977 216.752 459.695 216.752C460.33 216.752 460.881 216.831 461.347 216.99C461.823 217.149 462.22 217.377 462.537 217.676C462.864 217.975 463.125 218.334 463.321 218.754C463.517 219.174 463.662 219.645 463.755 220.168L461.683 220.434C461.581 219.846 461.38 219.384 461.081 219.048C460.792 218.712 460.33 218.544 459.695 218.544C458.893 218.544 458.281 218.847 457.861 219.454C457.451 220.051 457.245 220.901 457.245 222.002C457.245 223.113 457.465 223.967 457.903 224.564C458.351 225.161 458.949 225.46 459.695 225.46C460.339 225.46 460.811 225.297 461.109 224.97C461.417 224.634 461.609 224.158 461.683 223.542H463.923ZM477.104 223.542C477.057 224.074 476.931 224.569 476.726 225.026C476.53 225.474 476.254 225.866 475.9 226.202C475.554 226.529 475.125 226.785 474.612 226.972C474.108 227.159 473.52 227.252 472.848 227.252C472.092 227.252 471.424 227.126 470.846 226.874C470.276 226.622 469.796 226.267 469.404 225.81C469.021 225.353 468.732 224.802 468.536 224.158C468.34 223.505 468.242 222.786 468.242 222.002C468.242 221.19 468.349 220.462 468.564 219.818C468.778 219.174 469.086 218.623 469.488 218.166C469.889 217.709 470.374 217.359 470.944 217.116C471.513 216.873 472.157 216.752 472.876 216.752C473.51 216.752 474.061 216.831 474.528 216.99C475.004 217.149 475.4 217.377 475.718 217.676C476.044 217.975 476.306 218.334 476.502 218.754C476.698 219.174 476.842 219.645 476.936 220.168L474.864 220.434C474.761 219.846 474.56 219.384 474.262 219.048C473.972 218.712 473.51 218.544 472.876 218.544C472.073 218.544 471.462 218.847 471.042 219.454C470.631 220.051 470.426 220.901 470.426 222.002C470.426 223.113 470.645 223.967 471.084 224.564C471.532 225.161 472.129 225.46 472.876 225.46C473.52 225.46 473.991 225.297 474.29 224.97C474.598 224.634 474.789 224.158 474.864 223.542H477.104ZM481.744 217.004H488.562V218.782H483.83V220.966H488.282V222.758H483.83V225.222H488.856L488.646 227H481.744V217.004ZM495.014 223.738C495.061 224.354 495.257 224.802 495.602 225.082C495.957 225.362 496.475 225.502 497.156 225.502C497.483 225.502 497.758 225.469 497.982 225.404C498.206 225.329 498.388 225.236 498.528 225.124C498.668 225.003 498.766 224.863 498.822 224.704C498.887 224.545 498.92 224.373 498.92 224.186C498.92 223.925 498.822 223.682 498.626 223.458C498.43 223.225 498.071 223.057 497.548 222.954L496.246 222.716C495.733 222.623 495.28 222.501 494.888 222.352C494.496 222.203 494.165 222.011 493.894 221.778C493.633 221.535 493.432 221.241 493.292 220.896C493.152 220.551 493.082 220.14 493.082 219.664C493.082 219.188 493.175 218.768 493.362 218.404C493.558 218.04 493.824 217.737 494.16 217.494C494.505 217.251 494.916 217.069 495.392 216.948C495.868 216.817 496.391 216.752 496.96 216.752C497.688 216.752 498.295 216.836 498.78 217.004C499.265 217.172 499.657 217.396 499.956 217.676C500.255 217.947 500.474 218.264 500.614 218.628C500.763 218.992 500.861 219.37 500.908 219.762L498.934 220.014C498.831 219.463 498.631 219.067 498.332 218.824C498.043 218.581 497.599 218.46 497.002 218.46C496.647 218.46 496.353 218.493 496.12 218.558C495.896 218.614 495.714 218.693 495.574 218.796C495.434 218.889 495.336 219.001 495.28 219.132C495.224 219.263 495.196 219.398 495.196 219.538C495.196 219.911 495.299 220.191 495.504 220.378C495.719 220.565 496.078 220.709 496.582 220.812L497.954 221.078C499.037 221.293 499.83 221.643 500.334 222.128C500.838 222.604 501.09 223.295 501.09 224.2C501.09 224.639 501.006 225.045 500.838 225.418C500.679 225.782 500.437 226.104 500.11 226.384C499.793 226.655 499.391 226.865 498.906 227.014C498.421 227.173 497.851 227.252 497.198 227.252C495.835 227.252 494.79 226.963 494.062 226.384C493.343 225.796 492.956 224.914 492.9 223.738H495.014ZM507.374 223.738C507.421 224.354 507.617 224.802 507.962 225.082C508.317 225.362 508.835 225.502 509.516 225.502C509.843 225.502 510.118 225.469 510.342 225.404C510.566 225.329 510.748 225.236 510.888 225.124C511.028 225.003 511.126 224.863 511.182 224.704C511.248 224.545 511.28 224.373 511.28 224.186C511.28 223.925 511.182 223.682 510.986 223.458C510.79 223.225 510.431 223.057 509.908 222.954L508.606 222.716C508.093 222.623 507.64 222.501 507.248 222.352C506.856 222.203 506.525 222.011 506.254 221.778C505.993 221.535 505.792 221.241 505.652 220.896C505.512 220.551 505.442 220.14 505.442 219.664C505.442 219.188 505.536 218.768 505.722 218.404C505.918 218.04 506.184 217.737 506.52 217.494C506.866 217.251 507.276 217.069 507.752 216.948C508.228 216.817 508.751 216.752 509.32 216.752C510.048 216.752 510.655 216.836 511.14 217.004C511.626 217.172 512.018 217.396 512.316 217.676C512.615 217.947 512.834 218.264 512.974 218.628C513.124 218.992 513.222 219.37 513.268 219.762L511.294 220.014C511.192 219.463 510.991 219.067 510.692 218.824C510.403 218.581 509.96 218.46 509.362 218.46C509.008 218.46 508.714 218.493 508.48 218.558C508.256 218.614 508.074 218.693 507.934 218.796C507.794 218.889 507.696 219.001 507.64 219.132C507.584 219.263 507.556 219.398 507.556 219.538C507.556 219.911 507.659 220.191 507.864 220.378C508.079 220.565 508.438 220.709 508.942 220.812L510.314 221.078C511.397 221.293 512.19 221.643 512.694 222.128C513.198 222.604 513.45 223.295 513.45 224.2C513.45 224.639 513.366 225.045 513.198 225.418C513.04 225.782 512.797 226.104 512.47 226.384C512.153 226.655 511.752 226.865 511.266 227.014C510.781 227.173 510.212 227.252 509.558 227.252C508.196 227.252 507.15 226.963 506.422 226.384C505.704 225.796 505.316 224.914 505.26 223.738H507.374ZM518.114 217.004H520.2V227H518.114V217.004ZM525.443 217.004H529.041C529.778 217.004 530.385 217.074 530.861 217.214C531.346 217.354 531.729 217.545 532.009 217.788C532.289 218.031 532.48 218.315 532.583 218.642C532.695 218.969 532.751 219.323 532.751 219.706C532.751 220.098 532.667 220.467 532.499 220.812C532.331 221.157 532.013 221.451 531.547 221.694C531.845 221.853 532.088 222.021 532.275 222.198C532.471 222.366 532.62 222.548 532.723 222.744C532.835 222.94 532.909 223.141 532.947 223.346C532.993 223.551 533.017 223.757 533.017 223.962C533.017 224.382 532.951 224.779 532.821 225.152C532.699 225.525 532.489 225.847 532.191 226.118C531.901 226.389 531.519 226.603 531.043 226.762C530.567 226.921 529.979 227 529.279 227H525.443V217.004ZM529.279 220.966C529.829 220.966 530.207 220.863 530.413 220.658C530.618 220.453 530.721 220.159 530.721 219.776C530.721 219.365 530.585 219.076 530.315 218.908C530.053 218.731 529.605 218.642 528.971 218.642H527.459V220.966H529.279ZM529.209 225.362C529.554 225.362 529.839 225.329 530.063 225.264C530.296 225.199 530.483 225.105 530.623 224.984C530.763 224.853 530.861 224.704 530.917 224.536C530.973 224.368 531.001 224.177 531.001 223.962C531.001 223.533 530.884 223.206 530.651 222.982C530.417 222.758 530.007 222.646 529.419 222.646H527.459V225.362H529.209ZM537.707 217.004H539.793V225.208H544.525L544.301 227H537.707V217.004ZM549.083 217.004H555.901V218.782H551.169V220.966H555.621V222.758H551.169V225.222H556.195L555.985 227H549.083V217.004ZM571.655 221.526H575.491V225.754C574.978 226.23 574.367 226.599 573.657 226.86C572.948 227.121 572.215 227.252 571.459 227.252C570.666 227.252 569.971 227.126 569.373 226.874C568.785 226.622 568.295 226.267 567.903 225.81C567.511 225.353 567.217 224.802 567.021 224.158C566.825 223.505 566.727 222.786 566.727 222.002C566.727 221.19 566.835 220.462 567.049 219.818C567.264 219.174 567.567 218.623 567.959 218.166C568.361 217.709 568.846 217.359 569.415 217.116C569.985 216.873 570.619 216.752 571.319 216.752C571.963 216.752 572.514 216.831 572.971 216.99C573.438 217.149 573.83 217.368 574.147 217.648C574.474 217.928 574.731 218.255 574.917 218.628C575.113 219.001 575.253 219.403 575.337 219.832L573.265 220.098C573.209 219.846 573.139 219.627 573.055 219.44C572.981 219.244 572.869 219.081 572.719 218.95C572.57 218.81 572.383 218.707 572.159 218.642C571.935 218.567 571.655 218.53 571.319 218.53C570.507 218.53 569.901 218.833 569.499 219.44C569.098 220.047 568.897 220.901 568.897 222.002C568.897 223.113 569.098 223.971 569.499 224.578C569.91 225.175 570.573 225.474 571.487 225.474C571.926 225.474 572.304 225.432 572.621 225.348C572.948 225.255 573.261 225.115 573.559 224.928V223.262H571.655V221.526ZM580.407 217.004H583.949C584.733 217.004 585.377 217.097 585.881 217.284C586.395 217.461 586.796 217.699 587.085 217.998C587.375 218.287 587.575 218.614 587.687 218.978C587.799 219.333 587.855 219.683 587.855 220.028C587.855 220.672 587.739 221.213 587.505 221.652C587.272 222.091 586.88 222.459 586.329 222.758L588.359 227H586.105L584.425 223.248H582.465V227H580.407V217.004ZM584.089 221.512C584.416 221.512 584.687 221.479 584.901 221.414C585.116 221.339 585.284 221.241 585.405 221.12C585.536 220.989 585.625 220.835 585.671 220.658C585.718 220.481 585.741 220.285 585.741 220.07C585.741 219.893 585.713 219.725 585.657 219.566C585.601 219.398 585.503 219.253 585.363 219.132C585.233 219.001 585.046 218.903 584.803 218.838C584.57 218.763 584.271 218.726 583.907 218.726H582.465V221.512H584.089ZM592.754 217.004H599.572V218.782H594.84V220.966H599.292V222.758H594.84V225.222H599.866L599.656 227H592.754V217.004ZM604.54 217.004H611.358V218.782H606.626V220.966H611.078V222.758H606.626V225.222H611.652L611.442 227H604.54V217.004ZM616.326 217.004H618.202L622.318 223.556V217.004H624.348V227H622.486L618.356 220.504V227H616.326V217.004ZM407.218 253H408.66V249.164H410.466C412.79 249.164 413.686 247.554 413.686 246.182C413.686 244.712 412.874 243.2 410.466 243.2H407.218V253ZM408.66 247.834V244.53H410.55C411.866 244.53 412.23 245.482 412.23 246.182C412.23 246.966 411.796 247.834 410.55 247.834H408.66ZM416.345 253H417.619V247.26C417.619 247.064 417.605 246.658 417.591 246.42C417.675 246.714 417.759 246.98 417.829 247.26L419.369 253H419.537L421.077 247.26C421.161 246.98 421.231 246.714 421.315 246.42C421.287 246.658 421.287 247.064 421.287 247.26V253H422.561V243.2H421.161L419.691 248.814C419.579 249.192 419.509 249.528 419.467 249.808C419.425 249.528 419.341 249.192 419.243 248.814L417.801 243.2H416.345V253ZM428.677 253.168C430.385 253.168 431.771 252.132 431.771 250.312C431.771 248.534 430.259 247.722 429.055 247.162C428.061 246.714 427.137 246.336 427.137 245.524C427.137 244.81 427.697 244.362 428.495 244.362C429.251 244.362 429.797 244.824 430.035 245.37L431.337 244.936C431.029 243.844 429.979 243.032 428.565 243.032C426.787 243.032 425.681 244.166 425.681 245.524C425.681 247.162 427.095 247.862 428.327 248.408C429.377 248.87 430.315 249.444 430.315 250.354C430.315 251.32 429.699 251.824 428.775 251.824C427.851 251.824 427.081 251.222 426.689 250.34L425.359 250.83C425.835 252.188 427.109 253.168 428.677 253.168ZM446.819 253.168C448.681 253.168 450.095 252.006 450.095 250.214C450.095 249.01 449.437 248.128 448.513 247.764C449.255 247.33 449.731 246.546 449.731 245.636C449.731 244.124 448.513 243.032 446.833 243.032C445.321 243.032 444.327 243.956 443.865 245.076L445.181 245.58C445.447 244.992 445.951 244.376 446.833 244.376C447.659 244.376 448.275 244.936 448.275 245.79C448.275 246.672 447.659 247.232 446.721 247.232H445.979V248.576H446.791C448.023 248.576 448.639 249.262 448.639 250.228C448.639 251.278 447.841 251.81 446.847 251.81C445.965 251.81 445.321 251.376 444.887 250.34L443.571 250.872C444.075 252.216 445.097 253.168 446.819 253.168ZM456.002 253.168C457.892 253.168 459.32 251.81 459.32 249.948C459.32 248.254 458.046 246.854 456.268 246.854C455.442 246.854 454.784 247.12 454.392 247.54C454.812 245.944 456.352 244.698 457.962 244.306V243.032C454.532 243.704 452.6 246.406 452.6 249.374C452.6 251.516 453.762 253.168 456.002 253.168ZM455.974 251.824C454.882 251.824 454.042 251.096 454.042 250.018C454.042 248.926 454.854 248.17 455.974 248.17C457.136 248.17 457.906 248.912 457.906 250.018C457.906 251.096 457.108 251.824 455.974 251.824ZM461.923 253H468.251V251.614H463.561C463.715 250.662 464.597 249.948 465.605 249.304C466.977 248.45 468.167 247.652 468.167 245.86C468.167 244.208 467.047 243.032 465.171 243.032C463.631 243.032 462.413 243.9 461.993 245.132L463.281 245.706C463.547 244.894 464.177 244.362 465.185 244.362C466.123 244.362 466.711 244.978 466.711 245.874C466.711 246.896 465.871 247.484 464.975 248.086C463.393 249.066 461.923 250.284 461.923 253ZM413.56 272.07C413.56 270.614 412.818 269.2 410.41 269.2H407.218V279H408.66V274.982H409.976L411.936 279H413.532L411.502 274.842C412.93 274.436 413.56 273.246 413.56 272.07ZM408.66 270.53H410.438C411.768 270.53 412.118 271.398 412.118 272.098C412.118 272.868 411.712 273.638 410.438 273.638H408.66V270.53ZM419.649 279.168C421.427 279.168 422.799 277.838 422.799 275.388V274.128H419.579V275.458H421.315V275.794C421.315 276.984 420.727 277.81 419.649 277.81C418.123 277.81 417.437 276.004 417.437 274.1C417.437 272.406 418.025 270.376 419.649 270.376C420.447 270.376 420.895 270.95 421.245 271.594L422.519 270.866C422.001 269.928 421.259 269.032 419.649 269.032C417.143 269.032 415.953 271.566 415.953 274.1C415.953 276.662 417.073 279.168 419.649 279.168ZM425.471 279H428.747C431.169 279 431.967 277.53 431.967 276.172C431.967 275.066 431.337 274.17 430.259 273.834C431.141 273.456 431.617 272.7 431.617 271.79C431.617 270.488 430.875 269.2 428.537 269.2H425.471V279ZM426.913 273.26V270.516H428.593C429.923 270.516 430.203 271.216 430.203 271.86C430.203 272.714 429.573 273.26 428.299 273.26H426.913ZM426.913 277.67V274.576H428.453C430.147 274.576 430.553 275.374 430.553 276.214C430.553 276.914 430.189 277.67 428.873 277.67H426.913ZM446.833 279.168C448.891 279.168 450.277 277.894 450.277 276.144C450.277 274.968 449.549 274.016 448.513 273.596C449.297 273.246 449.857 272.504 449.857 271.594C449.857 270.152 448.639 269.032 446.833 269.032C445.013 269.032 443.809 270.152 443.809 271.594C443.809 272.518 444.383 273.26 445.139 273.61C444.103 274.03 443.389 274.968 443.389 276.144C443.389 277.894 444.775 279.168 446.833 279.168ZM446.833 273.05C445.853 273.05 445.251 272.49 445.251 271.72C445.251 270.866 445.895 270.306 446.833 270.306C447.757 270.306 448.415 270.866 448.415 271.72C448.415 272.49 447.785 273.05 446.833 273.05ZM446.833 277.866C445.671 277.866 444.845 277.166 444.845 276.06C444.845 275.052 445.643 274.24 446.833 274.24C448.009 274.24 448.821 275.052 448.821 276.06C448.821 277.166 447.967 277.866 446.833 277.866ZM455.96 279.168C458.718 279.168 459.446 276.34 459.446 274.1C459.446 271.678 458.648 269.032 455.96 269.032C453.188 269.032 452.474 271.86 452.474 274.1C452.474 276.522 453.272 279.168 455.96 279.168ZM455.96 277.824C454.364 277.824 453.93 275.948 453.93 274.1C453.93 272.392 454.322 270.362 455.96 270.362C457.556 270.362 457.976 272.266 457.976 274.1C457.976 275.822 457.612 277.824 455.96 277.824ZM455.96 275.052C456.506 275.052 456.912 274.618 456.912 274.1C456.912 273.596 456.506 273.148 455.96 273.148C455.414 273.148 455.008 273.596 455.008 274.1C455.008 274.618 455.414 275.052 455.96 275.052ZM474.956 277.614V269.172L471.372 270.334V271.706L473.514 271.048V277.614H471.078V279H477.35V277.614H474.956ZM483.061 279.168C485.175 279.168 486.575 277.656 486.575 275.766C486.575 273.96 485.469 272.574 483.607 272.574C482.921 272.574 482.347 272.784 481.899 273.148L482.235 270.544H486.015V269.2H480.975L480.443 274.198L481.731 274.744C482.109 274.31 482.655 273.932 483.467 273.932C484.503 273.932 485.119 274.716 485.119 275.808C485.119 276.97 484.265 277.824 483.047 277.824C482.025 277.824 481.423 277.418 480.905 276.97L480.107 278.076C480.611 278.594 481.619 279.168 483.061 279.168ZM492.468 279.168C494.526 279.168 495.912 277.894 495.912 276.144C495.912 274.968 495.184 274.016 494.148 273.596C494.932 273.246 495.492 272.504 495.492 271.594C495.492 270.152 494.274 269.032 492.468 269.032C490.648 269.032 489.444 270.152 489.444 271.594C489.444 272.518 490.018 273.26 490.774 273.61C489.738 274.03 489.024 274.968 489.024 276.144C489.024 277.894 490.41 279.168 492.468 279.168ZM492.468 273.05C491.488 273.05 490.886 272.49 490.886 271.72C490.886 270.866 491.53 270.306 492.468 270.306C493.392 270.306 494.05 270.866 494.05 271.72C494.05 272.49 493.42 273.05 492.468 273.05ZM492.468 277.866C491.306 277.866 490.48 277.166 490.48 276.06C490.48 275.052 491.278 274.24 492.468 274.24C493.644 274.24 494.456 275.052 494.456 276.06C494.456 277.166 493.602 277.866 492.468 277.866ZM511.688 279H513.102V276.69H514.404V275.402H513.102V269.2H511.814L507.082 275.836V276.69H511.688V279ZM511.688 275.402H508.944L511.688 271.37V275.402ZM516.699 269.2V270.53H521.347C519.317 273.218 518.589 275.864 518.575 279H520.017C520.017 276.76 520.605 273.078 522.999 270.348V269.2H516.699ZM407.218 305H408.66V300.604H412.006V305H413.434V295.2H412.006V299.246H408.66V295.2H407.218V305ZM416.345 305H422.659V303.628H417.787V300.618H420.825V299.26H417.787V296.558H422.351V295.2H416.345V305ZM432.233 305L429.321 299.862L431.995 295.2H430.371L428.579 298.546L426.773 295.2H425.135L427.823 299.932L424.925 305H426.549L428.551 301.248L430.595 305H432.233ZM446.553 305.168C448.667 305.168 450.067 303.656 450.067 301.766C450.067 299.96 448.961 298.574 447.099 298.574C446.413 298.574 445.839 298.784 445.391 299.148L445.727 296.544H449.507V295.2H444.467L443.935 300.198L445.223 300.744C445.601 300.31 446.147 299.932 446.959 299.932C447.995 299.932 448.611 300.716 448.611 301.808C448.611 302.97 447.757 303.824 446.539 303.824C445.517 303.824 444.915 303.418 444.397 302.97L443.599 304.076C444.103 304.594 445.111 305.168 446.553 305.168ZM455.96 305.168C458.718 305.168 459.446 302.34 459.446 300.1C459.446 297.678 458.648 295.032 455.96 295.032C453.188 295.032 452.474 297.86 452.474 300.1C452.474 302.522 453.272 305.168 455.96 305.168ZM455.96 303.824C454.364 303.824 453.93 301.948 453.93 300.1C453.93 298.392 454.322 296.362 455.96 296.362C457.556 296.362 457.976 298.266 457.976 300.1C457.976 301.822 457.612 303.824 455.96 303.824ZM455.96 301.052C456.506 301.052 456.912 300.618 456.912 300.1C456.912 299.596 456.506 299.148 455.96 299.148C455.414 299.148 455.008 299.596 455.008 300.1C455.008 300.618 455.414 301.052 455.96 301.052ZM463.309 305.168C466.599 304.748 468.447 302.102 468.447 298.826C468.447 296.656 467.397 295.032 465.115 295.032C463.169 295.032 461.727 296.348 461.727 298.224C461.727 300.016 463.043 301.304 464.807 301.304C465.689 301.304 466.389 301.01 466.809 300.562C466.431 302.396 464.947 303.586 463.309 303.88V305.168ZM465.073 300.016C463.883 300.016 463.141 299.274 463.141 298.168C463.141 297.118 463.897 296.348 465.087 296.348C466.207 296.348 467.019 297.118 467.019 298.168C467.019 299.274 466.235 300.016 465.073 300.016ZM471.106 305H477.42V303.628H472.548V300.618H475.586V299.26H472.548V296.558H477.112V295.2H471.106V305ZM480.177 305H486.505V303.614H481.815C481.969 302.662 482.851 301.948 483.859 301.304C485.231 300.45 486.421 299.652 486.421 297.86C486.421 296.208 485.301 295.032 483.425 295.032C481.885 295.032 480.667 295.9 480.247 297.132L481.535 297.706C481.801 296.894 482.431 296.362 483.439 296.362C484.377 296.362 484.965 296.978 484.965 297.874C484.965 298.896 484.125 299.484 483.229 300.086C481.647 301.066 480.177 302.284 480.177 305ZM489.36 305H490.802V300.618H494.33V299.26H490.802V296.558H495.744V295.2H489.36V305ZM410.578 331.168C412.118 331.168 413.042 330.216 413.518 329.054L412.216 328.55C411.866 329.292 411.39 329.81 410.578 329.81C408.996 329.81 408.296 327.934 408.296 326.1C408.296 324.406 408.884 322.39 410.578 322.39C411.376 322.39 411.796 322.88 412.16 323.566L413.448 322.936C413.042 321.984 412.174 321.032 410.578 321.032C407.89 321.032 406.798 323.636 406.798 326.1C406.798 328.592 407.834 331.168 410.578 331.168ZM416.345 331H417.619V325.26C417.619 325.064 417.605 324.658 417.591 324.42C417.675 324.714 417.759 324.98 417.829 325.26L419.369 331H419.537L421.077 325.26C421.161 324.98 421.231 324.714 421.315 324.42C421.287 324.658 421.287 325.064 421.287 325.26V331H422.561V321.2H421.161L419.691 326.814C419.579 327.192 419.509 327.528 419.467 327.808C419.425 327.528 419.341 327.192 419.243 326.814L417.801 321.2H416.345V331ZM430.581 321.2L428.593 325.666L426.619 321.2H425.023L427.879 327.15V331H429.307V327.15L432.149 321.2H430.581ZM439.778 331H441.43L438.028 324.658L440.8 321.2H439.134L436.04 325.148V321.2H434.598V331H436.04V327.15L437.062 325.876L439.778 331ZM456.002 331.168C457.892 331.168 459.32 329.81 459.32 327.948C459.32 326.254 458.046 324.854 456.268 324.854C455.442 324.854 454.784 325.12 454.392 325.54C454.812 323.944 456.352 322.698 457.962 322.306V321.032C454.532 321.704 452.6 324.406 452.6 327.374C452.6 329.516 453.762 331.168 456.002 331.168ZM455.974 329.824C454.882 329.824 454.042 329.096 454.042 328.018C454.042 326.926 454.854 326.17 455.974 326.17C457.136 326.17 457.906 326.912 457.906 328.018C457.906 329.096 457.108 329.824 455.974 329.824ZM465.129 331.168C467.019 331.168 468.447 329.81 468.447 327.948C468.447 326.254 467.173 324.854 465.395 324.854C464.569 324.854 463.911 325.12 463.519 325.54C463.939 323.944 465.479 322.698 467.089 322.306V321.032C463.659 321.704 461.727 324.406 461.727 327.374C461.727 329.516 462.889 331.168 465.129 331.168ZM465.101 329.824C464.009 329.824 463.169 329.096 463.169 328.018C463.169 326.926 463.981 326.17 465.101 326.17C466.263 326.17 467.033 326.912 467.033 328.018C467.033 329.096 466.235 329.824 465.101 329.824ZM483.341 331.168C486.099 331.168 486.827 328.34 486.827 326.1C486.827 323.678 486.029 321.032 483.341 321.032C480.569 321.032 479.855 323.86 479.855 326.1C479.855 328.522 480.653 331.168 483.341 331.168ZM483.341 329.824C481.745 329.824 481.311 327.948 481.311 326.1C481.311 324.392 481.703 322.362 483.341 322.362C484.937 322.362 485.357 324.266 485.357 326.1C485.357 327.822 484.993 329.824 483.341 329.824ZM483.341 327.052C483.887 327.052 484.293 326.618 484.293 326.1C484.293 325.596 483.887 325.148 483.341 325.148C482.795 325.148 482.389 325.596 482.389 326.1C482.389 326.618 482.795 327.052 483.341 327.052ZM502.337 329.614V321.172L498.753 322.334V323.706L500.895 323.048V329.614H498.459V331H504.731V329.614H502.337ZM510.722 331.168C513.48 331.168 514.208 328.34 514.208 326.1C514.208 323.678 513.41 321.032 510.722 321.032C507.95 321.032 507.236 323.86 507.236 326.1C507.236 328.522 508.034 331.168 510.722 331.168ZM510.722 329.824C509.126 329.824 508.692 327.948 508.692 326.1C508.692 324.392 509.084 322.362 510.722 322.362C512.318 322.362 512.738 324.266 512.738 326.1C512.738 327.822 512.374 329.824 510.722 329.824ZM510.722 327.052C511.268 327.052 511.674 326.618 511.674 326.1C511.674 325.596 511.268 325.148 510.722 325.148C510.176 325.148 509.77 325.596 509.77 326.1C509.77 326.618 510.176 327.052 510.722 327.052ZM519.849 331.168C522.607 331.168 523.335 328.34 523.335 326.1C523.335 323.678 522.537 321.032 519.849 321.032C517.077 321.032 516.363 323.86 516.363 326.1C516.363 328.522 517.161 331.168 519.849 331.168ZM519.849 329.824C518.253 329.824 517.819 327.948 517.819 326.1C517.819 324.392 518.211 322.362 519.849 322.362C521.445 322.362 521.865 324.266 521.865 326.1C521.865 327.822 521.501 329.824 519.849 329.824ZM519.849 327.052C520.395 327.052 520.801 326.618 520.801 326.1C520.801 325.596 520.395 325.148 519.849 325.148C519.303 325.148 518.897 325.596 518.897 326.1C518.897 326.618 519.303 327.052 519.849 327.052ZM536.325 331.168C539.615 330.748 541.463 328.102 541.463 324.826C541.463 322.656 540.413 321.032 538.131 321.032C536.185 321.032 534.743 322.348 534.743 324.224C534.743 326.016 536.059 327.304 537.823 327.304C538.705 327.304 539.405 327.01 539.825 326.562C539.447 328.396 537.963 329.586 536.325 329.88V331.168ZM538.089 326.016C536.899 326.016 536.157 325.274 536.157 324.168C536.157 323.118 536.913 322.348 538.103 322.348C539.223 322.348 540.035 323.118 540.035 324.168C540.035 325.274 539.251 326.016 538.089 326.016Z" fill="white"/>
<path d="M23.3305 22.004H26.9005C27.6658 22.004 28.2958 22.0927 28.7905 22.27C29.2945 22.438 29.6911 22.6667 29.9805 22.956C30.2791 23.236 30.4845 23.5673 30.5965 23.95C30.7178 24.3233 30.7785 24.7153 30.7785 25.126C30.7785 25.5647 30.7178 25.9847 30.5965 26.386C30.4845 26.7873 30.2791 27.142 29.9805 27.45C29.6911 27.7487 29.2991 27.9867 28.8045 28.164C28.3191 28.3413 27.7031 28.43 26.9565 28.43H25.3885V32H23.3305V22.004ZM26.8865 26.694C27.2505 26.694 27.5491 26.6567 27.7825 26.582C28.0251 26.5073 28.2165 26.4047 28.3565 26.274C28.4965 26.1433 28.5898 25.9847 28.6365 25.798C28.6925 25.602 28.7205 25.392 28.7205 25.168C28.7205 24.9347 28.6925 24.7293 28.6365 24.552C28.5805 24.3747 28.4825 24.2253 28.3425 24.104C28.2025 23.9827 28.0111 23.8893 27.7685 23.824C27.5351 23.7587 27.2365 23.726 26.8725 23.726H25.3885V26.694H26.8865ZM35.4855 22.004H39.0275C39.8115 22.004 40.4555 22.0973 40.9595 22.284C41.4729 22.4613 41.8742 22.6993 42.1635 22.998C42.4529 23.2873 42.6536 23.614 42.7656 23.978C42.8776 24.3327 42.9335 24.6827 42.9335 25.028C42.9335 25.672 42.8169 26.2133 42.5836 26.652C42.3502 27.0907 41.9582 27.4593 41.4075 27.758L43.4376 32H41.1835L39.5035 28.248H37.5435V32H35.4855V22.004ZM39.1675 26.512C39.4942 26.512 39.7649 26.4793 39.9795 26.414C40.1942 26.3393 40.3622 26.2413 40.4835 26.12C40.6142 25.9893 40.7029 25.8353 40.7496 25.658C40.7962 25.4807 40.8195 25.2847 40.8195 25.07C40.8195 24.8927 40.7915 24.7247 40.7355 24.566C40.6795 24.398 40.5815 24.2533 40.4415 24.132C40.3109 24.0013 40.1242 23.9033 39.8815 23.838C39.6482 23.7633 39.3495 23.726 38.9855 23.726H37.5435V26.512H39.1675ZM47.832 22.004H49.918V32H47.832V22.004ZM55.1609 22.004H57.6669L60.1589 29.466L62.7209 22.004H65.1569V32H63.2389V25.336L60.9569 32H59.3329L57.0369 25.35V32H55.1609V22.004ZM73.2759 22.004H75.2639L79.0159 32H76.7759L75.9779 29.69H72.4779L71.6799 32H69.5239L73.2759 22.004ZM75.4319 27.968L74.2139 24.384L73.0099 27.968H75.4319ZM83.3813 22.004H86.9233C87.7073 22.004 88.3513 22.0973 88.8553 22.284C89.3686 22.4613 89.7699 22.6993 90.0593 22.998C90.3486 23.2873 90.5493 23.614 90.6613 23.978C90.7733 24.3327 90.8293 24.6827 90.8293 25.028C90.8293 25.672 90.7126 26.2133 90.4793 26.652C90.2459 27.0907 89.8539 27.4593 89.3033 27.758L91.3333 32H89.0793L87.3993 28.248H85.4393V32H83.3813V22.004ZM87.0633 26.512C87.3899 26.512 87.6606 26.4793 87.8753 26.414C88.0899 26.3393 88.2579 26.2413 88.3793 26.12C88.5099 25.9893 88.5986 25.8353 88.6453 25.658C88.6919 25.4807 88.7153 25.2847 88.7153 25.07C88.7153 24.8927 88.6873 24.7247 88.6313 24.566C88.5753 24.398 88.4773 24.2533 88.3373 24.132C88.2066 24.0013 88.0199 23.9033 87.7773 23.838C87.5439 23.7633 87.2453 23.726 86.8813 23.726H85.4393V26.512H87.0633ZM97.8115 27.926L94.3535 22.004H96.6775L98.8335 26.05L101.06 22.004H103.272L99.8975 27.926V32H97.8115V27.926ZM113.954 22.004H117.552C118.289 22.004 118.896 22.074 119.372 22.214C119.857 22.354 120.24 22.5453 120.52 22.788C120.8 23.0307 120.991 23.3153 121.094 23.642C121.206 23.9687 121.262 24.3233 121.262 24.706C121.262 25.098 121.178 25.4667 121.01 25.812C120.842 26.1573 120.525 26.4513 120.058 26.694C120.357 26.8527 120.599 27.0207 120.786 27.198C120.982 27.366 121.131 27.548 121.234 27.744C121.346 27.94 121.421 28.1407 121.458 28.346C121.505 28.5513 121.528 28.7567 121.528 28.962C121.528 29.382 121.463 29.7787 121.332 30.152C121.211 30.5253 121.001 30.8473 120.702 31.118C120.413 31.3887 120.03 31.6033 119.554 31.762C119.078 31.9207 118.49 32 117.79 32H113.954V22.004ZM117.79 25.966C118.341 25.966 118.719 25.8633 118.924 25.658C119.129 25.4527 119.232 25.1587 119.232 24.776C119.232 24.3653 119.097 24.076 118.826 23.908C118.565 23.7307 118.117 23.642 117.482 23.642H115.97V25.966H117.79ZM117.72 30.362C118.065 30.362 118.35 30.3293 118.574 30.264C118.807 30.1987 118.994 30.1053 119.134 29.984C119.274 29.8533 119.372 29.704 119.428 29.536C119.484 29.368 119.512 29.1767 119.512 28.962C119.512 28.5327 119.395 28.206 119.162 27.982C118.929 27.758 118.518 27.646 117.93 27.646H115.97V30.362H117.72ZM126.218 22.004H128.304V30.208H133.036L132.812 32H126.218V22.004ZM137.125 22.004H139.211V27.954C139.211 28.8033 139.36 29.4333 139.659 29.844C139.957 30.2547 140.457 30.46 141.157 30.46C141.857 30.46 142.351 30.2547 142.641 29.844C142.939 29.4333 143.089 28.8033 143.089 27.954V22.004H145.175V27.954C145.175 28.71 145.081 29.3587 144.895 29.9C144.708 30.4413 144.442 30.8893 144.097 31.244C143.751 31.5893 143.327 31.8413 142.823 32C142.328 32.168 141.768 32.252 141.143 32.252C140.508 32.252 139.939 32.168 139.435 32C138.94 31.832 138.52 31.5753 138.175 31.23C137.829 30.8753 137.568 30.4227 137.391 29.872C137.213 29.3213 137.125 28.668 137.125 27.912V22.004ZM150.228 22.004H157.046V23.782H152.314V25.966H156.766V27.758H152.314V30.222H157.34L157.13 32H150.228V22.004ZM23.5125 58H24.9545V54.164H26.7605C29.0845 54.164 29.9805 52.554 29.9805 51.182C29.9805 49.712 29.1685 48.2 26.7605 48.2H23.5125V58ZM24.9545 52.834V49.53H26.8445C28.1605 49.53 28.5245 50.482 28.5245 51.182C28.5245 51.966 28.0905 52.834 26.8445 52.834H24.9545ZM32.6394 58H33.9134V52.26C33.9134 52.064 33.8994 51.658 33.8854 51.42C33.9694 51.714 34.0534 51.98 34.1234 52.26L35.6634 58H35.8314L37.3714 52.26C37.4554 51.98 37.5254 51.714 37.6094 51.42C37.5814 51.658 37.5814 52.064 37.5814 52.26V58H38.8554V48.2H37.4554L35.9854 53.814C35.8734 54.192 35.8034 54.528 35.7614 54.808C35.7194 54.528 35.6354 54.192 35.5374 53.814L34.0954 48.2H32.6394V58ZM44.9724 58.168C46.6804 58.168 48.0664 57.132 48.0664 55.312C48.0664 53.534 46.5544 52.722 45.3504 52.162C44.3564 51.714 43.4324 51.336 43.4324 50.524C43.4324 49.81 43.9924 49.362 44.7904 49.362C45.5464 49.362 46.0924 49.824 46.3304 50.37L47.6324 49.936C47.3244 48.844 46.2744 48.032 44.8604 48.032C43.0824 48.032 41.9764 49.166 41.9764 50.524C41.9764 52.162 43.3904 52.862 44.6224 53.408C45.6724 53.87 46.6104 54.444 46.6104 55.354C46.6104 56.32 45.9944 56.824 45.0704 56.824C44.1464 56.824 43.3764 56.222 42.9844 55.34L41.6544 55.83C42.1304 57.188 43.4044 58.168 44.9724 58.168ZM59.9643 58H66.2923V56.614H61.6023C61.7563 55.662 62.6383 54.948 63.6463 54.304C65.0183 53.45 66.2083 52.652 66.2083 50.86C66.2083 49.208 65.0883 48.032 63.2123 48.032C61.6723 48.032 60.4543 48.9 60.0343 50.132L61.3223 50.706C61.5883 49.894 62.2183 49.362 63.2263 49.362C64.1643 49.362 64.7523 49.978 64.7523 50.874C64.7523 51.896 63.9123 52.484 63.0163 53.086C61.4343 54.066 59.9643 55.284 59.9643 58ZM70.4772 58.168C73.7672 57.748 75.6152 55.102 75.6152 51.826C75.6152 49.656 74.5652 48.032 72.2832 48.032C70.3372 48.032 68.8952 49.348 68.8952 51.224C68.8952 53.016 70.2112 54.304 71.9752 54.304C72.8572 54.304 73.5572 54.01 73.9772 53.562C73.5992 55.396 72.1152 56.586 70.4772 56.88V58.168ZM72.2412 53.016C71.0512 53.016 70.3092 52.274 70.3092 51.168C70.3092 50.118 71.0652 49.348 72.2552 49.348C73.3752 49.348 74.1872 50.118 74.1872 51.168C74.1872 52.274 73.4032 53.016 72.2412 53.016ZM81.4242 58.168C83.3142 58.168 84.7422 56.81 84.7422 54.948C84.7422 53.254 83.4682 51.854 81.6902 51.854C80.8642 51.854 80.2062 52.12 79.8142 52.54C80.2342 50.944 81.7742 49.698 83.3842 49.306V48.032C79.9542 48.704 78.0222 51.406 78.0222 54.374C78.0222 56.516 79.1842 58.168 81.4242 58.168ZM81.3962 56.824C80.3042 56.824 79.4642 56.096 79.4642 55.018C79.4642 53.926 80.2762 53.17 81.3962 53.17C82.5582 53.17 83.3282 53.912 83.3282 55.018C83.3282 56.096 82.5302 56.824 81.3962 56.824ZM29.8545 77.07C29.8545 75.614 29.1125 74.2 26.7045 74.2H23.5125V84H24.9545V79.982H26.2705L28.2305 84H29.8265L27.7965 79.842C29.2245 79.436 29.8545 78.246 29.8545 77.07ZM24.9545 75.53H26.7325C28.0625 75.53 28.4125 76.398 28.4125 77.098C28.4125 77.868 28.0065 78.638 26.7325 78.638H24.9545V75.53ZM35.9434 84.168C37.7214 84.168 39.0934 82.838 39.0934 80.388V79.128H35.8734V80.458H37.6094V80.794C37.6094 81.984 37.0214 82.81 35.9434 82.81C34.4174 82.81 33.7314 81.004 33.7314 79.1C33.7314 77.406 34.3194 75.376 35.9434 75.376C36.7414 75.376 37.1894 75.95 37.5394 76.594L38.8134 75.866C38.2954 74.928 37.5534 74.032 35.9434 74.032C33.4374 74.032 32.2474 76.566 32.2474 79.1C32.2474 81.662 33.3674 84.168 35.9434 84.168ZM41.7664 84H45.0424C47.4644 84 48.2624 82.53 48.2624 81.172C48.2624 80.066 47.6324 79.17 46.5544 78.834C47.4364 78.456 47.9124 77.7 47.9124 76.79C47.9124 75.488 47.1704 74.2 44.8324 74.2H41.7664V84ZM43.2084 78.26V75.516H44.8884C46.2184 75.516 46.4984 76.216 46.4984 76.86C46.4984 77.714 45.8684 78.26 44.5944 78.26H43.2084ZM43.2084 82.67V79.576H44.7484C46.4424 79.576 46.8484 80.374 46.8484 81.214C46.8484 81.914 46.4844 82.67 45.1684 82.67H43.2084ZM62.8483 84.168C64.9623 84.168 66.3623 82.656 66.3623 80.766C66.3623 78.96 65.2563 77.574 63.3943 77.574C62.7083 77.574 62.1343 77.784 61.6863 78.148L62.0223 75.544H65.8023V74.2H60.7623L60.2303 79.198L61.5183 79.744C61.8963 79.31 62.4423 78.932 63.2543 78.932C64.2903 78.932 64.9063 79.716 64.9063 80.808C64.9063 81.97 64.0523 82.824 62.8343 82.824C61.8123 82.824 61.2103 82.418 60.6923 81.97L59.8943 83.076C60.3983 83.594 61.4063 84.168 62.8483 84.168ZM78.2182 84H84.5462V82.614H79.8562C80.0102 81.662 80.8922 80.948 81.9002 80.304C83.2722 79.45 84.4622 78.652 84.4622 76.86C84.4622 75.208 83.3422 74.032 81.4662 74.032C79.9262 74.032 78.7082 74.9 78.2882 76.132L79.5762 76.706C79.8422 75.894 80.4722 75.362 81.4802 75.362C82.4182 75.362 83.0062 75.978 83.0062 76.874C83.0062 77.896 82.1662 78.484 81.2702 79.086C79.6882 80.066 78.2182 81.284 78.2182 84ZM90.5091 84.168C92.5671 84.168 93.9531 82.894 93.9531 81.144C93.9531 79.968 93.2251 79.016 92.1891 78.596C92.9731 78.246 93.5331 77.504 93.5331 76.594C93.5331 75.152 92.3151 74.032 90.5091 74.032C88.6891 74.032 87.4851 75.152 87.4851 76.594C87.4851 77.518 88.0591 78.26 88.8151 78.61C87.7791 79.03 87.0651 79.968 87.0651 81.144C87.0651 82.894 88.4511 84.168 90.5091 84.168ZM90.5091 78.05C89.5291 78.05 88.9271 77.49 88.9271 76.72C88.9271 75.866 89.5711 75.306 90.5091 75.306C91.4331 75.306 92.0911 75.866 92.0911 76.72C92.0911 77.49 91.4611 78.05 90.5091 78.05ZM90.5091 82.866C89.3471 82.866 88.5211 82.166 88.5211 81.06C88.5211 80.052 89.3191 79.24 90.5091 79.24C91.6851 79.24 92.4971 80.052 92.4971 81.06C92.4971 82.166 91.6431 82.866 90.5091 82.866ZM109.729 84H111.143V81.69H112.445V80.402H111.143V74.2H109.855L105.123 80.836V81.69H109.729V84ZM109.729 80.402H106.985L109.729 76.37V80.402ZM118.856 84H120.27V81.69H121.572V80.402H120.27V74.2H118.982L114.25 80.836V81.69H118.856V84ZM118.856 80.402H116.112L118.856 76.37V80.402ZM23.5125 110H24.9545V105.604H28.3005V110H29.7285V100.2H28.3005V104.246H24.9545V100.2H23.5125V110ZM32.6394 110H38.9534V108.628H34.0814V105.618H37.1194V104.26H34.0814V101.558H38.6454V100.2H32.6394V110ZM48.5284 110L45.6164 104.862L48.2904 100.2H46.6664L44.8744 103.546L43.0684 100.2H41.4304L44.1184 104.932L41.2204 110H42.8444L44.8464 106.248L46.8904 110H48.5284ZM63.1283 110.168C65.8863 110.168 66.6143 107.34 66.6143 105.1C66.6143 102.678 65.8163 100.032 63.1283 100.032C60.3563 100.032 59.6423 102.86 59.6423 105.1C59.6423 107.522 60.4403 110.168 63.1283 110.168ZM63.1283 108.824C61.5323 108.824 61.0983 106.948 61.0983 105.1C61.0983 103.392 61.4903 101.362 63.1283 101.362C64.7243 101.362 65.1443 103.266 65.1443 105.1C65.1443 106.822 64.7803 108.824 63.1283 108.824ZM63.1283 106.052C63.6743 106.052 64.0803 105.618 64.0803 105.1C64.0803 104.596 63.6743 104.148 63.1283 104.148C62.5823 104.148 62.1763 104.596 62.1763 105.1C62.1763 105.618 62.5823 106.052 63.1283 106.052ZM71.9752 110.168C74.0892 110.168 75.4892 108.656 75.4892 106.766C75.4892 104.96 74.3832 103.574 72.5212 103.574C71.8352 103.574 71.2612 103.784 70.8132 104.148L71.1492 101.544H74.9292V100.2H69.8892L69.3572 105.198L70.6452 105.744C71.0232 105.31 71.5692 104.932 72.3812 104.932C73.4172 104.932 74.0332 105.716 74.0332 106.808C74.0332 107.97 73.1792 108.824 71.9612 108.824C70.9392 108.824 70.3372 108.418 69.8192 107.97L69.0212 109.076C69.5252 109.594 70.5332 110.168 71.9752 110.168ZM82.1242 108.614V100.172L78.5402 101.334V102.706L80.6822 102.048V108.614H78.2462V110H84.5182V108.614H82.1242ZM90.7611 110.168C92.3011 110.168 93.2251 109.216 93.7011 108.054L92.3991 107.55C92.0491 108.292 91.5731 108.81 90.7611 108.81C89.1791 108.81 88.4791 106.934 88.4791 105.1C88.4791 103.406 89.0671 101.39 90.7611 101.39C91.5591 101.39 91.9791 101.88 92.3431 102.566L93.6311 101.936C93.2251 100.984 92.3571 100.032 90.7611 100.032C88.0731 100.032 86.9811 102.636 86.9811 105.1C86.9811 107.592 88.0171 110.168 90.7611 110.168ZM96.4721 110H102.8V108.614H98.1101C98.2641 107.662 99.1461 106.948 100.154 106.304C101.526 105.45 102.716 104.652 102.716 102.86C102.716 101.208 101.596 100.032 99.7201 100.032C98.1801 100.032 96.9621 100.9 96.5421 102.132L97.8301 102.706C98.0961 101.894 98.7261 101.362 99.7341 101.362C100.672 101.362 101.26 101.978 101.26 102.874C101.26 103.896 100.42 104.484 99.5241 105.086C97.9421 106.066 96.4721 107.284 96.4721 110ZM109.015 110.168C110.555 110.168 111.479 109.216 111.955 108.054L110.653 107.55C110.303 108.292 109.827 108.81 109.015 108.81C107.433 108.81 106.733 106.934 106.733 105.1C106.733 103.406 107.321 101.39 109.015 101.39C109.813 101.39 110.233 101.88 110.597 102.566L111.885 101.936C111.479 100.984 110.611 100.032 109.015 100.032C106.327 100.032 105.235 102.636 105.235 105.1C105.235 107.592 106.271 110.168 109.015 110.168ZM26.8725 136.168C28.4125 136.168 29.3365 135.216 29.8125 134.054L28.5105 133.55C28.1605 134.292 27.6845 134.81 26.8725 134.81C25.2905 134.81 24.5905 132.934 24.5905 131.1C24.5905 129.406 25.1785 127.39 26.8725 127.39C27.6705 127.39 28.0905 127.88 28.4545 128.566L29.7425 127.936C29.3365 126.984 28.4685 126.032 26.8725 126.032C24.1845 126.032 23.0925 128.636 23.0925 131.1C23.0925 133.592 24.1285 136.168 26.8725 136.168ZM32.6394 136H33.9134V130.26C33.9134 130.064 33.8994 129.658 33.8854 129.42C33.9694 129.714 34.0534 129.98 34.1234 130.26L35.6634 136H35.8314L37.3714 130.26C37.4554 129.98 37.5254 129.714 37.6094 129.42C37.5814 129.658 37.5814 130.064 37.5814 130.26V136H38.8554V126.2H37.4554L35.9854 131.814C35.8734 132.192 35.8034 132.528 35.7614 132.808C35.7194 132.528 35.6354 132.192 35.5374 131.814L34.0954 126.2H32.6394V136ZM46.8764 126.2L44.8884 130.666L42.9144 126.2H41.3184L44.1744 132.15V136H45.6024V132.15L48.4444 126.2H46.8764ZM56.0733 136H57.7253L54.3233 129.658L57.0953 126.2H55.4293L52.3353 130.148V126.2H50.8933V136H52.3353V132.15L53.3573 130.876L56.0733 136ZM72.9972 134.614V126.172L69.4132 127.334V128.706L71.5552 128.048V134.614H69.1192V136H75.3912V134.614H72.9972ZM81.3822 136.168C84.1402 136.168 84.8682 133.34 84.8682 131.1C84.8682 128.678 84.0702 126.032 81.3822 126.032C78.6102 126.032 77.8962 128.86 77.8962 131.1C77.8962 133.522 78.6942 136.168 81.3822 136.168ZM81.3822 134.824C79.7862 134.824 79.3522 132.948 79.3522 131.1C79.3522 129.392 79.7442 127.362 81.3822 127.362C82.9782 127.362 83.3982 129.266 83.3982 131.1C83.3982 132.822 83.0342 134.824 81.3822 134.824ZM81.3822 132.052C81.9282 132.052 82.3342 131.618 82.3342 131.1C82.3342 130.596 81.9282 130.148 81.3822 130.148C80.8362 130.148 80.4302 130.596 80.4302 131.1C80.4302 131.618 80.8362 132.052 81.3822 132.052ZM90.5091 136.168C93.2671 136.168 93.9951 133.34 93.9951 131.1C93.9951 128.678 93.1971 126.032 90.5091 126.032C87.7371 126.032 87.0231 128.86 87.0231 131.1C87.0231 133.522 87.8211 136.168 90.5091 136.168ZM90.5091 134.824C88.9131 134.824 88.4791 132.948 88.4791 131.1C88.4791 129.392 88.8711 127.362 90.5091 127.362C92.1051 127.362 92.5251 129.266 92.5251 131.1C92.5251 132.822 92.1611 134.824 90.5091 134.824ZM90.5091 132.052C91.0551 132.052 91.4611 131.618 91.4611 131.1C91.4611 130.596 91.0551 130.148 90.5091 130.148C89.9631 130.148 89.5571 130.596 89.5571 131.1C89.5571 131.618 89.9631 132.052 90.5091 132.052ZM109.729 136H111.143V133.69H112.445V132.402H111.143V126.2H109.855L105.123 132.836V133.69H109.729V136ZM109.729 132.402H106.985L109.729 128.37V132.402ZM117.932 136.168C119.822 136.168 121.25 134.81 121.25 132.948C121.25 131.254 119.976 129.854 118.198 129.854C117.372 129.854 116.714 130.12 116.322 130.54C116.742 128.944 118.282 127.698 119.892 127.306V126.032C116.462 126.704 114.53 129.406 114.53 132.374C114.53 134.516 115.692 136.168 117.932 136.168ZM117.904 134.824C116.812 134.824 115.972 134.096 115.972 133.018C115.972 131.926 116.784 131.17 117.904 131.17C119.066 131.17 119.836 131.912 119.836 133.018C119.836 134.096 119.038 134.824 117.904 134.824ZM136.144 136.168C138.902 136.168 139.63 133.34 139.63 131.1C139.63 128.678 138.832 126.032 136.144 126.032C133.372 126.032 132.658 128.86 132.658 131.1C132.658 133.522 133.456 136.168 136.144 136.168ZM136.144 134.824C134.548 134.824 134.114 132.948 134.114 131.1C134.114 129.392 134.506 127.362 136.144 127.362C137.74 127.362 138.16 129.266 138.16 131.1C138.16 132.822 137.796 134.824 136.144 134.824ZM136.144 132.052C136.69 132.052 137.096 131.618 137.096 131.1C137.096 130.596 136.69 130.148 136.144 130.148C135.598 130.148 135.192 130.596 135.192 131.1C135.192 131.618 135.598 132.052 136.144 132.052ZM154.398 136.168C156.456 136.168 157.842 134.894 157.842 133.144C157.842 131.968 157.114 131.016 156.078 130.596C156.862 130.246 157.422 129.504 157.422 128.594C157.422 127.152 156.204 126.032 154.398 126.032C152.578 126.032 151.374 127.152 151.374 128.594C151.374 129.518 151.948 130.26 152.704 130.61C151.668 131.03 150.954 131.968 150.954 133.144C150.954 134.894 152.34 136.168 154.398 136.168ZM154.398 130.05C153.418 130.05 152.816 129.49 152.816 128.72C152.816 127.866 153.46 127.306 154.398 127.306C155.322 127.306 155.98 127.866 155.98 128.72C155.98 129.49 155.35 130.05 154.398 130.05ZM154.398 134.866C153.236 134.866 152.41 134.166 152.41 133.06C152.41 132.052 153.208 131.24 154.398 131.24C155.574 131.24 156.386 132.052 156.386 133.06C156.386 134.166 155.532 134.866 154.398 134.866ZM161.747 136.168C165.037 135.748 166.885 133.102 166.885 129.826C166.885 127.656 165.835 126.032 163.553 126.032C161.607 126.032 160.165 127.348 160.165 129.224C160.165 131.016 161.481 132.304 163.245 132.304C164.127 132.304 164.827 132.01 165.247 131.562C164.869 133.396 163.385 134.586 161.747 134.88V136.168ZM163.511 131.016C162.321 131.016 161.579 130.274 161.579 129.168C161.579 128.118 162.335 127.348 163.525 127.348C164.645 127.348 165.457 128.118 165.457 129.168C165.457 130.274 164.673 131.016 163.511 131.016Z" fill="white"/>
<path d="M789.859 21.004H792.211L793.821 27.948L795.459 21.06H797.671L799.379 27.948L800.891 21.004H803.131L800.415 31H798.385L796.523 23.608L794.717 31H792.743L789.859 21.004ZM807.49 21.004H809.576V24.868H813.538V21.004H815.624V31H813.538V26.8H809.576V31H807.49V21.004ZM820.861 21.004H822.947V31H820.861V21.004ZM830.458 22.81H827.448V21.004H835.568V22.81H832.558V31H830.458V22.81ZM840.072 21.004H846.89V22.782H842.158V24.966H846.61V26.758H842.158V29.222H847.184L846.974 31H840.072V21.004ZM797.265 50.07C797.265 48.614 796.523 47.2 794.115 47.2H790.923V57H792.365V52.982H793.681L795.641 57H797.237L795.207 52.842C796.635 52.436 797.265 51.246 797.265 50.07ZM792.365 48.53H794.143C795.473 48.53 795.823 49.398 795.823 50.098C795.823 50.868 795.417 51.638 794.143 51.638H792.365V48.53ZM803.354 57.168C805.132 57.168 806.504 55.838 806.504 53.388V52.128H803.284V53.458H805.02V53.794C805.02 54.984 804.432 55.81 803.354 55.81C801.828 55.81 801.142 54.004 801.142 52.1C801.142 50.406 801.73 48.376 803.354 48.376C804.152 48.376 804.6 48.95 804.95 49.594L806.224 48.866C805.706 47.928 804.964 47.032 803.354 47.032C800.848 47.032 799.658 49.566 799.658 52.1C799.658 54.662 800.778 57.168 803.354 57.168ZM809.177 57H812.453C814.875 57 815.673 55.53 815.673 54.172C815.673 53.066 815.043 52.17 813.965 51.834C814.847 51.456 815.323 50.7 815.323 49.79C815.323 48.488 814.581 47.2 812.243 47.2H809.177V57ZM810.619 51.26V48.516H812.299C813.629 48.516 813.909 49.216 813.909 49.86C813.909 50.714 813.279 51.26 812.005 51.26H810.619ZM810.619 55.67V52.576H812.159C813.853 52.576 814.259 53.374 814.259 54.214C814.259 54.914 813.895 55.67 812.579 55.67H810.619ZM827.375 57H833.703V55.614H829.013C829.167 54.662 830.049 53.948 831.057 53.304C832.429 52.45 833.619 51.652 833.619 49.86C833.619 48.208 832.499 47.032 830.623 47.032C829.083 47.032 827.865 47.9 827.445 49.132L828.733 49.706C828.999 48.894 829.629 48.362 830.637 48.362C831.575 48.362 832.163 48.978 832.163 49.874C832.163 50.896 831.323 51.484 830.427 52.086C828.845 53.066 827.375 54.284 827.375 57ZM839.386 57.168C841.5 57.168 842.9 55.656 842.9 53.766C842.9 51.96 841.794 50.574 839.932 50.574C839.246 50.574 838.672 50.784 838.224 51.148L838.56 48.544H842.34V47.2H837.3L836.768 52.198L838.056 52.744C838.434 52.31 838.98 51.932 839.792 51.932C840.828 51.932 841.444 52.716 841.444 53.808C841.444 54.97 840.59 55.824 839.372 55.824C838.35 55.824 837.748 55.418 837.23 54.97L836.432 56.076C836.936 56.594 837.944 57.168 839.386 57.168ZM848.512 57.168C850.626 57.168 852.026 55.656 852.026 53.766C852.026 51.96 850.92 50.574 849.058 50.574C848.372 50.574 847.798 50.784 847.35 51.148L847.686 48.544H851.466V47.2H846.426L845.894 52.198L847.182 52.744C847.56 52.31 848.106 51.932 848.918 51.932C849.954 51.932 850.57 52.716 850.57 53.808C850.57 54.97 849.716 55.824 848.498 55.824C847.476 55.824 846.874 55.418 846.356 54.97L845.558 56.076C846.062 56.594 847.07 57.168 848.512 57.168ZM863.882 57H870.21V55.614H865.52C865.674 54.662 866.556 53.948 867.564 53.304C868.936 52.45 870.126 51.652 870.126 49.86C870.126 48.208 869.006 47.032 867.13 47.032C865.59 47.032 864.372 47.9 863.952 49.132L865.24 49.706C865.506 48.894 866.136 48.362 867.144 48.362C868.082 48.362 868.67 48.978 868.67 49.874C868.67 50.896 867.83 51.484 866.934 52.086C865.352 53.066 863.882 54.284 863.882 57ZM875.893 57.168C878.007 57.168 879.407 55.656 879.407 53.766C879.407 51.96 878.301 50.574 876.439 50.574C875.753 50.574 875.179 50.784 874.731 51.148L875.067 48.544H878.847V47.2H873.807L873.275 52.198L874.563 52.744C874.941 52.31 875.487 51.932 876.299 51.932C877.335 51.932 877.951 52.716 877.951 53.808C877.951 54.97 877.097 55.824 875.879 55.824C874.857 55.824 874.255 55.418 873.737 54.97L872.939 56.076C873.443 56.594 874.451 57.168 875.893 57.168ZM885.02 57.168C887.134 57.168 888.534 55.656 888.534 53.766C888.534 51.96 887.428 50.574 885.566 50.574C884.88 50.574 884.306 50.784 883.858 51.148L884.194 48.544H887.974V47.2H882.934L882.402 52.198L883.69 52.744C884.068 52.31 884.614 51.932 885.426 51.932C886.462 51.932 887.078 52.716 887.078 53.808C887.078 54.97 886.224 55.824 885.006 55.824C883.984 55.824 883.382 55.418 882.864 54.97L882.066 56.076C882.57 56.594 883.578 57.168 885.02 57.168ZM900.39 57H906.718V55.614H902.028C902.182 54.662 903.064 53.948 904.072 53.304C905.444 52.45 906.634 51.652 906.634 49.86C906.634 48.208 905.514 47.032 903.638 47.032C902.098 47.032 900.88 47.9 900.46 49.132L901.748 49.706C902.014 48.894 902.644 48.362 903.652 48.362C904.59 48.362 905.178 48.978 905.178 49.874C905.178 50.896 904.338 51.484 903.442 52.086C901.86 53.066 900.39 54.284 900.39 57ZM912.401 57.168C914.515 57.168 915.915 55.656 915.915 53.766C915.915 51.96 914.809 50.574 912.947 50.574C912.261 50.574 911.687 50.784 911.239 51.148L911.575 48.544H915.355V47.2H910.315L909.783 52.198L911.071 52.744C911.449 52.31 911.995 51.932 912.807 51.932C913.843 51.932 914.459 52.716 914.459 53.808C914.459 54.97 913.605 55.824 912.387 55.824C911.365 55.824 910.763 55.418 910.245 54.97L909.447 56.076C909.951 56.594 910.959 57.168 912.401 57.168ZM921.528 57.168C923.642 57.168 925.042 55.656 925.042 53.766C925.042 51.96 923.936 50.574 922.074 50.574C921.388 50.574 920.814 50.784 920.366 51.148L920.702 48.544H924.482V47.2H919.442L918.91 52.198L920.198 52.744C920.576 52.31 921.122 51.932 921.934 51.932C922.97 51.932 923.586 52.716 923.586 53.808C923.586 54.97 922.732 55.824 921.514 55.824C920.492 55.824 919.89 55.418 919.372 54.97L918.574 56.076C919.078 56.594 920.086 57.168 921.528 57.168ZM790.923 83H792.365V78.604H795.711V83H797.139V73.2H795.711V77.246H792.365V73.2H790.923V83ZM800.05 83H806.364V81.628H801.492V78.618H804.53V77.26H801.492V74.558H806.056V73.2H800.05V83ZM815.939 83L813.027 77.862L815.701 73.2H814.077L812.285 76.546L810.479 73.2H808.841L811.529 77.932L808.631 83H810.255L812.257 79.248L814.301 83H815.939ZM821.412 78.254C822 78.254 822.448 77.792 822.448 77.232C822.448 76.686 822 76.21 821.412 76.21C820.824 76.21 820.376 76.686 820.376 77.232C820.376 77.792 820.824 78.254 821.412 78.254ZM821.412 83.182C822 83.182 822.448 82.72 822.448 82.16C822.448 81.614 822 81.138 821.412 81.138C820.824 81.138 820.376 81.614 820.376 82.16C820.376 82.72 820.824 83.182 821.412 83.182ZM836.558 83H838V78.618H841.528V77.26H838V74.558H842.942V73.2H836.558V83ZM845.684 83H847.126V78.618H850.654V77.26H847.126V74.558H852.068V73.2H845.684V83ZM854.811 83H856.253V78.618H859.781V77.26H856.253V74.558H861.195V73.2H854.811V83ZM863.938 83H865.38V78.618H868.908V77.26H865.38V74.558H870.322V73.2H863.938V83ZM873.065 83H874.507V78.618H878.035V77.26H874.507V74.558H879.449V73.2H873.065V83ZM882.192 83H883.634V78.618H887.162V77.26H883.634V74.558H888.576V73.2H882.192V83ZM794.283 109.168C795.823 109.168 796.747 108.216 797.223 107.054L795.921 106.55C795.571 107.292 795.095 107.81 794.283 107.81C792.701 107.81 792.001 105.934 792.001 104.1C792.001 102.406 792.589 100.39 794.283 100.39C795.081 100.39 795.501 100.88 795.865 101.566L797.153 100.936C796.747 99.984 795.879 99.032 794.283 99.032C791.595 99.032 790.503 101.636 790.503 104.1C790.503 106.592 791.539 109.168 794.283 109.168ZM800.05 109H801.324V103.26C801.324 103.064 801.31 102.658 801.296 102.42C801.38 102.714 801.464 102.98 801.534 103.26L803.074 109H803.242L804.782 103.26C804.866 102.98 804.936 102.714 805.02 102.42C804.992 102.658 804.992 103.064 804.992 103.26V109H806.266V99.2H804.866L803.396 104.814C803.284 105.192 803.214 105.528 803.172 105.808C803.13 105.528 803.046 105.192 802.948 104.814L801.506 99.2H800.05V109ZM814.287 99.2L812.299 103.666L810.325 99.2H808.729L811.585 105.15V109H813.013V105.15L815.855 99.2H814.287ZM823.484 109H825.136L821.734 102.658L824.506 99.2H822.84L819.746 103.148V99.2H818.304V109H819.746V105.15L820.768 103.876L823.484 109ZM830.539 104.254C831.127 104.254 831.575 103.792 831.575 103.232C831.575 102.686 831.127 102.21 830.539 102.21C829.951 102.21 829.503 102.686 829.503 103.232C829.503 103.792 829.951 104.254 830.539 104.254ZM830.539 109.182C831.127 109.182 831.575 108.72 831.575 108.16C831.575 107.614 831.127 107.138 830.539 107.138C829.951 107.138 829.503 107.614 829.503 108.16C829.503 108.72 829.951 109.182 830.539 109.182ZM848.792 109.168C851.55 109.168 852.278 106.34 852.278 104.1C852.278 101.678 851.48 99.032 848.792 99.032C846.02 99.032 845.306 101.86 845.306 104.1C845.306 106.522 846.104 109.168 848.792 109.168ZM848.792 107.824C847.196 107.824 846.762 105.948 846.762 104.1C846.762 102.392 847.154 100.362 848.792 100.362C850.388 100.362 850.808 102.266 850.808 104.1C850.808 105.822 850.444 107.824 848.792 107.824ZM848.792 105.052C849.338 105.052 849.744 104.618 849.744 104.1C849.744 103.596 849.338 103.148 848.792 103.148C848.246 103.148 847.84 103.596 847.84 104.1C847.84 104.618 848.246 105.052 848.792 105.052ZM867.046 109.168C869.804 109.168 870.532 106.34 870.532 104.1C870.532 101.678 869.734 99.032 867.046 99.032C864.274 99.032 863.56 101.86 863.56 104.1C863.56 106.522 864.358 109.168 867.046 109.168ZM867.046 107.824C865.45 107.824 865.016 105.948 865.016 104.1C865.016 102.392 865.408 100.362 867.046 100.362C868.642 100.362 869.062 102.266 869.062 104.1C869.062 105.822 868.698 107.824 867.046 107.824ZM867.046 105.052C867.592 105.052 867.998 104.618 867.998 104.1C867.998 103.596 867.592 103.148 867.046 103.148C866.5 103.148 866.094 103.596 866.094 104.1C866.094 104.618 866.5 105.052 867.046 105.052ZM885.3 109.168C888.058 109.168 888.786 106.34 888.786 104.1C888.786 101.678 887.988 99.032 885.3 99.032C882.528 99.032 881.814 101.86 881.814 104.1C881.814 106.522 882.612 109.168 885.3 109.168ZM885.3 107.824C883.704 107.824 883.27 105.948 883.27 104.1C883.27 102.392 883.662 100.362 885.3 100.362C886.896 100.362 887.316 102.266 887.316 104.1C887.316 105.822 886.952 107.824 885.3 107.824ZM885.3 105.052C885.846 105.052 886.252 104.618 886.252 104.1C886.252 103.596 885.846 103.148 885.3 103.148C884.754 103.148 884.348 103.596 884.348 104.1C884.348 104.618 884.754 105.052 885.3 105.052ZM903.554 109.168C906.312 109.168 907.04 106.34 907.04 104.1C907.04 101.678 906.242 99.032 903.554 99.032C900.782 99.032 900.068 101.86 900.068 104.1C900.068 106.522 900.866 109.168 903.554 109.168ZM903.554 107.824C901.958 107.824 901.524 105.948 901.524 104.1C901.524 102.392 901.916 100.362 903.554 100.362C905.15 100.362 905.57 102.266 905.57 104.1C905.57 105.822 905.206 107.824 903.554 107.824ZM903.554 105.052C904.1 105.052 904.506 104.618 904.506 104.1C904.506 103.596 904.1 103.148 903.554 103.148C903.008 103.148 902.602 103.596 902.602 104.1C902.602 104.618 903.008 105.052 903.554 105.052Z" fill="#222222"/>
</svg>
