<svg width="19" height="18" viewBox="0 0 19 18" xmlns="http://www.w3.org/2000/svg">
<path fill-rule="evenodd" clip-rule="evenodd" d="M9.65658 1.62537C12.0616 1.62537 12.349 1.63293 13.2944 1.67829C14.1717 1.71609 14.6482 1.86728 14.9658 1.98824C15.7524 2.29063 16.3725 2.91054 16.6751 3.69677C16.7961 4.01428 16.9473 4.49055 16.9852 5.36749C17.0305 6.32003 17.0381 6.59975 17.0381 9.00378C17.0381 11.4078 17.0305 11.6951 16.9852 12.6401C16.9473 13.517 16.7961 13.9933 16.6751 14.3108C16.3725 15.097 15.7524 15.7169 14.9658 16.0193C14.6482 16.1403 14.1717 16.2915 13.2944 16.3293C12.3415 16.3746 12.0616 16.3822 9.65658 16.3822C7.25154 16.3822 6.96414 16.3746 6.01877 16.3293C5.14145 16.2915 4.66498 16.1403 4.34734 16.0193C3.56078 15.7169 2.94061 15.097 2.63809 14.3108C2.51708 13.9933 2.36582 13.517 2.32801 12.6401C2.28263 11.6875 2.27507 11.4078 2.27507 9.00378C2.27507 6.59975 2.28263 6.31247 2.32801 5.36749C2.36582 4.49055 2.51708 4.01428 2.63809 3.69677C2.94061 2.91054 3.56078 2.29063 4.34734 1.98824C4.66498 1.86728 5.14145 1.71609 6.01877 1.67829C6.96414 1.63293 7.25154 1.62537 9.65658 1.62537ZM9.65658 0C7.20616 0 6.90364 0.00755985 5.94314 0.0529189C4.98263 0.098278 4.32465 0.249475 3.75742 0.47627C2.54734 0.944981 1.5944 1.89752 1.12549 3.1071C0.90616 3.68165 0.747337 4.33179 0.709522 5.29189C0.65658 6.25199 0.649017 6.55439 0.649017 9.00378C0.649017 11.4532 0.65658 11.7556 0.701959 12.7157C0.747337 13.6758 0.898597 14.3259 1.11792 14.9005C1.58683 16.11 2.53977 17.0626 3.74986 17.5313C4.32465 17.7505 4.97507 17.9093 5.93557 17.9471C6.89608 17.9924 7.20616 18 9.64902 18C12.0919 18 12.402 17.9924 13.3625 17.9471C14.323 17.9017 14.9734 17.7505 15.5482 17.5313C16.7583 17.0626 17.7112 16.11 18.1801 14.9005C18.3994 14.3259 18.5583 13.6758 18.5961 12.7157C18.6415 11.7556 18.649 11.4456 18.649 9.00378C18.649 6.56195 18.649 6.25199 18.6036 5.29189C18.5583 4.33179 18.407 3.68165 18.1877 3.1071C17.7188 1.89752 16.7658 0.944981 15.5557 0.47627C14.981 0.257035 14.3305 0.098278 13.37 0.0604788C12.4095 0.00755985 12.0994 0 9.65658 0ZM9.65659 4.37716C7.10029 4.37716 5.03558 6.44856 5.03558 8.99623C5.03558 11.5439 7.10785 13.6153 9.65659 13.6153C12.2053 13.6153 14.2776 11.5439 14.2776 8.99623C14.2776 6.44856 12.2053 4.37716 9.65659 4.37716ZM9.65659 12.005C8.00029 12.005 6.65407 10.6594 6.65407 9.00379C6.65407 7.34818 8.00029 6.00253 9.65659 6.00253C11.3129 6.00253 12.6591 7.34818 12.6591 9.00379C12.6591 10.6594 11.3129 12.005 9.65659 12.005ZM14.4591 5.27768C15.0566 5.27768 15.5406 4.79365 15.5406 4.19617C15.5406 3.59869 15.0566 3.11466 14.4591 3.11466C13.8616 3.11466 13.3776 3.59869 13.3776 4.19617C13.3776 4.79365 13.8616 5.27768 14.4591 5.27768Z"/>
</svg>
