<?xml version="1.0" encoding="utf-8"?>
<!-- Generator: Adobe Illustrator 24.2.1, SVG Export Plug-In . SVG Version: 6.00 Build 0)  -->
<svg version="1.1" id="Layer_1" xmlns="http://www.w3.org/2000/svg" xmlns:xlink="http://www.w3.org/1999/xlink" x="0px" y="0px"
	 viewBox="0 0 18 17.9" style="enable-background:new 0 0 18 17.9;" xml:space="preserve">
<style type="text/css">
	.st0{fill-rule:evenodd;clip-rule:evenodd;}
</style>
<path class="st0" d="M12.7,15.3h2.7l0-4.7c0-2.3-0.5-4.1-3.2-4.1c-1,0-2,0.5-2.5,1.4h0V6.7H7v8.6h2.7V11c0-1.1,0.2-2.2,1.6-2.2
	c1.4,0,1.4,1.3,1.4,2.3V15.3z M2.4,4c0,0.9,0.7,1.6,1.6,1.6S5.6,4.9,5.6,4S4.9,2.5,4,2.5S2.4,3.2,2.4,4z M2.7,6.7v8.6h2.7V6.7H2.7z
	 M1.3,0h15.3C17.4,0,18,0.6,18,1.3v15.3c0,0.7-0.6,1.3-1.3,1.3H1.3c-0.7,0-1.3-0.6-1.3-1.3V1.3C0,0.6,0.6,0,1.3,0z"/>
</svg>
