<svg width="1118" height="164" viewBox="0 0 1118 164" fill="none" xmlns="http://www.w3.org/2000/svg">
<path d="M19.5097 63H25.5437V61.614H20.9517V53.2H19.5097V63ZM34.0966 63H35.6226L32.3886 53.2H31.0866L27.8806 63H29.4206L30.1066 60.718H33.3966L34.0966 63ZM30.5126 59.416L31.4926 56.168C31.5626 55.944 31.6886 55.454 31.7446 55.146C31.8006 55.454 31.9266 55.944 31.9966 56.168L32.9906 59.416H30.5126ZM44.1056 56.07C44.1056 54.614 43.3636 53.2 40.9556 53.2H37.7636V63H39.2056V58.982H40.5216L42.4816 63H44.0776L42.0476 58.842C43.4756 58.436 44.1056 57.246 44.1056 56.07ZM39.2056 54.53H40.9836C42.3136 54.53 42.6636 55.398 42.6636 56.098C42.6636 56.868 42.2576 57.638 40.9836 57.638H39.2056V54.53ZM50.1945 63.168C51.9725 63.168 53.3445 61.838 53.3445 59.388V58.128H50.1245V59.458H51.8605V59.794C51.8605 60.984 51.2725 61.81 50.1945 61.81C48.6685 61.81 47.9825 60.004 47.9825 58.1C47.9825 56.406 48.5705 54.376 50.1945 54.376C50.9925 54.376 51.4405 54.95 51.7905 55.594L53.0645 54.866C52.5465 53.928 51.8045 53.032 50.1945 53.032C47.6885 53.032 46.4985 55.566 46.4985 58.1C46.4985 60.662 47.6185 63.168 50.1945 63.168ZM56.0175 63H62.3315V61.628H57.4595V58.618H60.4975V57.26H57.4595V54.558H62.0235V53.2H56.0175V63ZM78.1214 61.614V53.172L74.5374 54.334V55.706L76.6794 55.048V61.614H74.2434V63H80.5154V61.614H78.1214ZM41.6136 77.614V69.172L38.0296 70.334V71.706L40.1716 71.048V77.614H37.7356V79H44.0076V77.614H41.6136ZM49.9985 79.168C52.7565 79.168 53.4845 76.34 53.4845 74.1C53.4845 71.678 52.6865 69.032 49.9985 69.032C47.2265 69.032 46.5125 71.86 46.5125 74.1C46.5125 76.522 47.3105 79.168 49.9985 79.168ZM49.9985 77.824C48.4025 77.824 47.9685 75.948 47.9685 74.1C47.9685 72.392 48.3605 70.362 49.9985 70.362C51.5945 70.362 52.0145 72.266 52.0145 74.1C52.0145 75.822 51.6505 77.824 49.9985 77.824ZM49.9985 75.052C50.5445 75.052 50.9505 74.618 50.9505 74.1C50.9505 73.596 50.5445 73.148 49.9985 73.148C49.4525 73.148 49.0465 73.596 49.0465 74.1C49.0465 74.618 49.4525 75.052 49.9985 75.052ZM59.1255 79.168C61.8835 79.168 62.6115 76.34 62.6115 74.1C62.6115 71.678 61.8135 69.032 59.1255 69.032C56.3535 69.032 55.6395 71.86 55.6395 74.1C55.6395 76.522 56.4375 79.168 59.1255 79.168ZM59.1255 77.824C57.5295 77.824 57.0955 75.948 57.0955 74.1C57.0955 72.392 57.4875 70.362 59.1255 70.362C60.7215 70.362 61.1415 72.266 61.1415 74.1C61.1415 75.822 60.7775 77.824 59.1255 77.824ZM59.1255 75.052C59.6715 75.052 60.0775 74.618 60.0775 74.1C60.0775 73.596 59.6715 73.148 59.1255 73.148C58.5795 73.148 58.1735 73.596 58.1735 74.1C58.1735 74.618 58.5795 75.052 59.1255 75.052Z" fill="#222222"/>
<rect y="94" width="100" height="30" fill="#FF5F14"/>
<path d="M3.328 17.336V7.608H1.408V19H8.928V17.336H3.328ZM13.208 10.632C11.016 10.632 9.896 11.848 9.816 13.384H11.608C11.656 12.52 12.2 11.96 13.208 11.96C14.136 11.96 14.792 12.44 14.792 13.64V13.96C14.216 13.992 13.256 14.088 12.6 14.2C10.264 14.568 9.48 15.432 9.48 16.76C9.48 18.152 10.536 19.176 12.232 19.176C13.464 19.176 14.376 18.728 14.968 17.864H15C15 18.248 15.032 18.648 15.112 19H16.76C16.632 18.488 16.552 17.816 16.552 16.856V13.816C16.552 11.688 15.352 10.632 13.208 10.632ZM14.792 15.544C14.792 16.408 14.664 16.84 14.232 17.288C13.864 17.656 13.32 17.832 12.76 17.832C11.832 17.832 11.32 17.352 11.32 16.632C11.32 15.896 11.752 15.544 12.92 15.352C13.464 15.256 14.248 15.176 14.792 15.144V15.544ZM22.591 10.76C21.583 10.76 20.815 11.192 20.271 12.072H20.239V10.872H18.543V19H20.367V15.016C20.367 13.32 21.167 12.392 22.623 12.392C22.831 12.392 23.039 12.408 23.263 12.456V10.84C23.055 10.792 22.799 10.76 22.591 10.76ZM26.9223 10.648C24.8423 10.648 23.5143 12.264 23.5143 14.776C23.5143 17.304 24.8263 18.904 26.8903 18.904C27.8983 18.904 28.6503 18.488 29.2423 17.624H29.2743V18.424C29.2743 20.12 28.6023 20.744 27.3863 20.744C26.3623 20.744 25.7383 20.296 25.6903 19.512H23.8663C23.9463 21.112 25.1783 22.088 27.3543 22.088C29.6423 22.088 31.0503 20.92 31.0503 18.488V10.872H29.3223V12.008H29.2903C28.6823 11.08 27.9303 10.648 26.9223 10.648ZM27.3383 12.168C28.5703 12.168 29.3383 13.192 29.3383 14.776C29.3383 16.376 28.5703 17.4 27.3383 17.4C26.1703 17.4 25.4183 16.376 25.4183 14.776C25.4183 13.176 26.1703 12.168 27.3383 12.168ZM36.5128 17.896C35.3768 17.896 34.4488 17.144 34.3848 15.304H40.3528C40.3528 14.52 40.2888 13.912 40.1288 13.4C39.6808 11.704 38.3368 10.632 36.4808 10.632C34.0168 10.632 32.5768 12.44 32.5768 14.84C32.5768 17.464 34.0328 19.24 36.5128 19.24C38.6408 19.24 39.9528 18.008 40.2568 16.552H38.3848C38.2248 17.336 37.5528 17.896 36.5128 17.896ZM36.4808 11.976C37.5688 11.976 38.4008 12.68 38.5288 14.104H34.4168C34.5768 12.696 35.3768 11.976 36.4808 11.976Z" fill="black"/>
<path d="M269.936 19V7.608H266.848L265.008 13.032C264.528 14.44 264.08 15.896 263.68 17.32H263.648C263.264 15.896 262.816 14.44 262.336 13.032L260.496 7.608H257.408V19H259.264V13.272C259.264 11.832 259.248 10.392 259.2 8.952H259.232C259.664 10.392 260.128 11.816 260.608 13.24L262.576 19H264.768L266.736 13.24C267.216 11.816 267.68 10.392 268.112 8.952H268.144C268.096 10.392 268.08 11.832 268.08 13.272V19H269.936ZM275.638 17.896C274.502 17.896 273.574 17.144 273.51 15.304H279.478C279.478 14.52 279.414 13.912 279.254 13.4C278.806 11.704 277.462 10.632 275.606 10.632C273.142 10.632 271.702 12.44 271.702 14.84C271.702 17.464 273.158 19.24 275.638 19.24C277.766 19.24 279.078 18.008 279.382 16.552H277.51C277.35 17.336 276.678 17.896 275.638 17.896ZM275.606 11.976C276.694 11.976 277.526 12.68 277.654 14.104H273.542C273.702 12.696 274.502 11.976 275.606 11.976ZM288.208 19V7.608H286.384V11.928H286.352C285.888 11.128 284.976 10.664 283.968 10.664C281.904 10.664 280.592 12.344 280.592 14.936C280.592 17.528 281.92 19.192 283.984 19.192C285.008 19.192 285.92 18.712 286.4 17.88H286.432V19H288.208ZM284.512 12.088C285.696 12.088 286.48 13.16 286.48 14.936C286.48 16.696 285.696 17.784 284.512 17.784C283.28 17.784 282.496 16.664 282.496 14.936C282.496 13.208 283.28 12.088 284.512 12.088ZM292.117 9.352V7.608H290.293V9.352H292.117ZM292.117 19V10.872H290.293V19H292.117ZM297.079 19.192C298.151 19.192 298.999 18.68 299.511 17.944H299.543V19H301.271V10.872H299.447V15.384C299.447 16.936 298.631 17.72 297.591 17.72C296.567 17.72 295.943 17.144 295.943 15.688V10.872H294.119V15.848C294.119 18.072 295.239 19.192 297.079 19.192ZM312.396 10.68C311.164 10.68 310.38 11.224 309.788 12.152C309.372 11.192 308.508 10.68 307.388 10.68C306.428 10.68 305.708 11.064 305.132 11.848H305.1V10.872H303.356V19H305.18V14.648C305.18 13.08 305.804 12.152 306.891 12.152C307.836 12.152 308.348 12.824 308.348 13.976V19H310.172V14.616C310.172 13.064 310.812 12.152 311.884 12.152C312.796 12.152 313.356 12.728 313.356 14.168V19H315.18V13.992C315.18 11.8 314.124 10.68 312.396 10.68Z" fill="black"/>
<path d="M484.72 7.368C482.304 7.368 480.72 8.696 480.72 10.632C480.72 13.016 482.512 13.544 484.672 14.088C486.416 14.52 487.248 14.776 487.248 15.928C487.248 17 486.416 17.656 484.992 17.656C483.408 17.656 482.512 16.872 482.512 15.24H480.544C480.544 17.848 482.224 19.24 484.976 19.24C487.536 19.24 489.232 17.864 489.232 15.752C489.232 13.352 487.44 12.792 485.296 12.264C483.472 11.816 482.688 11.496 482.688 10.456C482.688 9.528 483.456 8.936 484.688 8.936C486.16 8.936 486.976 9.672 486.976 11.112H488.912C488.912 8.664 487.488 7.368 484.72 7.368ZM499.88 10.68C498.648 10.68 497.864 11.224 497.272 12.152C496.856 11.192 495.992 10.68 494.872 10.68C493.912 10.68 493.192 11.064 492.616 11.848H492.584V10.872H490.84V19H492.664V14.648C492.664 13.08 493.288 12.152 494.376 12.152C495.32 12.152 495.832 12.824 495.832 13.976V19H497.656V14.616C497.656 13.064 498.296 12.152 499.368 12.152C500.28 12.152 500.84 12.728 500.84 14.168V19H502.664V13.992C502.664 11.8 501.608 10.68 499.88 10.68ZM507.708 10.632C505.516 10.632 504.396 11.848 504.316 13.384H506.108C506.156 12.52 506.7 11.96 507.708 11.96C508.636 11.96 509.292 12.44 509.292 13.64V13.96C508.716 13.992 507.756 14.088 507.1 14.2C504.764 14.568 503.98 15.432 503.98 16.76C503.98 18.152 505.036 19.176 506.732 19.176C507.964 19.176 508.876 18.728 509.468 17.864H509.5C509.5 18.248 509.532 18.648 509.612 19H511.26C511.132 18.488 511.052 17.816 511.052 16.856V13.816C511.052 11.688 509.852 10.632 507.708 10.632ZM509.292 15.544C509.292 16.408 509.164 16.84 508.732 17.288C508.364 17.656 507.82 17.832 507.26 17.832C506.332 17.832 505.82 17.352 505.82 16.632C505.82 15.896 506.252 15.544 507.42 15.352C507.964 15.256 508.748 15.176 509.292 15.144V15.544ZM514.867 19V7.608H513.043V19H514.867ZM518.773 19V7.608H516.949V19H518.773Z" fill="black"/>
<path d="M127.51 63H133.544V61.614H128.952V53.2H127.51V63ZM142.097 63H143.623L140.389 53.2H139.087L135.881 63H137.421L138.107 60.718H141.397L142.097 63ZM138.513 59.416L139.493 56.168C139.563 55.944 139.689 55.454 139.745 55.146C139.801 55.454 139.927 55.944 139.997 56.168L140.991 59.416H138.513ZM152.106 56.07C152.106 54.614 151.364 53.2 148.956 53.2H145.764V63H147.206V58.982H148.522L150.482 63H152.078L150.048 58.842C151.476 58.436 152.106 57.246 152.106 56.07ZM147.206 54.53H148.984C150.314 54.53 150.664 55.398 150.664 56.098C150.664 56.868 150.258 57.638 148.984 57.638H147.206V54.53ZM158.195 63.168C159.973 63.168 161.345 61.838 161.345 59.388V58.128H158.125V59.458H159.861V59.794C159.861 60.984 159.273 61.81 158.195 61.81C156.669 61.81 155.983 60.004 155.983 58.1C155.983 56.406 156.571 54.376 158.195 54.376C158.993 54.376 159.441 54.95 159.791 55.594L161.065 54.866C160.547 53.928 159.805 53.032 158.195 53.032C155.689 53.032 154.499 55.566 154.499 58.1C154.499 60.662 155.619 63.168 158.195 63.168ZM164.017 63H170.331V61.628H165.459V58.618H168.497V57.26H165.459V54.558H170.023V53.2H164.017V63ZM182.215 63H188.543V61.614H183.853C184.007 60.662 184.889 59.948 185.897 59.304C187.269 58.45 188.459 57.652 188.459 55.86C188.459 54.208 187.339 53.032 185.463 53.032C183.923 53.032 182.705 53.9 182.285 55.132L183.573 55.706C183.839 54.894 184.469 54.362 185.477 54.362C186.415 54.362 187.003 54.978 187.003 55.874C187.003 56.896 186.163 57.484 185.267 58.086C183.685 59.066 182.215 60.284 182.215 63ZM150.285 69.2V70.53H154.933C152.903 73.218 152.175 75.864 152.161 79H153.603C153.603 76.76 154.191 73.078 156.585 70.348V69.2H150.285ZM162.282 79.168C164.396 79.168 165.796 77.656 165.796 75.766C165.796 73.96 164.69 72.574 162.828 72.574C162.142 72.574 161.568 72.784 161.12 73.148L161.456 70.544H165.236V69.2H160.196L159.664 74.198L160.952 74.744C161.33 74.31 161.876 73.932 162.688 73.932C163.724 73.932 164.34 74.716 164.34 75.808C164.34 76.97 163.486 77.824 162.268 77.824C161.246 77.824 160.644 77.418 160.126 76.97L159.328 78.076C159.832 78.594 160.84 79.168 162.282 79.168Z" fill="#222222"/>
<rect x="120" y="94" width="75" height="30" fill="#FF5F14"/>
<line x1="225.5" y1="2.18557e-08" x2="225.5" y2="164" stroke="#6E6259"/>
<line x1="450.5" y1="2.18557e-08" x2="450.5" y2="164" stroke="#6E6259"/>
<path d="M257.446 63H258.72V57.26C258.72 57.064 258.706 56.658 258.692 56.42C258.776 56.714 258.86 56.98 258.93 57.26L260.47 63H260.638L262.178 57.26C262.262 56.98 262.332 56.714 262.416 56.42C262.388 56.658 262.388 57.064 262.388 57.26V63H263.662V53.2H262.262L260.792 58.814C260.68 59.192 260.61 59.528 260.568 59.808C260.526 59.528 260.442 59.192 260.344 58.814L258.902 53.2H257.446V63ZM266.573 63H272.887V61.628H268.015V58.618H271.053V57.26H268.015V54.558H272.579V53.2H266.573V63ZM275.7 63H278.024C281.328 63 282.336 60.34 282.336 58.1C282.336 55.664 281.202 53.2 278.08 53.2H275.7V63ZM277.128 61.656V54.53H278.29C280.11 54.53 280.852 56.322 280.852 58.1C280.852 59.766 280.194 61.656 278.136 61.656H277.128ZM290.805 54.488V53.2H285.079V54.488H287.221V61.712H285.079V63H290.805V61.712H288.649V54.488H290.805ZM297.062 63.168C298.896 63.168 300.296 62.118 300.296 59.276V53.2H298.868V59.276C298.868 61.278 298.056 61.81 297.062 61.81C296.068 61.81 295.27 61.278 295.27 59.276V53.2H293.828V59.276C293.828 62.132 295.242 63.168 297.062 63.168ZM303.081 63H304.355V57.26C304.355 57.064 304.341 56.658 304.327 56.42C304.411 56.714 304.495 56.98 304.565 57.26L306.105 63H306.273L307.813 57.26C307.897 56.98 307.967 56.714 308.051 56.42C308.023 56.658 308.023 57.064 308.023 57.26V63H309.297V53.2H307.897L306.427 58.814C306.315 59.192 306.245 59.528 306.203 59.808C306.161 59.528 306.077 59.192 305.979 58.814L304.537 53.2H303.081V63ZM325.185 61.614V53.172L321.601 54.334V55.706L323.743 55.048V61.614H321.307V63H327.579V61.614H325.185ZM287.977 79.168C289.867 79.168 291.295 77.81 291.295 75.948C291.295 74.254 290.021 72.854 288.243 72.854C287.417 72.854 286.759 73.12 286.367 73.54C286.787 71.944 288.327 70.698 289.937 70.306V69.032C286.507 69.704 284.575 72.406 284.575 75.374C284.575 77.516 285.737 79.168 287.977 79.168ZM287.949 77.824C286.857 77.824 286.017 77.096 286.017 76.018C286.017 74.926 286.829 74.17 287.949 74.17C289.111 74.17 289.881 74.912 289.881 76.018C289.881 77.096 289.083 77.824 287.949 77.824ZM297.062 79.168C299.82 79.168 300.548 76.34 300.548 74.1C300.548 71.678 299.75 69.032 297.062 69.032C294.29 69.032 293.576 71.86 293.576 74.1C293.576 76.522 294.374 79.168 297.062 79.168ZM297.062 77.824C295.466 77.824 295.032 75.948 295.032 74.1C295.032 72.392 295.424 70.362 297.062 70.362C298.658 70.362 299.078 72.266 299.078 74.1C299.078 75.822 298.714 77.824 297.062 77.824ZM297.062 75.052C297.608 75.052 298.014 74.618 298.014 74.1C298.014 73.596 297.608 73.148 297.062 73.148C296.516 73.148 296.11 73.596 296.11 74.1C296.11 74.618 296.516 75.052 297.062 75.052Z" fill="#222222"/>
<rect x="262.5" y="94" width="60" height="30" fill="#FF5F14"/>
<path d="M348.446 63H349.72V57.26C349.72 57.064 349.706 56.658 349.692 56.42C349.776 56.714 349.86 56.98 349.93 57.26L351.47 63H351.638L353.178 57.26C353.262 56.98 353.332 56.714 353.416 56.42C353.388 56.658 353.388 57.064 353.388 57.26V63H354.662V53.2H353.262L351.792 58.814C351.68 59.192 351.61 59.528 351.568 59.808C351.526 59.528 351.442 59.192 351.344 58.814L349.902 53.2H348.446V63ZM357.573 63H363.887V61.628H359.015V58.618H362.053V57.26H359.015V54.558H363.579V53.2H357.573V63ZM366.7 63H369.024C372.328 63 373.336 60.34 373.336 58.1C373.336 55.664 372.202 53.2 369.08 53.2H366.7V63ZM368.128 61.656V54.53H369.29C371.11 54.53 371.852 56.322 371.852 58.1C371.852 59.766 371.194 61.656 369.136 61.656H368.128ZM381.805 54.488V53.2H376.079V54.488H378.221V61.712H376.079V63H381.805V61.712H379.649V54.488H381.805ZM388.062 63.168C389.896 63.168 391.296 62.118 391.296 59.276V53.2H389.868V59.276C389.868 61.278 389.056 61.81 388.062 61.81C387.068 61.81 386.27 61.278 386.27 59.276V53.2H384.828V59.276C384.828 62.132 386.242 63.168 388.062 63.168ZM394.081 63H395.355V57.26C395.355 57.064 395.341 56.658 395.327 56.42C395.411 56.714 395.495 56.98 395.565 57.26L397.105 63H397.273L398.813 57.26C398.897 56.98 398.967 56.714 399.051 56.42C399.023 56.658 399.023 57.064 399.023 57.26V63H400.297V53.2H398.897L397.427 58.814C397.315 59.192 397.245 59.528 397.203 59.808C397.161 59.528 397.077 59.192 396.979 58.814L395.537 53.2H394.081V63ZM412.279 63H418.607V61.614H413.917C414.071 60.662 414.953 59.948 415.961 59.304C417.333 58.45 418.523 57.652 418.523 55.86C418.523 54.208 417.403 53.032 415.527 53.032C413.987 53.032 412.769 53.9 412.349 55.132L413.637 55.706C413.903 54.894 414.533 54.362 415.541 54.362C416.479 54.362 417.067 54.978 417.067 55.874C417.067 56.896 416.227 57.484 415.331 58.086C413.749 59.066 412.279 60.284 412.279 63ZM378.655 79.168C380.769 79.168 382.169 77.656 382.169 75.766C382.169 73.96 381.063 72.574 379.201 72.574C378.515 72.574 377.941 72.784 377.493 73.148L377.829 70.544H381.609V69.2H376.569L376.037 74.198L377.325 74.744C377.703 74.31 378.249 73.932 379.061 73.932C380.097 73.932 380.713 74.716 380.713 75.808C380.713 76.97 379.859 77.824 378.641 77.824C377.619 77.824 377.017 77.418 376.499 76.97L375.701 78.076C376.205 78.594 377.213 79.168 378.655 79.168ZM388.062 79.168C390.82 79.168 391.548 76.34 391.548 74.1C391.548 71.678 390.75 69.032 388.062 69.032C385.29 69.032 384.576 71.86 384.576 74.1C384.576 76.522 385.374 79.168 388.062 79.168ZM388.062 77.824C386.466 77.824 386.032 75.948 386.032 74.1C386.032 72.392 386.424 70.362 388.062 70.362C389.658 70.362 390.078 72.266 390.078 74.1C390.078 75.822 389.714 77.824 388.062 77.824ZM388.062 75.052C388.608 75.052 389.014 74.618 389.014 74.1C389.014 73.596 388.608 73.148 388.062 73.148C387.516 73.148 387.11 73.596 387.11 74.1C387.11 74.618 387.516 75.052 388.062 75.052Z" fill="#222222"/>
<rect x="358" y="94" width="50" height="30" fill="#FF5F14"/>
<path d="M484.716 63.168C486.424 63.168 487.81 62.132 487.81 60.312C487.81 58.534 486.298 57.722 485.094 57.162C484.1 56.714 483.176 56.336 483.176 55.524C483.176 54.81 483.736 54.362 484.534 54.362C485.29 54.362 485.836 54.824 486.074 55.37L487.376 54.936C487.068 53.844 486.018 53.032 484.604 53.032C482.826 53.032 481.72 54.166 481.72 55.524C481.72 57.162 483.134 57.862 484.366 58.408C485.416 58.87 486.354 59.444 486.354 60.354C486.354 61.32 485.738 61.824 484.814 61.824C483.89 61.824 483.12 61.222 482.728 60.34L481.398 60.83C481.874 62.188 483.148 63.168 484.716 63.168ZM490.637 63H491.911V57.26C491.911 57.064 491.897 56.658 491.883 56.42C491.967 56.714 492.051 56.98 492.121 57.26L493.661 63H493.829L495.369 57.26C495.453 56.98 495.523 56.714 495.607 56.42C495.579 56.658 495.579 57.064 495.579 57.26V63H496.853V53.2H495.453L493.983 58.814C493.871 59.192 493.801 59.528 493.759 59.808C493.717 59.528 493.633 59.192 493.535 58.814L492.093 53.2H490.637V63ZM505.224 63H506.75L503.516 53.2H502.214L499.008 63H500.548L501.234 60.718H504.524L505.224 63ZM501.64 59.416L502.62 56.168C502.69 55.944 502.816 55.454 502.872 55.146C502.928 55.454 503.054 55.944 503.124 56.168L504.118 59.416H501.64ZM508.891 63H514.925V61.614H510.333V53.2H508.891V63ZM518.017 63H524.051V61.614H519.459V53.2H518.017V63ZM540.121 61.614V53.172L536.537 54.334V55.706L538.679 55.048V61.614H536.243V63H542.515V61.614H540.121ZM508.401 79H509.815V76.69H511.117V75.402H509.815V69.2H508.527L503.795 75.836V76.69H508.401V79ZM508.401 75.402H505.657L508.401 71.37V75.402ZM516.562 79.168C519.32 79.168 520.048 76.34 520.048 74.1C520.048 71.678 519.25 69.032 516.562 69.032C513.79 69.032 513.076 71.86 513.076 74.1C513.076 76.522 513.874 79.168 516.562 79.168ZM516.562 77.824C514.966 77.824 514.532 75.948 514.532 74.1C514.532 72.392 514.924 70.362 516.562 70.362C518.158 70.362 518.578 72.266 518.578 74.1C518.578 75.822 518.214 77.824 516.562 77.824ZM516.562 75.052C517.108 75.052 517.514 74.618 517.514 74.1C517.514 73.596 517.108 73.148 516.562 73.148C516.016 73.148 515.61 73.596 515.61 74.1C515.61 74.618 516.016 75.052 516.562 75.052Z" fill="#222222"/>
<rect x="492" y="94" width="40" height="30" fill="#FF5F14"/>
<path d="M566.716 63.168C568.424 63.168 569.81 62.132 569.81 60.312C569.81 58.534 568.298 57.722 567.094 57.162C566.1 56.714 565.176 56.336 565.176 55.524C565.176 54.81 565.736 54.362 566.534 54.362C567.29 54.362 567.836 54.824 568.074 55.37L569.376 54.936C569.068 53.844 568.018 53.032 566.604 53.032C564.826 53.032 563.72 54.166 563.72 55.524C563.72 57.162 565.134 57.862 566.366 58.408C567.416 58.87 568.354 59.444 568.354 60.354C568.354 61.32 567.738 61.824 566.814 61.824C565.89 61.824 565.12 61.222 564.728 60.34L563.398 60.83C563.874 62.188 565.148 63.168 566.716 63.168ZM572.637 63H573.911V57.26C573.911 57.064 573.897 56.658 573.883 56.42C573.967 56.714 574.051 56.98 574.121 57.26L575.661 63H575.829L577.369 57.26C577.453 56.98 577.523 56.714 577.607 56.42C577.579 56.658 577.579 57.064 577.579 57.26V63H578.853V53.2H577.453L575.983 58.814C575.871 59.192 575.801 59.528 575.759 59.808C575.717 59.528 575.633 59.192 575.535 58.814L574.093 53.2H572.637V63ZM587.224 63H588.75L585.516 53.2H584.214L581.008 63H582.548L583.234 60.718H586.524L587.224 63ZM583.64 59.416L584.62 56.168C584.69 55.944 584.816 55.454 584.872 55.146C584.928 55.454 585.054 55.944 585.124 56.168L586.118 59.416H583.64ZM590.891 63H596.925V61.614H592.333V53.2H590.891V63ZM600.017 63H606.051V61.614H601.459V53.2H600.017V63ZM618.215 63H624.543V61.614H619.853C620.007 60.662 620.889 59.948 621.897 59.304C623.269 58.45 624.459 57.652 624.459 55.86C624.459 54.208 623.339 53.032 621.463 53.032C619.923 53.032 618.705 53.9 618.285 55.132L619.573 55.706C619.839 54.894 620.469 54.362 621.477 54.362C622.415 54.362 623.003 54.978 623.003 55.874C623.003 56.896 622.163 57.484 621.267 58.086C619.685 59.066 618.215 60.284 618.215 63ZM589.421 79.168C591.283 79.168 592.697 78.006 592.697 76.214C592.697 75.01 592.039 74.128 591.115 73.764C591.857 73.33 592.333 72.546 592.333 71.636C592.333 70.124 591.115 69.032 589.435 69.032C587.923 69.032 586.929 69.956 586.467 71.076L587.783 71.58C588.049 70.992 588.553 70.376 589.435 70.376C590.261 70.376 590.877 70.936 590.877 71.79C590.877 72.672 590.261 73.232 589.323 73.232H588.581V74.576H589.393C590.625 74.576 591.241 75.262 591.241 76.228C591.241 77.278 590.443 77.81 589.449 77.81C588.567 77.81 587.923 77.376 587.489 76.34L586.173 76.872C586.677 78.216 587.699 79.168 589.421 79.168ZM598.282 79.168C600.396 79.168 601.796 77.656 601.796 75.766C601.796 73.96 600.69 72.574 598.828 72.574C598.142 72.574 597.568 72.784 597.12 73.148L597.456 70.544H601.236V69.2H596.196L595.664 74.198L596.952 74.744C597.33 74.31 597.876 73.932 598.688 73.932C599.724 73.932 600.34 74.716 600.34 75.808C600.34 76.97 599.486 77.824 598.268 77.824C597.246 77.824 596.644 77.418 596.126 76.97L595.328 78.076C595.832 78.594 596.84 79.168 598.282 79.168Z" fill="#222222"/>
<rect x="577" y="94" width="35" height="30" fill="#FF5F14"/>
<path d="M648.716 63.168C650.424 63.168 651.81 62.132 651.81 60.312C651.81 58.534 650.298 57.722 649.094 57.162C648.1 56.714 647.176 56.336 647.176 55.524C647.176 54.81 647.736 54.362 648.534 54.362C649.29 54.362 649.836 54.824 650.074 55.37L651.376 54.936C651.068 53.844 650.018 53.032 648.604 53.032C646.826 53.032 645.72 54.166 645.72 55.524C645.72 57.162 647.134 57.862 648.366 58.408C649.416 58.87 650.354 59.444 650.354 60.354C650.354 61.32 649.738 61.824 648.814 61.824C647.89 61.824 647.12 61.222 646.728 60.34L645.398 60.83C645.874 62.188 647.148 63.168 648.716 63.168ZM654.637 63H655.911V57.26C655.911 57.064 655.897 56.658 655.883 56.42C655.967 56.714 656.051 56.98 656.121 57.26L657.661 63H657.829L659.369 57.26C659.453 56.98 659.523 56.714 659.607 56.42C659.579 56.658 659.579 57.064 659.579 57.26V63H660.853V53.2H659.453L657.983 58.814C657.871 59.192 657.801 59.528 657.759 59.808C657.717 59.528 657.633 59.192 657.535 58.814L656.093 53.2H654.637V63ZM669.224 63H670.75L667.516 53.2H666.214L663.008 63H664.548L665.234 60.718H668.524L669.224 63ZM665.64 59.416L666.62 56.168C666.69 55.944 666.816 55.454 666.872 55.146C666.928 55.454 667.054 55.944 667.124 56.168L668.118 59.416H665.64ZM672.891 63H678.925V61.614H674.333V53.2H672.891V63ZM682.017 63H688.051V61.614H683.459V53.2H682.017V63ZM703.365 63.168C705.227 63.168 706.641 62.006 706.641 60.214C706.641 59.01 705.983 58.128 705.059 57.764C705.801 57.33 706.277 56.546 706.277 55.636C706.277 54.124 705.059 53.032 703.379 53.032C701.867 53.032 700.873 53.956 700.411 55.076L701.727 55.58C701.993 54.992 702.497 54.376 703.379 54.376C704.205 54.376 704.821 54.936 704.821 55.79C704.821 56.672 704.205 57.232 703.267 57.232H702.525V58.576H703.337C704.569 58.576 705.185 59.262 705.185 60.228C705.185 61.278 704.387 61.81 703.393 61.81C702.511 61.81 701.867 61.376 701.433 60.34L700.117 60.872C700.621 62.216 701.643 63.168 703.365 63.168ZM671.421 79.168C673.283 79.168 674.697 78.006 674.697 76.214C674.697 75.01 674.039 74.128 673.115 73.764C673.857 73.33 674.333 72.546 674.333 71.636C674.333 70.124 673.115 69.032 671.435 69.032C669.923 69.032 668.929 69.956 668.467 71.076L669.783 71.58C670.049 70.992 670.553 70.376 671.435 70.376C672.261 70.376 672.877 70.936 672.877 71.79C672.877 72.672 672.261 73.232 671.323 73.232H670.581V74.576H671.393C672.625 74.576 673.241 75.262 673.241 76.228C673.241 77.278 672.443 77.81 671.449 77.81C670.567 77.81 669.923 77.376 669.489 76.34L668.173 76.872C668.677 78.216 669.699 79.168 671.421 79.168ZM680.562 79.168C683.32 79.168 684.048 76.34 684.048 74.1C684.048 71.678 683.25 69.032 680.562 69.032C677.79 69.032 677.076 71.86 677.076 74.1C677.076 76.522 677.874 79.168 680.562 79.168ZM680.562 77.824C678.966 77.824 678.532 75.948 678.532 74.1C678.532 72.392 678.924 70.362 680.562 70.362C682.158 70.362 682.578 72.266 682.578 74.1C682.578 75.822 682.214 77.824 680.562 77.824ZM680.562 75.052C681.108 75.052 681.514 74.618 681.514 74.1C681.514 73.596 681.108 73.148 680.562 73.148C680.016 73.148 679.61 73.596 679.61 74.1C679.61 74.618 680.016 75.052 680.562 75.052Z" fill="#222222"/>
<rect x="661" y="94" width="30" height="30" fill="#FF5F14"/>
<path d="M730.716 63.168C732.424 63.168 733.81 62.132 733.81 60.312C733.81 58.534 732.298 57.722 731.094 57.162C730.1 56.714 729.176 56.336 729.176 55.524C729.176 54.81 729.736 54.362 730.534 54.362C731.29 54.362 731.836 54.824 732.074 55.37L733.376 54.936C733.068 53.844 732.018 53.032 730.604 53.032C728.826 53.032 727.72 54.166 727.72 55.524C727.72 57.162 729.134 57.862 730.366 58.408C731.416 58.87 732.354 59.444 732.354 60.354C732.354 61.32 731.738 61.824 730.814 61.824C729.89 61.824 729.12 61.222 728.728 60.34L727.398 60.83C727.874 62.188 729.148 63.168 730.716 63.168ZM736.637 63H737.911V57.26C737.911 57.064 737.897 56.658 737.883 56.42C737.967 56.714 738.051 56.98 738.121 57.26L739.661 63H739.829L741.369 57.26C741.453 56.98 741.523 56.714 741.607 56.42C741.579 56.658 741.579 57.064 741.579 57.26V63H742.853V53.2H741.453L739.983 58.814C739.871 59.192 739.801 59.528 739.759 59.808C739.717 59.528 739.633 59.192 739.535 58.814L738.093 53.2H736.637V63ZM751.224 63H752.75L749.516 53.2H748.214L745.008 63H746.548L747.234 60.718H750.524L751.224 63ZM747.64 59.416L748.62 56.168C748.69 55.944 748.816 55.454 748.872 55.146C748.928 55.454 749.054 55.944 749.124 56.168L750.118 59.416H747.64ZM754.891 63H760.925V61.614H756.333V53.2H754.891V63ZM764.017 63H770.051V61.614H765.459V53.2H764.017V63ZM786.345 63H787.759V60.69H789.061V59.402H787.759V53.2H786.471L781.739 59.836V60.69H786.345V63ZM786.345 59.402H783.601L786.345 55.37V59.402ZM750.271 79H756.599V77.614H751.909C752.063 76.662 752.945 75.948 753.953 75.304C755.325 74.45 756.515 73.652 756.515 71.86C756.515 70.208 755.395 69.032 753.519 69.032C751.979 69.032 750.761 69.9 750.341 71.132L751.629 71.706C751.895 70.894 752.525 70.362 753.533 70.362C754.471 70.362 755.059 70.978 755.059 71.874C755.059 72.896 754.219 73.484 753.323 74.086C751.741 75.066 750.271 76.284 750.271 79ZM762.282 79.168C764.396 79.168 765.796 77.656 765.796 75.766C765.796 73.96 764.69 72.574 762.828 72.574C762.142 72.574 761.568 72.784 761.12 73.148L761.456 70.544H765.236V69.2H760.196L759.664 74.198L760.952 74.744C761.33 74.31 761.876 73.932 762.688 73.932C763.724 73.932 764.34 74.716 764.34 75.808C764.34 76.97 763.486 77.824 762.268 77.824C761.246 77.824 760.644 77.418 760.126 76.97L759.328 78.076C759.832 78.594 760.84 79.168 762.282 79.168Z" fill="#222222"/>
<rect x="746" y="94" width="25" height="30" fill="#FF5F14"/>
<path d="M812.716 63.168C814.424 63.168 815.81 62.132 815.81 60.312C815.81 58.534 814.298 57.722 813.094 57.162C812.1 56.714 811.176 56.336 811.176 55.524C811.176 54.81 811.736 54.362 812.534 54.362C813.29 54.362 813.836 54.824 814.074 55.37L815.376 54.936C815.068 53.844 814.018 53.032 812.604 53.032C810.826 53.032 809.72 54.166 809.72 55.524C809.72 57.162 811.134 57.862 812.366 58.408C813.416 58.87 814.354 59.444 814.354 60.354C814.354 61.32 813.738 61.824 812.814 61.824C811.89 61.824 811.12 61.222 810.728 60.34L809.398 60.83C809.874 62.188 811.148 63.168 812.716 63.168ZM818.637 63H819.911V57.26C819.911 57.064 819.897 56.658 819.883 56.42C819.967 56.714 820.051 56.98 820.121 57.26L821.661 63H821.829L823.369 57.26C823.453 56.98 823.523 56.714 823.607 56.42C823.579 56.658 823.579 57.064 823.579 57.26V63H824.853V53.2H823.453L821.983 58.814C821.871 59.192 821.801 59.528 821.759 59.808C821.717 59.528 821.633 59.192 821.535 58.814L820.093 53.2H818.637V63ZM833.224 63H834.75L831.516 53.2H830.214L827.008 63H828.548L829.234 60.718H832.524L833.224 63ZM829.64 59.416L830.62 56.168C830.69 55.944 830.816 55.454 830.872 55.146C830.928 55.454 831.054 55.944 831.124 56.168L832.118 59.416H829.64ZM836.891 63H842.925V61.614H838.333V53.2H836.891V63ZM846.017 63H852.051V61.614H847.459V53.2H846.017V63ZM867.099 63.168C869.213 63.168 870.613 61.656 870.613 59.766C870.613 57.96 869.507 56.574 867.645 56.574C866.959 56.574 866.385 56.784 865.937 57.148L866.273 54.544H870.053V53.2H865.013L864.481 58.198L865.769 58.744C866.147 58.31 866.693 57.932 867.505 57.932C868.541 57.932 869.157 58.716 869.157 59.808C869.157 60.97 868.303 61.824 867.085 61.824C866.063 61.824 865.461 61.418 864.943 60.97L864.145 62.076C864.649 62.594 865.657 63.168 867.099 63.168ZM832.271 79H838.599V77.614H833.909C834.063 76.662 834.945 75.948 835.953 75.304C837.325 74.45 838.515 73.652 838.515 71.86C838.515 70.208 837.395 69.032 835.519 69.032C833.979 69.032 832.761 69.9 832.341 71.132L833.629 71.706C833.895 70.894 834.525 70.362 835.533 70.362C836.471 70.362 837.059 70.978 837.059 71.874C837.059 72.896 836.219 73.484 835.323 74.086C833.741 75.066 832.271 76.284 832.271 79ZM844.562 79.168C847.32 79.168 848.048 76.34 848.048 74.1C848.048 71.678 847.25 69.032 844.562 69.032C841.79 69.032 841.076 71.86 841.076 74.1C841.076 76.522 841.874 79.168 844.562 79.168ZM844.562 77.824C842.966 77.824 842.532 75.948 842.532 74.1C842.532 72.392 842.924 70.362 844.562 70.362C846.158 70.362 846.578 72.266 846.578 74.1C846.578 75.822 846.214 77.824 844.562 77.824ZM844.562 75.052C845.108 75.052 845.514 74.618 845.514 74.1C845.514 73.596 845.108 73.148 844.562 73.148C844.016 73.148 843.61 73.596 843.61 74.1C843.61 74.618 844.016 75.052 844.562 75.052Z" fill="#222222"/>
<rect x="830" y="94" width="20" height="30" fill="#FF5F14"/>
<path d="M893.716 63.168C895.424 63.168 896.81 62.132 896.81 60.312C896.81 58.534 895.298 57.722 894.094 57.162C893.1 56.714 892.176 56.336 892.176 55.524C892.176 54.81 892.736 54.362 893.534 54.362C894.29 54.362 894.836 54.824 895.074 55.37L896.376 54.936C896.068 53.844 895.018 53.032 893.604 53.032C891.826 53.032 890.72 54.166 890.72 55.524C890.72 57.162 892.134 57.862 893.366 58.408C894.416 58.87 895.354 59.444 895.354 60.354C895.354 61.32 894.738 61.824 893.814 61.824C892.89 61.824 892.12 61.222 891.728 60.34L890.398 60.83C890.874 62.188 892.148 63.168 893.716 63.168ZM899.637 63H900.911V57.26C900.911 57.064 900.897 56.658 900.883 56.42C900.967 56.714 901.051 56.98 901.121 57.26L902.661 63H902.829L904.369 57.26C904.453 56.98 904.523 56.714 904.607 56.42C904.579 56.658 904.579 57.064 904.579 57.26V63H905.853V53.2H904.453L902.983 58.814C902.871 59.192 902.801 59.528 902.759 59.808C902.717 59.528 902.633 59.192 902.535 58.814L901.093 53.2H899.637V63ZM914.224 63H915.75L912.516 53.2H911.214L908.008 63H909.548L910.234 60.718H913.524L914.224 63ZM910.64 59.416L911.62 56.168C911.69 55.944 911.816 55.454 911.872 55.146C911.928 55.454 912.054 55.944 912.124 56.168L913.118 59.416H910.64ZM917.891 63H923.925V61.614H919.333V53.2H917.891V63ZM927.017 63H933.051V61.614H928.459V53.2H927.017V63ZM948.421 63.168C950.311 63.168 951.739 61.81 951.739 59.948C951.739 58.254 950.465 56.854 948.687 56.854C947.861 56.854 947.203 57.12 946.811 57.54C947.231 55.944 948.771 54.698 950.381 54.306V53.032C946.951 53.704 945.019 56.406 945.019 59.374C945.019 61.516 946.181 63.168 948.421 63.168ZM948.393 61.824C947.301 61.824 946.461 61.096 946.461 60.018C946.461 58.926 947.273 58.17 948.393 58.17C949.555 58.17 950.325 58.912 950.325 60.018C950.325 61.096 949.527 61.824 948.393 61.824ZM917.177 77.614V69.172L913.593 70.334V71.706L915.735 71.048V77.614H913.299V79H919.571V77.614H917.177ZM925.282 79.168C927.396 79.168 928.796 77.656 928.796 75.766C928.796 73.96 927.69 72.574 925.828 72.574C925.142 72.574 924.568 72.784 924.12 73.148L924.456 70.544H928.236V69.2H923.196L922.664 74.198L923.952 74.744C924.33 74.31 924.876 73.932 925.688 73.932C926.724 73.932 927.34 74.716 927.34 75.808C927.34 76.97 926.486 77.824 925.268 77.824C924.246 77.824 923.644 77.418 923.126 76.97L922.328 78.076C922.832 78.594 923.84 79.168 925.282 79.168Z" fill="#222222"/>
<rect x="913" y="94" width="15" height="30" fill="#FF5F14"/>
<path d="M975.716 63.168C977.424 63.168 978.81 62.132 978.81 60.312C978.81 58.534 977.298 57.722 976.094 57.162C975.1 56.714 974.176 56.336 974.176 55.524C974.176 54.81 974.736 54.362 975.534 54.362C976.29 54.362 976.836 54.824 977.074 55.37L978.376 54.936C978.068 53.844 977.018 53.032 975.604 53.032C973.826 53.032 972.72 54.166 972.72 55.524C972.72 57.162 974.134 57.862 975.366 58.408C976.416 58.87 977.354 59.444 977.354 60.354C977.354 61.32 976.738 61.824 975.814 61.824C974.89 61.824 974.12 61.222 973.728 60.34L972.398 60.83C972.874 62.188 974.148 63.168 975.716 63.168ZM981.637 63H982.911V57.26C982.911 57.064 982.897 56.658 982.883 56.42C982.967 56.714 983.051 56.98 983.121 57.26L984.661 63H984.829L986.369 57.26C986.453 56.98 986.523 56.714 986.607 56.42C986.579 56.658 986.579 57.064 986.579 57.26V63H987.853V53.2H986.453L984.983 58.814C984.871 59.192 984.801 59.528 984.759 59.808C984.717 59.528 984.633 59.192 984.535 58.814L983.093 53.2H981.637V63ZM996.224 63H997.75L994.516 53.2H993.214L990.008 63H991.548L992.234 60.718H995.524L996.224 63ZM992.64 59.416L993.62 56.168C993.69 55.944 993.816 55.454 993.872 55.146C993.928 55.454 994.054 55.944 994.124 56.168L995.118 59.416H992.64ZM999.891 63H1005.92V61.614H1001.33V53.2H999.891V63ZM1009.02 63H1015.05V61.614H1010.46V53.2H1009.02V63ZM1027.23 53.2V54.53H1031.88C1029.85 57.218 1029.12 59.864 1029.11 63H1030.55C1030.55 60.76 1031.14 57.078 1033.53 54.348V53.2H1027.23ZM999.177 77.614V69.172L995.593 70.334V71.706L997.735 71.048V77.614H995.299V79H1001.57V77.614H999.177ZM1007.56 79.168C1010.32 79.168 1011.05 76.34 1011.05 74.1C1011.05 71.678 1010.25 69.032 1007.56 69.032C1004.79 69.032 1004.08 71.86 1004.08 74.1C1004.08 76.522 1004.87 79.168 1007.56 79.168ZM1007.56 77.824C1005.97 77.824 1005.53 75.948 1005.53 74.1C1005.53 72.392 1005.92 70.362 1007.56 70.362C1009.16 70.362 1009.58 72.266 1009.58 74.1C1009.58 75.822 1009.21 77.824 1007.56 77.824ZM1007.56 75.052C1008.11 75.052 1008.51 74.618 1008.51 74.1C1008.51 73.596 1008.11 73.148 1007.56 73.148C1007.02 73.148 1006.61 73.596 1006.61 74.1C1006.61 74.618 1007.02 75.052 1007.56 75.052Z" fill="#222222"/>
<rect x="998" y="94" width="10" height="30" fill="#FF5F14"/>
<path d="M1058.72 63.168C1060.42 63.168 1061.81 62.132 1061.81 60.312C1061.81 58.534 1060.3 57.722 1059.09 57.162C1058.1 56.714 1057.18 56.336 1057.18 55.524C1057.18 54.81 1057.74 54.362 1058.53 54.362C1059.29 54.362 1059.84 54.824 1060.07 55.37L1061.38 54.936C1061.07 53.844 1060.02 53.032 1058.6 53.032C1056.83 53.032 1055.72 54.166 1055.72 55.524C1055.72 57.162 1057.13 57.862 1058.37 58.408C1059.42 58.87 1060.35 59.444 1060.35 60.354C1060.35 61.32 1059.74 61.824 1058.81 61.824C1057.89 61.824 1057.12 61.222 1056.73 60.34L1055.4 60.83C1055.87 62.188 1057.15 63.168 1058.72 63.168ZM1064.64 63H1065.91V57.26C1065.91 57.064 1065.9 56.658 1065.88 56.42C1065.97 56.714 1066.05 56.98 1066.12 57.26L1067.66 63H1067.83L1069.37 57.26C1069.45 56.98 1069.52 56.714 1069.61 56.42C1069.58 56.658 1069.58 57.064 1069.58 57.26V63H1070.85V53.2H1069.45L1067.98 58.814C1067.87 59.192 1067.8 59.528 1067.76 59.808C1067.72 59.528 1067.63 59.192 1067.53 58.814L1066.09 53.2H1064.64V63ZM1079.22 63H1080.75L1077.52 53.2H1076.21L1073.01 63H1074.55L1075.23 60.718H1078.52L1079.22 63ZM1075.64 59.416L1076.62 56.168C1076.69 55.944 1076.82 55.454 1076.87 55.146C1076.93 55.454 1077.05 55.944 1077.12 56.168L1078.12 59.416H1075.64ZM1082.89 63H1088.92V61.614H1084.33V53.2H1082.89V63ZM1092.02 63H1098.05V61.614H1093.46V53.2H1092.02V63ZM1113.38 63.168C1115.44 63.168 1116.82 61.894 1116.82 60.144C1116.82 58.968 1116.1 58.016 1115.06 57.596C1115.84 57.246 1116.4 56.504 1116.4 55.594C1116.4 54.152 1115.19 53.032 1113.38 53.032C1111.56 53.032 1110.36 54.152 1110.36 55.594C1110.36 56.518 1110.93 57.26 1111.69 57.61C1110.65 58.03 1109.94 58.968 1109.94 60.144C1109.94 61.894 1111.32 63.168 1113.38 63.168ZM1113.38 57.05C1112.4 57.05 1111.8 56.49 1111.8 55.72C1111.8 54.866 1112.44 54.306 1113.38 54.306C1114.3 54.306 1114.96 54.866 1114.96 55.72C1114.96 56.49 1114.33 57.05 1113.38 57.05ZM1113.38 61.866C1112.22 61.866 1111.39 61.166 1111.39 60.06C1111.39 59.052 1112.19 58.24 1113.38 58.24C1114.56 58.24 1115.37 59.052 1115.37 60.06C1115.37 61.166 1114.51 61.866 1113.38 61.866ZM1085.72 79.168C1087.83 79.168 1089.23 77.656 1089.23 75.766C1089.23 73.96 1088.13 72.574 1086.26 72.574C1085.58 72.574 1085 72.784 1084.56 73.148L1084.89 70.544H1088.67V69.2H1083.63L1083.1 74.198L1084.39 74.744C1084.77 74.31 1085.31 73.932 1086.12 73.932C1087.16 73.932 1087.78 74.716 1087.78 75.808C1087.78 76.97 1086.92 77.824 1085.7 77.824C1084.68 77.824 1084.08 77.418 1083.56 76.97L1082.76 78.076C1083.27 78.594 1084.28 79.168 1085.72 79.168Z" fill="#222222"/>
<rect x="1084" y="94" width="5" height="30" fill="#382E2C"/>
</svg>
