<svg version="1.1" xmlns="http://www.w3.org/2000/svg" xmlns:xlink="http://www.w3.org/1999/xlink" x="0px" y="0px" viewBox="-848.7 -103.7 1124.1 1000" enable-background="new -848.7 -103.7 1124.1 1000" xml:space="preserve">
<path d="M275.4,14.6c-41.6,20.4-85.8,33.7-132.7,39.8C190.5,23.2,227.1-26.1,244.5-85c-44.7,28.8-94.1,49.3-146.8,61.4c-42-49.3-102.1-80-168.2-80c-127.4,0-230.6,112.9-230.6,252.5c0,19.6,2,38.9,5.8,57.2C-486.6,196-656.8,95.1-770.6-57.3c-19.7,37.2-31.1,80.5-31.1,126.9c0,87.4,40.7,165.1,102.7,209.7c-37.9-1.6-73.5-12.3-104.5-31.4c0,1,0,2.3,0,3.4c0,122.1,79.5,224,185,247.5c-19.3,5.8-39.8,8.4-60.9,8.4c-14.8,0-28.9-1-43.1-4.5c29.2,100.7,114.4,173.8,215.4,175.3c-78.9,68-178.3,108-286.4,108c-18.7,0-37.1-1.1-55.1-3.5c102,71.9,223,113.8,353.5,113.8c424.1,0,656.2-384.7,656.2-718.3c0-10.6-0.2-21.5-0.8-32.3C205.3,109.6,244.5,65.1,275.4,14.6z"/>
</svg>
