<svg id="Layer_1" data-name="Layer 1" xmlns="http://www.w3.org/2000/svg" viewBox="0 0 504 107.52"><defs><style>.cls-1{fill:#fff;}.cls-2{fill:#6cc24a;}</style></defs><path class="cls-1" d="M50.37,36.12H43.79a3.79,3.79,0,0,0-3.43,2.49L26.29,82.06,12.53,38.62a3.75,3.75,0,0,0-3.41-2.5H2.28A2.28,2.28,0,0,0,.39,37,2.29,2.29,0,0,0,.14,39.1l18.7,56.11a3.82,3.82,0,0,0,3.44,2.47h7.59a3.84,3.84,0,0,0,3.45-2.46L52.5,39.1A2.26,2.26,0,0,0,52.26,37,2.28,2.28,0,0,0,50.37,36.12Z" transform="translate(0 -0.24)"/><rect class="cls-1" x="65.36" y="35.88" width="12.08" height="61.56" rx="2.83"/><path class="cls-1" d="M137.42,36.12H93A2.83,2.83,0,0,0,90.12,39v5A2.83,2.83,0,0,0,93,46.77h14.9A1.26,1.26,0,0,1,109.1,48V94.85a2.83,2.83,0,0,0,2.83,2.83h6.42a2.83,2.83,0,0,0,2.83-2.83V48a1.26,1.26,0,0,1,1.25-1.26h15a2.83,2.83,0,0,0,2.83-2.83V39A2.83,2.83,0,0,0,137.42,36.12Z" transform="translate(0 -0.24)"/><path class="cls-1" d="M176.76,38.53a4,4,0,0,0-3.51-2.41h-7.09a4,4,0,0,0-3.51,2.41L141.09,94.71a2.09,2.09,0,0,0,2,3h6.75a3.89,3.89,0,0,0,3.47-2.44l4.26-12a2.32,2.32,0,0,1,2-1.4h19.85a2.31,2.31,0,0,1,2,1.4l4.27,12a3.89,3.89,0,0,0,3.47,2.44h7.17a2.09,2.09,0,0,0,2.05-3Zm.56,32.84a.76.76,0,0,1,0,.65.74.74,0,0,1-.61.23H162.46a.58.58,0,0,1-.62-.88l7.78-22.1Z" transform="translate(0 -0.24)"/><path class="cls-1" d="M272,36.12H261.5a3.85,3.85,0,0,0-3.45,2.47L243.24,81.72,228,38.57a3.87,3.87,0,0,0-3.46-2.45h-10.7A2.83,2.83,0,0,0,211,39v55.9a2.83,2.83,0,0,0,2.83,2.83h5.91a2.83,2.83,0,0,0,2.83-2.83V54.66l14.58,40.58a3.91,3.91,0,0,0,3.48,2.44h4.56a3.9,3.9,0,0,0,3.48-2.44l14.58-40.58V94.85a2.83,2.83,0,0,0,2.83,2.83H272a2.83,2.83,0,0,0,2.83-2.83V39A2.83,2.83,0,0,0,272,36.12Z" transform="translate(0 -0.24)"/><rect class="cls-1" x="293.73" y="35.88" width="12.08" height="61.56" rx="2.83"/><path class="cls-1" d="M374,39a2.83,2.83,0,0,0-2.83-2.83H365.3A2.83,2.83,0,0,0,362.47,39V78.6l-25-40.37a4.87,4.87,0,0,0-3.78-2.11h-7A2.83,2.83,0,0,0,323.82,39v55.9a2.83,2.83,0,0,0,2.83,2.83h5.91a2.83,2.83,0,0,0,2.83-2.83V55.15l25,40.42a4.85,4.85,0,0,0,3.78,2.11h7A2.83,2.83,0,0,0,374,94.85Z" transform="translate(0 -0.24)"/><path class="cls-2" d="M460.46,1.42a3.74,3.74,0,0,0-5.46,0C435.72,22,411.46,41.35,411.46,64.78c0,25.55,20.72,43,46.27,43S504,90.33,504,64.78C504,41.35,479.74,22,460.46,1.42ZM482.8,43.94A2.83,2.83,0,0,1,480,46.77H465A1.26,1.26,0,0,0,463.73,48V94.85a2.83,2.83,0,0,1-2.83,2.83h-6.42a2.83,2.83,0,0,1-2.83-2.83V48a1.27,1.27,0,0,0-1.26-1.26h-14.9a2.83,2.83,0,0,1-2.83-2.83V39a2.83,2.83,0,0,1,2.83-2.83H480A2.83,2.83,0,0,1,482.8,39Z" transform="translate(0 -0.24)"/></svg>