<svg width="377" height="460" viewBox="0 0 377 460" fill="none" xmlns="http://www.w3.org/2000/svg">
<path d="M1.04 2.848V4.848H2.896V2.848H2.272L2.928 0.608H1.936L1.04 2.848ZM12.4715 2.272V0.608H5.0955V12H7.0155V7.424H12.0875V5.776H7.0155V2.272H12.4715ZM15.6951 12V0.608H13.8711V12H15.6951ZM21.1534 10.896C20.0174 10.896 19.0894 10.144 19.0254 8.304H24.9934C24.9934 7.52 24.9294 6.912 24.7694 6.4C24.3214 4.704 22.9774 3.632 21.1214 3.632C18.6574 3.632 17.2174 5.44 17.2174 7.84C17.2174 10.464 18.6734 12.24 21.1534 12.24C23.2814 12.24 24.5934 11.008 24.8974 9.552H23.0254C22.8654 10.336 22.1934 10.896 21.1534 10.896ZM21.1214 4.976C22.2094 4.976 23.0414 5.68 23.1694 7.104H19.0574C19.2174 5.696 20.0174 4.976 21.1214 4.976ZM30.2595 7.792L32.9475 3.872H30.8195L29.1555 6.512H29.1235L27.4595 3.872H25.3315L28.0195 7.792L25.1235 12H27.2675L29.1235 8.992H29.1555L31.0115 12H33.1555L30.2595 7.792ZM42.2013 0.367999C38.9373 0.367999 36.9213 2.64 36.9213 6.352C36.9213 10 38.7773 12.208 41.6893 12.208C43.2573 12.208 44.5213 11.584 45.1293 10.592H45.1613V12H46.8093V5.84H42.1053V7.44H45.0173C45.0013 9.648 43.8653 10.656 42.1213 10.656C40.1373 10.656 38.9053 9.024 38.9053 6.352C38.9053 3.696 40.1693 2.08 42.2013 2.08C43.6573 2.08 44.5693 2.8 44.7933 4.096H46.8413C46.6173 1.824 44.9053 0.367999 42.2013 0.367999ZM53.0441 3.76C52.0361 3.76 51.2681 4.192 50.7241 5.072H50.6921V3.872H48.9961V12H50.8201V8.016C50.8201 6.32 51.6201 5.392 53.0761 5.392C53.2841 5.392 53.4921 5.408 53.7161 5.456V3.84C53.5081 3.792 53.2521 3.76 53.0441 3.76ZM56.6014 2.352V0.608H54.7774V2.352H56.6014ZM56.6014 12V3.872H54.7774V12H56.6014ZM65.7396 12V0.608H63.9156V4.928H63.8836C63.4196 4.128 62.5076 3.664 61.4996 3.664C59.4356 3.664 58.1236 5.344 58.1236 7.936C58.1236 10.528 59.4516 12.192 61.5156 12.192C62.5396 12.192 63.4516 11.712 63.9316 10.88H63.9636V12H65.7396ZM62.0436 5.088C63.2276 5.088 64.0116 6.16 64.0116 7.936C64.0116 9.696 63.2276 10.784 62.0436 10.784C60.8116 10.784 60.0276 9.664 60.0276 7.936C60.0276 6.208 60.8116 5.088 62.0436 5.088ZM69.5363 2.608V0.608H67.6963V2.608H68.3203L67.6643 4.848H68.6562L69.5363 2.608Z" fill="#222222"/>
<rect x="0.5" y="41.5" width="376" height="131" fill="white"/>
<rect x="1" y="102" width="20" height="30" fill="#0077C8"/>
<path d="M3.27105 95H9.59905V93.614H4.90905C5.06305 92.662 5.94505 91.948 6.95305 91.304C8.32505 90.45 9.51505 89.652 9.51505 87.86C9.51505 86.208 8.39505 85.032 6.51905 85.032C4.97905 85.032 3.76105 85.9 3.34105 87.132L4.62905 87.706C4.89505 86.894 5.52505 86.362 6.53305 86.362C7.47105 86.362 8.05905 86.978 8.05905 87.874C8.05905 88.896 7.21905 89.484 6.32305 90.086C4.74105 91.066 3.27105 92.284 3.27105 95ZM15.562 95.168C18.32 95.168 19.048 92.34 19.048 90.1C19.048 87.678 18.25 85.032 15.562 85.032C12.79 85.032 12.076 87.86 12.076 90.1C12.076 92.522 12.874 95.168 15.562 95.168ZM15.562 93.824C13.966 93.824 13.532 91.948 13.532 90.1C13.532 88.392 13.924 86.362 15.562 86.362C17.158 86.362 17.578 88.266 17.578 90.1C17.578 91.822 17.214 93.824 15.562 93.824ZM15.562 91.052C16.108 91.052 16.514 90.618 16.514 90.1C16.514 89.596 16.108 89.148 15.562 89.148C15.016 89.148 14.61 89.596 14.61 90.1C14.61 90.618 15.016 91.052 15.562 91.052Z" fill="black"/>
<rect x="69" y="102" width="10" height="30" fill="#FF5F14"/>
<path d="M70.177 93.614V85.172L66.593 86.334V87.706L68.735 87.048V93.614H66.299V95H72.571V93.614H70.177ZM78.562 95.168C81.32 95.168 82.048 92.34 82.048 90.1C82.048 87.678 81.25 85.032 78.562 85.032C75.79 85.032 75.076 87.86 75.076 90.1C75.076 92.522 75.874 95.168 78.562 95.168ZM78.562 93.824C76.966 93.824 76.532 91.948 76.532 90.1C76.532 88.392 76.924 86.362 78.562 86.362C80.158 86.362 80.578 88.266 80.578 90.1C80.578 91.822 80.214 93.824 78.562 93.824ZM78.562 91.052C79.108 91.052 79.514 90.618 79.514 90.1C79.514 89.596 79.108 89.148 78.562 89.148C78.016 89.148 77.61 89.596 77.61 90.1C77.61 90.618 78.016 91.052 78.562 91.052Z" fill="black"/>
<rect x="21" y="42" width="19" height="130" fill="#FA00FF" fill-opacity="0.2"/>
<rect x="79" y="42" width="18" height="130" fill="#FA00FF" fill-opacity="0.2"/>
<rect x="50" y="42" width="19" height="130" fill="#FA00FF" fill-opacity="0.2"/>
<rect x="107" y="42" width="19" height="130" fill="#FA00FF" fill-opacity="0.2"/>
<rect x="136" y="42" width="19" height="130" fill="#FA00FF" fill-opacity="0.2"/>
<rect x="165" y="42" width="19" height="130" fill="#FA00FF" fill-opacity="0.2"/>
<rect x="194" y="42" width="18" height="130" fill="#FA00FF" fill-opacity="0.2"/>
<rect x="222" y="42" width="19" height="130" fill="#FA00FF" fill-opacity="0.2"/>
<rect x="251" y="42" width="19" height="130" fill="#FA00FF" fill-opacity="0.2"/>
<rect x="280" y="42" width="19" height="130" fill="#FA00FF" fill-opacity="0.2"/>
<rect x="309" y="42" width="18" height="130" fill="#FA00FF" fill-opacity="0.2"/>
<rect x="337" y="42" width="19" height="130" fill="#FA00FF" fill-opacity="0.2"/>
<rect x="0.5" y="41.5" width="376" height="131" stroke="#B1B3B3"/>
<path d="M188.707 195.293C188.317 194.902 187.683 194.902 187.293 195.293L180.929 201.657C180.538 202.047 180.538 202.681 180.929 203.071C181.319 203.462 181.953 203.462 182.343 203.071L188 197.414L193.657 203.071C194.047 203.462 194.681 203.462 195.071 203.071C195.462 202.681 195.462 202.047 195.071 201.657L188.707 195.293ZM187.293 246.707C187.683 247.098 188.317 247.098 188.707 246.707L195.071 240.343C195.462 239.953 195.462 239.319 195.071 238.929C194.681 238.538 194.047 238.538 193.657 238.929L188 244.586L182.343 238.929C181.953 238.538 181.319 238.538 180.929 238.929C180.538 239.319 180.538 239.953 180.929 240.343L187.293 246.707ZM187 196L187 246L189 246L189 196L187 196Z" fill="black"/>
<rect x="0.5" y="269.5" width="376" height="131" fill="white"/>
<rect x="1" y="330" width="20" height="30" fill="#0077C8"/>
<path d="M3.27105 323H9.59905V321.614H4.90905C5.06305 320.662 5.94505 319.948 6.95305 319.304C8.32505 318.45 9.51505 317.652 9.51505 315.86C9.51505 314.208 8.39505 313.032 6.51905 313.032C4.97905 313.032 3.76105 313.9 3.34105 315.132L4.62905 315.706C4.89505 314.894 5.52505 314.362 6.53305 314.362C7.47105 314.362 8.05905 314.978 8.05905 315.874C8.05905 316.896 7.21905 317.484 6.32305 318.086C4.74105 319.066 3.27105 320.284 3.27105 323ZM15.562 323.168C18.32 323.168 19.048 320.34 19.048 318.1C19.048 315.678 18.25 313.032 15.562 313.032C12.79 313.032 12.076 315.86 12.076 318.1C12.076 320.522 12.874 323.168 15.562 323.168ZM15.562 321.824C13.966 321.824 13.532 319.948 13.532 318.1C13.532 316.392 13.924 314.362 15.562 314.362C17.158 314.362 17.578 316.266 17.578 318.1C17.578 319.822 17.214 321.824 15.562 321.824ZM15.562 319.052C16.108 319.052 16.514 318.618 16.514 318.1C16.514 317.596 16.108 317.148 15.562 317.148C15.016 317.148 14.61 317.596 14.61 318.1C14.61 318.618 15.016 319.052 15.562 319.052Z" fill="black"/>
<rect x="69" y="330" width="10" height="30" fill="#FF5F14"/>
<path d="M70.177 321.614V313.172L66.593 314.334V315.706L68.735 315.048V321.614H66.299V323H72.571V321.614H70.177ZM78.562 323.168C81.32 323.168 82.048 320.34 82.048 318.1C82.048 315.678 81.25 313.032 78.562 313.032C75.79 313.032 75.076 315.86 75.076 318.1C75.076 320.522 75.874 323.168 78.562 323.168ZM78.562 321.824C76.966 321.824 76.532 319.948 76.532 318.1C76.532 316.392 76.924 314.362 78.562 314.362C80.158 314.362 80.578 316.266 80.578 318.1C80.578 319.822 80.214 321.824 78.562 321.824ZM78.562 319.052C79.108 319.052 79.514 318.618 79.514 318.1C79.514 317.596 79.108 317.148 78.562 317.148C78.016 317.148 77.61 317.596 77.61 318.1C77.61 318.618 78.016 319.052 78.562 319.052Z" fill="black"/>
<rect x="21" y="270" width="48" height="130" fill="#FA00FF" fill-opacity="0.2"/>
<rect x="79" y="270" width="47" height="130" fill="#FA00FF" fill-opacity="0.2"/>
<rect x="136" y="270" width="48" height="130" fill="#FA00FF" fill-opacity="0.2"/>
<rect x="194" y="270" width="47" height="130" fill="#FA00FF" fill-opacity="0.2"/>
<rect x="251" y="270" width="48" height="130" fill="#FA00FF" fill-opacity="0.2"/>
<rect x="309" y="270" width="47" height="130" fill="#FA00FF" fill-opacity="0.2"/>
<rect x="0.5" y="269.5" width="376" height="131" stroke="#B1B3B3"/>
<path d="M8.032 428.624C8.032 429.115 7.94667 429.579 7.776 430.016C7.60533 430.443 7.36533 430.821 7.056 431.152C6.74667 431.472 6.37333 431.728 5.936 431.92C5.49867 432.101 5.01333 432.192 4.48 432.192C3.88267 432.192 3.35467 432.091 2.896 431.888C2.43733 431.675 2.048 431.381 1.728 431.008C1.41867 430.635 1.184 430.192 1.024 429.68C0.864 429.168 0.784 428.608 0.784 428C0.784 426.997 0.949333 426.08 1.28 425.248C1.61067 424.405 2.048 423.664 2.592 423.024C3.14667 422.373 3.776 421.835 4.48 421.408C5.19467 420.981 5.936 420.683 6.704 420.512L6.88 420.992C6.31467 421.195 5.776 421.472 5.264 421.824C4.76267 422.165 4.30933 422.571 3.904 423.04C3.50933 423.509 3.17867 424.037 2.912 424.624C2.64533 425.2 2.48 425.824 2.416 426.496C2.58667 426.208 2.89067 425.947 3.328 425.712C3.76533 425.467 4.272 425.344 4.848 425.344C5.30667 425.344 5.73333 425.419 6.128 425.568C6.52267 425.717 6.85867 425.931 7.136 426.208C7.41333 426.485 7.632 426.827 7.792 427.232C7.952 427.637 8.032 428.101 8.032 428.624ZM6.496 428.752C6.496 427.995 6.30933 427.376 5.936 426.896C5.57333 426.416 5.06133 426.176 4.4 426.176C3.89867 426.176 3.46667 426.304 3.104 426.56C2.752 426.805 2.50133 427.083 2.352 427.392C2.33067 427.541 2.32 427.717 2.32 427.92C2.32 428.123 2.32 428.283 2.32 428.4C2.32 428.741 2.36267 429.093 2.448 429.456C2.544 429.808 2.68267 430.133 2.864 430.432C3.056 430.731 3.29067 430.976 3.568 431.168C3.856 431.36 4.18667 431.456 4.56 431.456C4.90133 431.456 5.19467 431.381 5.44 431.232C5.68533 431.072 5.88267 430.864 6.032 430.608C6.192 430.352 6.30933 430.064 6.384 429.744C6.45867 429.413 6.496 429.083 6.496 428.752ZM19.5039 430.88C19.3119 431.253 18.9972 431.568 18.5599 431.824C18.1332 432.069 17.6319 432.192 17.0559 432.192C16.4265 432.192 15.8772 432.096 15.4079 431.904C14.9492 431.701 14.5652 431.419 14.2559 431.056C13.9465 430.683 13.7119 430.24 13.5519 429.728C13.4025 429.205 13.3279 428.629 13.3279 428C13.3279 426.645 13.6585 425.611 14.3199 424.896C14.9812 424.171 15.8825 423.808 17.0239 423.808C17.5465 423.808 18.0105 423.856 18.4159 423.952C18.8319 424.037 19.1839 424.155 19.4719 424.304C19.4399 424.656 19.3812 425.051 19.2959 425.488C19.2105 425.925 19.1039 426.288 18.9759 426.576H18.5439L17.8719 424.672C17.7972 424.619 17.7119 424.581 17.6159 424.56C17.5199 424.528 17.3599 424.512 17.1359 424.512C16.4105 424.512 15.8505 424.779 15.4559 425.312C15.0612 425.835 14.8639 426.725 14.8639 427.984C14.8639 428.389 14.9172 428.784 15.0239 429.168C15.1412 429.552 15.3119 429.899 15.5359 430.208C15.7705 430.507 16.0585 430.747 16.3999 430.928C16.7519 431.109 17.1572 431.2 17.6159 431.2C17.9892 431.2 18.3145 431.147 18.5919 431.04C18.8692 430.933 19.1039 430.805 19.2959 430.656L19.5039 430.88ZM20.906 428C20.906 427.328 20.9913 426.736 21.162 426.224C21.3433 425.701 21.5993 425.264 21.93 424.912C22.2607 424.549 22.6553 424.277 23.114 424.096C23.5833 423.904 24.1007 423.808 24.666 423.808C25.3273 423.808 25.898 423.909 26.378 424.112C26.858 424.315 27.2473 424.603 27.546 424.976C27.8553 425.339 28.0793 425.776 28.218 426.288C28.3673 426.8 28.442 427.371 28.442 428C28.442 429.344 28.1007 430.379 27.418 431.104C26.7353 431.829 25.818 432.192 24.666 432.192C24.026 432.192 23.4713 432.096 23.002 431.904C22.5327 431.701 22.1433 431.419 21.834 431.056C21.5247 430.683 21.29 430.24 21.13 429.728C20.9807 429.205 20.906 428.629 20.906 428ZM22.442 428C22.442 428.48 22.4847 428.933 22.57 429.36C22.666 429.787 22.81 430.16 23.002 430.48C23.2047 430.789 23.466 431.035 23.786 431.216C24.106 431.397 24.49 431.488 24.938 431.488C25.514 431.488 25.9833 431.205 26.346 430.64C26.7193 430.075 26.906 429.195 26.906 428C26.906 427.509 26.858 427.056 26.762 426.64C26.6767 426.213 26.538 425.845 26.346 425.536C26.154 425.216 25.9087 424.965 25.61 424.784C25.3113 424.603 24.954 424.512 24.538 424.512C23.9087 424.512 23.402 424.795 23.018 425.36C22.634 425.925 22.442 426.805 22.442 428ZM33.4268 432H29.8748V431.6C30.2268 431.429 30.5788 431.301 30.9308 431.216V421.088L29.7148 420.96V420.544C29.9921 420.416 30.3388 420.304 30.7548 420.208C31.1708 420.112 31.5761 420.032 31.9708 419.968H32.3708V431.216C32.7228 431.301 33.0748 431.429 33.4268 431.6V432ZM35.3883 428.832C35.3883 428.16 35.4043 427.504 35.4363 426.864C35.4683 426.213 35.4843 425.568 35.4843 424.928L34.4283 424.8V424.384C34.7696 424.256 35.1163 424.144 35.4683 424.048C35.8309 423.952 36.1829 423.872 36.5243 423.808H36.9243C36.9243 424.608 36.9083 425.403 36.8763 426.192C36.8443 426.981 36.8283 427.765 36.8283 428.544C36.8283 428.96 36.8496 429.333 36.8923 429.664C36.9456 429.995 37.0309 430.272 37.1483 430.496C37.2763 430.72 37.4469 430.896 37.6603 431.024C37.8736 431.141 38.1456 431.2 38.4763 431.2C38.9563 431.2 39.3563 431.029 39.6763 430.688C40.0069 430.336 40.2629 429.883 40.4443 429.328V424.928L39.4043 424.8V424.384C39.7349 424.256 40.0763 424.144 40.4283 424.048C40.7909 423.952 41.1429 423.872 41.4843 423.808H41.8843V431.088L42.9403 431.216V431.552C42.6309 431.691 42.3163 431.813 41.9963 431.92C41.6869 432.027 41.3616 432.107 41.0203 432.16H40.6203L40.5083 430.256H40.4443C40.3909 430.48 40.2949 430.709 40.1563 430.944C40.0283 431.168 39.8576 431.376 39.6443 431.568C39.4309 431.749 39.1856 431.899 38.9083 432.016C38.6416 432.133 38.3483 432.192 38.0283 432.192C37.6016 432.192 37.2229 432.139 36.8923 432.032C36.5723 431.936 36.3003 431.76 36.0763 431.504C35.8523 431.248 35.6816 430.907 35.5643 430.48C35.4469 430.043 35.3883 429.493 35.3883 428.832ZM52.2368 432H48.8128V431.6C48.9194 431.536 49.0474 431.472 49.1968 431.408C49.3568 431.333 49.5434 431.269 49.7568 431.216V427.52C49.7568 427.093 49.7354 426.709 49.6928 426.368C49.6608 426.027 49.5914 425.744 49.4848 425.52C49.3888 425.285 49.2448 425.109 49.0528 424.992C48.8608 424.864 48.6101 424.8 48.3008 424.8C48.0661 424.8 47.8474 424.848 47.6448 424.944C47.4528 425.04 47.2768 425.168 47.1168 425.328C46.9674 425.488 46.8341 425.669 46.7168 425.872C46.6101 426.075 46.5248 426.288 46.4608 426.512V431.216C46.6314 431.269 46.7914 431.328 46.9408 431.392C47.1008 431.445 47.2554 431.515 47.4048 431.6V432H43.9648V431.6C44.1141 431.525 44.2794 431.456 44.4608 431.392C44.6421 431.328 44.8288 431.269 45.0208 431.216V424.928L43.9648 424.8V424.384C44.3061 424.235 44.6528 424.117 45.0048 424.032C45.3674 423.936 45.7194 423.861 46.0608 423.808H46.4608V425.616H46.4768C46.6474 425.115 46.9354 424.688 47.3408 424.336C47.7568 423.984 48.2688 423.808 48.8768 423.808C49.1328 423.808 49.3781 423.835 49.6128 423.888C49.8474 423.941 50.0661 424.043 50.2688 424.192C50.4714 424.331 50.6421 424.528 50.7808 424.784C50.9194 425.04 51.0208 425.371 51.0848 425.776C51.2768 425.189 51.5861 424.715 52.0128 424.352C52.4394 423.989 52.9728 423.808 53.6128 423.808C54.0074 423.808 54.3488 423.861 54.6368 423.968C54.9354 424.064 55.1808 424.24 55.3728 424.496C55.5648 424.752 55.7034 425.099 55.7888 425.536C55.8848 425.973 55.9328 426.528 55.9328 427.2V431.216C56.2954 431.28 56.6474 431.408 56.9888 431.6V432H53.5488V431.6C53.8688 431.429 54.1834 431.301 54.4928 431.216V427.232C54.4928 426.848 54.4714 426.507 54.4288 426.208C54.3968 425.909 54.3274 425.659 54.2208 425.456C54.1141 425.243 53.9648 425.083 53.7728 424.976C53.5808 424.859 53.3248 424.8 53.0048 424.8C52.4928 424.8 52.0928 424.976 51.8048 425.328C51.5274 425.68 51.3248 426.128 51.1968 426.672V431.216C51.5701 431.323 51.9168 431.451 52.2368 431.6V432ZM66.6383 432H63.1983V431.6C63.4863 431.451 63.8009 431.323 64.1423 431.216V427.424C64.1423 426.613 64.0249 425.973 63.7903 425.504C63.5556 425.035 63.1289 424.8 62.5103 424.8C62.2436 424.8 61.9929 424.848 61.7583 424.944C61.5343 425.04 61.3316 425.173 61.1503 425.344C60.9796 425.504 60.8303 425.691 60.7023 425.904C60.5743 426.107 60.4729 426.32 60.3983 426.544V431.216C60.7289 431.28 61.0489 431.408 61.3583 431.6V432H57.9023V431.6C58.1689 431.461 58.5209 431.333 58.9583 431.216V424.928L57.9023 424.8V424.384C58.1796 424.267 58.4996 424.16 58.8623 424.064C59.2249 423.968 59.6036 423.883 59.9983 423.808H60.3983V425.6H60.4143C60.6383 425.109 60.9583 424.688 61.3743 424.336C61.8009 423.984 62.3129 423.808 62.9103 423.808C63.3369 423.808 63.7156 423.861 64.0463 423.968C64.3876 424.064 64.6703 424.24 64.8943 424.496C65.1183 424.752 65.2889 425.099 65.4062 425.536C65.5236 425.963 65.5823 426.507 65.5823 427.168V431.216C66.0089 431.291 66.3609 431.419 66.6383 431.6V432ZM71.7513 430.176C71.7513 429.877 71.6553 429.627 71.4633 429.424C71.2819 429.211 71.0473 429.013 70.7593 428.832C70.4713 428.651 70.1619 428.475 69.8313 428.304C69.5113 428.133 69.2073 427.936 68.9193 427.712C68.6313 427.477 68.3913 427.211 68.1993 426.912C68.0179 426.613 67.9273 426.245 67.9273 425.808C67.9273 425.52 67.9913 425.253 68.1193 425.008C68.2579 424.763 68.4393 424.555 68.6633 424.384C68.8873 424.203 69.1486 424.064 69.4473 423.968C69.7459 423.861 70.0659 423.808 70.4073 423.808C70.9833 423.808 71.4526 423.84 71.8153 423.904C72.1886 423.968 72.5459 424.059 72.8873 424.176C72.8446 424.517 72.7913 424.864 72.7273 425.216C72.6739 425.557 72.5939 425.909 72.4873 426.272H72.0873L71.4793 424.64C71.3513 424.587 71.2073 424.555 71.0473 424.544C70.8873 424.523 70.7219 424.512 70.5513 424.512C70.3593 424.512 70.1886 424.549 70.0393 424.624C69.9006 424.688 69.7779 424.773 69.6713 424.88C69.5753 424.987 69.5006 425.109 69.4473 425.248C69.3939 425.387 69.3673 425.525 69.3673 425.664C69.3673 425.952 69.4579 426.203 69.6393 426.416C69.8313 426.619 70.0713 426.811 70.3593 426.992C70.6473 427.163 70.9513 427.333 71.2713 427.504C71.6019 427.675 71.9113 427.867 72.1993 428.08C72.4873 428.293 72.7219 428.544 72.9033 428.832C73.0953 429.109 73.1913 429.445 73.1913 429.84C73.1913 430.203 73.1113 430.528 72.9513 430.816C72.8019 431.104 72.5886 431.349 72.3113 431.552C72.0446 431.755 71.7299 431.909 71.3673 432.016C71.0153 432.133 70.6366 432.192 70.2313 432.192C69.7726 432.192 69.3513 432.149 68.9673 432.064C68.5833 431.989 68.1833 431.877 67.7673 431.728C67.7886 431.344 67.8366 430.976 67.9113 430.624C67.9859 430.261 68.0819 429.915 68.1993 429.584H68.5993L69.3033 431.328C69.4206 431.413 69.5593 431.461 69.7193 431.472C69.8899 431.483 70.0446 431.488 70.1833 431.488C70.6526 431.488 71.0313 431.36 71.3193 431.104C71.6073 430.848 71.7513 430.539 71.7513 430.176ZM84.9258 430.88C84.7338 431.253 84.4191 431.568 83.9818 431.824C83.5551 432.069 83.0538 432.192 82.4778 432.192C81.8484 432.192 81.2991 432.096 80.8298 431.904C80.3711 431.701 79.9871 431.419 79.6778 431.056C79.3684 430.683 79.1338 430.24 78.9738 429.728C78.8244 429.205 78.7498 428.629 78.7498 428C78.7498 426.645 79.0804 425.611 79.7418 424.896C80.4031 424.171 81.3044 423.808 82.4458 423.808C82.9684 423.808 83.4324 423.856 83.8378 423.952C84.2538 424.037 84.6058 424.155 84.8938 424.304C84.8618 424.656 84.8031 425.051 84.7178 425.488C84.6324 425.925 84.5258 426.288 84.3978 426.576H83.9658L83.2938 424.672C83.2191 424.619 83.1338 424.581 83.0378 424.56C82.9418 424.528 82.7818 424.512 82.5578 424.512C81.8324 424.512 81.2724 424.779 80.8778 425.312C80.4831 425.835 80.2858 426.725 80.2858 427.984C80.2858 428.389 80.3391 428.784 80.4457 429.168C80.5631 429.552 80.7338 429.899 80.9578 430.208C81.1924 430.507 81.4804 430.747 81.8218 430.928C82.1738 431.109 82.5791 431.2 83.0378 431.2C83.4111 431.2 83.7364 431.147 84.0138 431.04C84.2911 430.933 84.5258 430.805 84.7178 430.656L84.9258 430.88ZM92.2319 429.904C92.2319 430.139 92.2372 430.341 92.2479 430.512C92.2585 430.683 92.2692 430.864 92.2799 431.056L93.3839 431.216V431.552C93.1172 431.691 92.8185 431.813 92.4879 431.92C92.1679 432.027 91.8585 432.107 91.5599 432.16H91.1599C91.0532 431.915 90.9892 431.648 90.9679 431.36C90.9465 431.061 90.9305 430.736 90.9199 430.384H90.8399C90.7972 430.597 90.7119 430.816 90.5839 431.04C90.4665 431.253 90.3065 431.445 90.1039 431.616C89.9119 431.787 89.6825 431.925 89.4159 432.032C89.1492 432.139 88.8452 432.192 88.5039 432.192C87.8532 432.192 87.3199 431.995 86.9039 431.6C86.4985 431.205 86.2959 430.688 86.2959 430.048C86.2959 429.557 86.3919 429.157 86.5839 428.848C86.7865 428.528 87.0799 428.277 87.4639 428.096C87.8479 427.915 88.3225 427.787 88.8879 427.712C89.4532 427.627 90.1092 427.563 90.8559 427.52C90.8985 427.061 90.9092 426.651 90.8879 426.288C90.8772 425.915 90.8185 425.6 90.7119 425.344C90.6159 425.077 90.4665 424.875 90.2639 424.736C90.0719 424.587 89.8159 424.512 89.4959 424.512C89.3465 424.512 89.1759 424.523 88.9839 424.544C88.8025 424.555 88.6212 424.597 88.4399 424.672L87.6879 426.592H87.2719C87.1652 426.272 87.0692 425.941 86.9839 425.6C86.9092 425.259 86.8612 424.923 86.8399 424.592C87.2452 424.347 87.6932 424.155 88.1839 424.016C88.6852 423.877 89.2399 423.808 89.8479 423.808C90.3919 423.808 90.8239 423.888 91.1439 424.048C91.4745 424.197 91.7252 424.395 91.8959 424.64C92.0665 424.885 92.1785 425.157 92.2319 425.456C92.2852 425.755 92.3119 426.053 92.3119 426.352C92.3119 426.992 92.2959 427.611 92.2639 428.208C92.2425 428.795 92.2319 429.36 92.2319 429.904ZM89.1439 431.2C89.4105 431.2 89.6452 431.147 89.8479 431.04C90.0505 430.933 90.2212 430.805 90.3599 430.656C90.4985 430.507 90.6105 430.357 90.6959 430.208C90.7812 430.048 90.8399 429.915 90.8719 429.808V428.128C90.2532 428.128 89.7465 428.16 89.3519 428.224C88.9572 428.288 88.6479 428.389 88.4239 428.528C88.1999 428.667 88.0452 428.843 87.9599 429.056C87.8745 429.259 87.8319 429.493 87.8319 429.76C87.8319 430.219 87.9492 430.576 88.1839 430.832C88.4185 431.077 88.7385 431.2 89.1439 431.2ZM103.107 432H99.667V431.6C99.955 431.451 100.27 431.323 100.611 431.216V427.424C100.611 426.613 100.494 425.973 100.259 425.504C100.024 425.035 99.5977 424.8 98.979 424.8C98.7123 424.8 98.4617 424.848 98.227 424.944C98.003 425.04 97.8003 425.173 97.619 425.344C97.4483 425.504 97.299 425.691 97.171 425.904C97.043 426.107 96.9417 426.32 96.867 426.544V431.216C97.1977 431.28 97.5177 431.408 97.827 431.6V432H94.371V431.6C94.6377 431.461 94.9897 431.333 95.427 431.216V424.928L94.371 424.8V424.384C94.6483 424.267 94.9683 424.16 95.331 424.064C95.6937 423.968 96.0723 423.883 96.467 423.808H96.867V425.6H96.883C97.107 425.109 97.427 424.688 97.843 424.336C98.2697 423.984 98.7817 423.808 99.379 423.808C99.8057 423.808 100.184 423.861 100.515 423.968C100.856 424.064 101.139 424.24 101.363 424.496C101.587 424.752 101.758 425.099 101.875 425.536C101.992 425.963 102.051 426.507 102.051 427.168V431.216C102.478 431.291 102.83 431.419 103.107 431.6V432ZM108.748 421.088L107.532 420.96V420.544C107.862 420.405 108.23 420.293 108.636 420.208C109.052 420.123 109.436 420.043 109.788 419.968H110.188V425.584H110.22C110.401 425.04 110.705 424.608 111.132 424.288C111.569 423.968 112.049 423.808 112.572 423.808C113.542 423.808 114.284 424.139 114.796 424.8C115.318 425.461 115.58 426.48 115.58 427.856C115.58 429.264 115.222 430.331 114.508 431.056C113.804 431.781 112.785 432.144 111.452 432.144C111.185 432.144 110.918 432.123 110.652 432.08C110.385 432.048 110.129 432.005 109.884 431.952C109.638 431.899 109.414 431.835 109.212 431.76C109.02 431.685 108.865 431.611 108.748 431.536V421.088ZM112.14 424.8C111.628 424.8 111.212 424.976 110.892 425.328C110.572 425.669 110.337 426.107 110.188 426.64V431.104C110.38 431.211 110.614 431.296 110.892 431.36C111.169 431.413 111.462 431.44 111.772 431.44C112.476 431.44 113.03 431.136 113.436 430.528C113.841 429.909 114.044 429.019 114.044 427.856C114.044 427.44 114.006 427.045 113.932 426.672C113.868 426.299 113.756 425.973 113.596 425.696C113.446 425.419 113.249 425.2 113.004 425.04C112.769 424.88 112.481 424.8 112.14 424.8ZM123.495 430.88C123.41 431.061 123.277 431.232 123.095 431.392C122.914 431.552 122.706 431.691 122.471 431.808C122.237 431.925 121.981 432.016 121.703 432.08C121.426 432.155 121.143 432.192 120.855 432.192C120.226 432.192 119.671 432.096 119.191 431.904C118.711 431.701 118.311 431.419 117.991 431.056C117.671 430.683 117.426 430.24 117.255 429.728C117.095 429.216 117.015 428.64 117.015 428C117.015 426.635 117.33 425.595 117.959 424.88C118.589 424.165 119.479 423.808 120.631 423.808C121.005 423.808 121.373 423.861 121.735 423.968C122.098 424.064 122.418 424.229 122.695 424.464C122.983 424.699 123.213 425.013 123.383 425.408C123.565 425.792 123.655 426.272 123.655 426.848C123.655 427.029 123.645 427.216 123.623 427.408C123.613 427.589 123.586 427.787 123.543 428H118.551C118.551 428.448 118.605 428.869 118.711 429.264C118.829 429.648 118.999 429.984 119.223 430.272C119.447 430.56 119.73 430.789 120.071 430.96C120.413 431.12 120.813 431.2 121.271 431.2C121.645 431.2 122.023 431.147 122.407 431.04C122.791 430.933 123.079 430.795 123.271 430.624L123.495 430.88ZM120.567 424.512C119.959 424.512 119.495 424.72 119.175 425.136C118.855 425.541 118.663 426.261 118.599 427.296H122.119C122.13 427.2 122.135 427.109 122.135 427.024C122.146 426.928 122.151 426.837 122.151 426.752C122.151 426.069 122.023 425.525 121.767 425.12C121.511 424.715 121.111 424.512 120.567 424.512ZM129.779 428.832C129.779 428.16 129.795 427.504 129.827 426.864C129.859 426.213 129.875 425.568 129.875 424.928L128.819 424.8V424.384C129.16 424.256 129.507 424.144 129.859 424.048C130.222 423.952 130.574 423.872 130.915 423.808H131.315C131.315 424.608 131.299 425.403 131.267 426.192C131.235 426.981 131.219 427.765 131.219 428.544C131.219 428.96 131.24 429.333 131.283 429.664C131.336 429.995 131.422 430.272 131.539 430.496C131.667 430.72 131.838 430.896 132.051 431.024C132.264 431.141 132.536 431.2 132.867 431.2C133.347 431.2 133.747 431.029 134.067 430.688C134.398 430.336 134.654 429.883 134.835 429.328V424.928L133.795 424.8V424.384C134.126 424.256 134.467 424.144 134.819 424.048C135.182 423.952 135.534 423.872 135.875 423.808H136.275V431.088L137.331 431.216V431.552C137.022 431.691 136.707 431.813 136.387 431.92C136.078 432.027 135.752 432.107 135.411 432.16H135.011L134.899 430.256H134.835C134.782 430.48 134.686 430.709 134.547 430.944C134.419 431.168 134.248 431.376 134.035 431.568C133.822 431.749 133.576 431.899 133.299 432.016C133.032 432.133 132.739 432.192 132.419 432.192C131.992 432.192 131.614 432.139 131.283 432.032C130.963 431.936 130.691 431.76 130.467 431.504C130.243 431.248 130.072 430.907 129.955 430.48C129.838 430.043 129.779 429.493 129.779 428.832ZM142.579 430.176C142.579 429.877 142.483 429.627 142.291 429.424C142.11 429.211 141.875 429.013 141.587 428.832C141.299 428.651 140.99 428.475 140.659 428.304C140.339 428.133 140.035 427.936 139.747 427.712C139.459 427.477 139.219 427.211 139.027 426.912C138.846 426.613 138.755 426.245 138.755 425.808C138.755 425.52 138.819 425.253 138.947 425.008C139.086 424.763 139.267 424.555 139.491 424.384C139.715 424.203 139.977 424.064 140.275 423.968C140.574 423.861 140.894 423.808 141.235 423.808C141.811 423.808 142.281 423.84 142.643 423.904C143.017 423.968 143.374 424.059 143.715 424.176C143.673 424.517 143.619 424.864 143.555 425.216C143.502 425.557 143.422 425.909 143.315 426.272H142.915L142.307 424.64C142.179 424.587 142.035 424.555 141.875 424.544C141.715 424.523 141.55 424.512 141.379 424.512C141.187 424.512 141.017 424.549 140.867 424.624C140.729 424.688 140.606 424.773 140.499 424.88C140.403 424.987 140.329 425.109 140.275 425.248C140.222 425.387 140.195 425.525 140.195 425.664C140.195 425.952 140.286 426.203 140.467 426.416C140.659 426.619 140.899 426.811 141.187 426.992C141.475 427.163 141.779 427.333 142.099 427.504C142.43 427.675 142.739 427.867 143.027 428.08C143.315 428.293 143.55 428.544 143.731 428.832C143.923 429.109 144.019 429.445 144.019 429.84C144.019 430.203 143.939 430.528 143.779 430.816C143.63 431.104 143.417 431.349 143.139 431.552C142.873 431.755 142.558 431.909 142.195 432.016C141.843 432.133 141.465 432.192 141.059 432.192C140.601 432.192 140.179 432.149 139.795 432.064C139.411 431.989 139.011 431.877 138.595 431.728C138.617 431.344 138.665 430.976 138.739 430.624C138.814 430.261 138.91 429.915 139.027 429.584H139.427L140.131 431.328C140.249 431.413 140.387 431.461 140.547 431.472C140.718 431.483 140.873 431.488 141.011 431.488C141.481 431.488 141.859 431.36 142.147 431.104C142.435 430.848 142.579 430.539 142.579 430.176ZM152.042 430.88C151.957 431.061 151.824 431.232 151.642 431.392C151.461 431.552 151.253 431.691 151.018 431.808C150.784 431.925 150.528 432.016 150.25 432.08C149.973 432.155 149.69 432.192 149.402 432.192C148.773 432.192 148.218 432.096 147.738 431.904C147.258 431.701 146.858 431.419 146.538 431.056C146.218 430.683 145.973 430.24 145.802 429.728C145.642 429.216 145.562 428.64 145.562 428C145.562 426.635 145.877 425.595 146.506 424.88C147.136 424.165 148.026 423.808 149.178 423.808C149.552 423.808 149.92 423.861 150.282 423.968C150.645 424.064 150.965 424.229 151.242 424.464C151.53 424.699 151.76 425.013 151.93 425.408C152.112 425.792 152.202 426.272 152.202 426.848C152.202 427.029 152.192 427.216 152.17 427.408C152.16 427.589 152.133 427.787 152.09 428H147.098C147.098 428.448 147.152 428.869 147.258 429.264C147.376 429.648 147.546 429.984 147.77 430.272C147.994 430.56 148.277 430.789 148.618 430.96C148.96 431.12 149.36 431.2 149.818 431.2C150.192 431.2 150.57 431.147 150.954 431.04C151.338 430.933 151.626 430.795 151.818 430.624L152.042 430.88ZM149.114 424.512C148.506 424.512 148.042 424.72 147.722 425.136C147.402 425.541 147.21 426.261 147.146 427.296H150.666C150.677 427.2 150.682 427.109 150.682 427.024C150.693 426.928 150.698 426.837 150.698 426.752C150.698 426.069 150.57 425.525 150.314 425.12C150.058 424.715 149.658 424.512 149.114 424.512ZM159.046 430.416C158.993 430.651 158.902 430.875 158.774 431.088C158.646 431.301 158.486 431.493 158.294 431.664C158.113 431.824 157.899 431.952 157.654 432.048C157.419 432.144 157.163 432.192 156.886 432.192C155.83 432.192 155.041 431.856 154.518 431.184C153.995 430.512 153.734 429.467 153.734 428.048C153.734 426.683 154.065 425.643 154.726 424.928C155.398 424.213 156.299 423.856 157.43 423.856C157.825 423.856 158.134 423.877 158.358 423.92C158.582 423.952 158.827 424.016 159.094 424.112V421.088L157.878 420.96V420.544C158.187 420.416 158.545 420.304 158.95 420.208C159.366 420.112 159.761 420.032 160.134 419.968H160.534V431.088L161.59 431.216V431.552C161.281 431.701 160.961 431.829 160.63 431.936C160.299 432.043 159.974 432.117 159.654 432.16H159.254L159.11 430.416H159.046ZM157.206 431.2C157.729 431.2 158.145 431.035 158.454 430.704C158.763 430.373 158.977 429.925 159.094 429.36V424.848C158.913 424.741 158.699 424.667 158.454 424.624C158.209 424.581 157.894 424.56 157.51 424.56C156.785 424.56 156.23 424.88 155.846 425.52C155.462 426.149 155.27 426.992 155.27 428.048C155.27 428.485 155.307 428.896 155.382 429.28C155.457 429.653 155.574 429.984 155.734 430.272C155.894 430.56 156.091 430.789 156.326 430.96C156.571 431.12 156.865 431.2 157.206 431.2ZM170.302 432H166.75V431.6C166.91 431.515 167.075 431.445 167.246 431.392C167.416 431.328 167.603 431.269 167.806 431.216V424.928L166.75 424.8V424.384C167.059 424.256 167.395 424.144 167.758 424.048C168.12 423.952 168.483 423.872 168.846 423.808H169.246V431.216C169.459 431.269 169.651 431.328 169.822 431.392C169.992 431.445 170.152 431.515 170.302 431.6V432ZM167.502 421.28C167.502 420.992 167.592 420.763 167.774 420.592C167.966 420.421 168.216 420.336 168.526 420.336C168.835 420.336 169.08 420.421 169.262 420.592C169.443 420.763 169.534 420.992 169.534 421.28C169.534 421.568 169.443 421.797 169.262 421.968C169.08 422.128 168.835 422.208 168.526 422.208C168.216 422.208 167.966 422.128 167.774 421.968C167.592 421.797 167.502 421.568 167.502 421.28ZM180.263 432H176.823V431.6C177.111 431.451 177.426 431.323 177.767 431.216V427.424C177.767 426.613 177.65 425.973 177.415 425.504C177.181 425.035 176.754 424.8 176.135 424.8C175.869 424.8 175.618 424.848 175.383 424.944C175.159 425.04 174.957 425.173 174.775 425.344C174.605 425.504 174.455 425.691 174.327 425.904C174.199 426.107 174.098 426.32 174.023 426.544V431.216C174.354 431.28 174.674 431.408 174.983 431.6V432H171.527V431.6C171.794 431.461 172.146 431.333 172.583 431.216V424.928L171.527 424.8V424.384C171.805 424.267 172.125 424.16 172.487 424.064C172.85 423.968 173.229 423.883 173.623 423.808H174.023V425.6H174.039C174.263 425.109 174.583 424.688 174.999 424.336C175.426 423.984 175.938 423.808 176.535 423.808C176.962 423.808 177.341 423.861 177.671 423.968C178.013 424.064 178.295 424.24 178.519 424.496C178.743 424.752 178.914 425.099 179.031 425.536C179.149 425.963 179.207 426.507 179.207 427.168V431.216C179.634 431.291 179.986 431.419 180.263 431.6V432ZM187.824 431.152C188.293 431.216 188.752 431.344 189.2 431.536V432H185.136V431.536C185.317 431.451 185.504 431.376 185.696 431.312C185.888 431.248 186.085 431.195 186.288 431.152V421.664C186.053 421.611 185.84 421.552 185.648 421.488C185.456 421.413 185.285 421.339 185.136 421.264V420.8H192.64C192.629 421.216 192.608 421.643 192.576 422.08C192.555 422.517 192.517 422.955 192.464 423.392H192.048L191.392 421.632H187.824V426.176H190.672L191.248 425.168H191.632C191.685 425.648 191.707 426.133 191.696 426.624C191.696 427.104 191.675 427.589 191.632 428.08H191.248L190.672 427.008H187.824V431.152ZM197.708 432H194.156V431.6C194.316 431.515 194.481 431.445 194.652 431.392C194.823 431.328 195.009 431.269 195.212 431.216V424.928L194.156 424.8V424.384C194.465 424.256 194.801 424.144 195.164 424.048C195.527 423.952 195.889 423.872 196.252 423.808H196.652V431.216C196.865 431.269 197.057 431.328 197.228 431.392C197.399 431.445 197.559 431.515 197.708 431.6V432ZM194.908 421.28C194.908 420.992 194.999 420.763 195.18 420.592C195.372 420.421 195.623 420.336 195.932 420.336C196.241 420.336 196.487 420.421 196.668 420.592C196.849 420.763 196.94 420.992 196.94 421.28C196.94 421.568 196.849 421.797 196.668 421.968C196.487 422.128 196.241 422.208 195.932 422.208C195.623 422.208 195.372 422.128 195.18 421.968C194.999 421.797 194.908 421.568 194.908 421.28ZM202.39 423.808C202.966 423.808 203.451 423.867 203.846 423.984C204.24 424.091 204.571 424.261 204.838 424.496C205.467 424.069 206.123 423.76 206.806 423.568C206.891 423.685 206.95 423.829 206.982 424C207.024 424.171 207.046 424.331 207.046 424.48L206.838 424.864H205.158C205.424 425.248 205.558 425.755 205.558 426.384C205.558 427.152 205.286 427.776 204.742 428.256C204.208 428.736 203.424 428.976 202.39 428.976C202.187 428.976 202.022 428.971 201.894 428.96C201.766 428.949 201.622 428.933 201.462 428.912C201.408 429.008 201.344 429.115 201.27 429.232C201.206 429.349 201.174 429.472 201.174 429.6C201.174 429.813 201.296 429.984 201.542 430.112C201.787 430.229 202.091 430.336 202.454 430.432C202.827 430.528 203.227 430.629 203.654 430.736C204.091 430.832 204.496 430.971 204.87 431.152C205.243 431.323 205.552 431.552 205.798 431.84C206.054 432.117 206.187 432.48 206.198 432.928C206.208 433.312 206.118 433.659 205.926 433.968C205.744 434.277 205.488 434.533 205.158 434.736C204.827 434.949 204.427 435.109 203.958 435.216C203.499 435.333 202.992 435.392 202.438 435.392C201.275 435.392 200.395 435.195 199.798 434.8C199.211 434.405 198.918 433.909 198.918 433.312C198.918 433.024 198.96 432.773 199.046 432.56C199.142 432.347 199.275 432.16 199.446 432C199.616 431.84 199.83 431.701 200.086 431.584C200.342 431.456 200.635 431.339 200.966 431.232C200.731 431.125 200.534 430.981 200.374 430.8C200.224 430.608 200.15 430.379 200.15 430.112C200.15 429.867 200.251 429.627 200.454 429.392C200.667 429.147 200.88 428.955 201.094 428.816C200.486 428.656 200.016 428.352 199.686 427.904C199.366 427.456 199.206 426.949 199.206 426.384C199.206 426.021 199.275 425.685 199.414 425.376C199.552 425.056 199.755 424.779 200.022 424.544C200.288 424.309 200.619 424.128 201.014 424C201.408 423.872 201.867 423.808 202.39 423.808ZM204.758 433.296C204.758 432.955 204.64 432.683 204.406 432.48C204.182 432.277 203.899 432.112 203.558 431.984C203.216 431.856 202.848 431.749 202.454 431.664C202.059 431.579 201.691 431.483 201.35 431.376C200.944 431.621 200.678 431.877 200.549 432.144C200.422 432.421 200.358 432.704 200.358 432.992C200.358 433.557 200.56 433.979 200.966 434.256C201.371 434.544 201.958 434.688 202.726 434.688C203.12 434.688 203.446 434.651 203.702 434.576C203.968 434.501 204.176 434.4 204.326 434.272C204.486 434.155 204.598 434.011 204.662 433.84C204.726 433.669 204.758 433.488 204.758 433.296ZM200.646 426.384C200.646 426.64 200.672 426.885 200.726 427.12C200.79 427.344 200.886 427.541 201.014 427.712C201.152 427.883 201.334 428.021 201.558 428.128C201.782 428.224 202.059 428.272 202.39 428.272C203.008 428.272 203.451 428.091 203.718 427.728C203.984 427.365 204.118 426.917 204.118 426.384C204.118 425.808 203.984 425.355 203.718 425.024C203.462 424.683 203.019 424.512 202.39 424.512C201.739 424.512 201.286 424.677 201.03 425.008C200.774 425.328 200.646 425.787 200.646 426.384ZM215.752 432H212.328V431.6C212.435 431.536 212.563 431.472 212.712 431.408C212.872 431.333 213.059 431.269 213.272 431.216V427.52C213.272 427.093 213.251 426.709 213.208 426.368C213.176 426.027 213.107 425.744 213 425.52C212.904 425.285 212.76 425.109 212.568 424.992C212.376 424.864 212.126 424.8 211.816 424.8C211.582 424.8 211.363 424.848 211.16 424.944C210.968 425.04 210.792 425.168 210.632 425.328C210.483 425.488 210.35 425.669 210.232 425.872C210.126 426.075 210.04 426.288 209.976 426.512V431.216C210.147 431.269 210.307 431.328 210.456 431.392C210.616 431.445 210.771 431.515 210.92 431.6V432H207.48V431.6C207.63 431.525 207.795 431.456 207.976 431.392C208.158 431.328 208.344 431.269 208.536 431.216V424.928L207.48 424.8V424.384C207.822 424.235 208.168 424.117 208.52 424.032C208.883 423.936 209.235 423.861 209.576 423.808H209.976V425.616H209.992C210.163 425.115 210.451 424.688 210.856 424.336C211.272 423.984 211.784 423.808 212.392 423.808C212.648 423.808 212.894 423.835 213.128 423.888C213.363 423.941 213.582 424.043 213.784 424.192C213.987 424.331 214.158 424.528 214.296 424.784C214.435 425.04 214.536 425.371 214.6 425.776C214.792 425.189 215.102 424.715 215.528 424.352C215.955 423.989 216.488 423.808 217.128 423.808C217.523 423.808 217.864 423.861 218.152 423.968C218.451 424.064 218.696 424.24 218.888 424.496C219.08 424.752 219.219 425.099 219.304 425.536C219.4 425.973 219.448 426.528 219.448 427.2V431.216C219.811 431.28 220.163 431.408 220.504 431.6V432H217.064V431.6C217.384 431.429 217.699 431.301 218.008 431.216V427.232C218.008 426.848 217.987 426.507 217.944 426.208C217.912 425.909 217.843 425.659 217.736 425.456C217.63 425.243 217.48 425.083 217.288 424.976C217.096 424.859 216.84 424.8 216.52 424.8C216.008 424.8 215.608 424.976 215.32 425.328C215.043 425.68 214.84 426.128 214.712 426.672V431.216C215.086 431.323 215.432 431.451 215.752 431.6V432ZM227.482 429.904C227.482 430.139 227.487 430.341 227.498 430.512C227.509 430.683 227.519 430.864 227.53 431.056L228.634 431.216V431.552C228.367 431.691 228.069 431.813 227.738 431.92C227.418 432.027 227.109 432.107 226.81 432.16H226.41C226.303 431.915 226.239 431.648 226.218 431.36C226.197 431.061 226.181 430.736 226.17 430.384H226.09C226.047 430.597 225.962 430.816 225.834 431.04C225.717 431.253 225.557 431.445 225.354 431.616C225.162 431.787 224.933 431.925 224.666 432.032C224.399 432.139 224.095 432.192 223.754 432.192C223.103 432.192 222.57 431.995 222.154 431.6C221.749 431.205 221.546 430.688 221.546 430.048C221.546 429.557 221.642 429.157 221.834 428.848C222.037 428.528 222.33 428.277 222.714 428.096C223.098 427.915 223.573 427.787 224.138 427.712C224.703 427.627 225.359 427.563 226.106 427.52C226.149 427.061 226.159 426.651 226.138 426.288C226.127 425.915 226.069 425.6 225.962 425.344C225.866 425.077 225.717 424.875 225.514 424.736C225.322 424.587 225.066 424.512 224.746 424.512C224.597 424.512 224.426 424.523 224.234 424.544C224.053 424.555 223.871 424.597 223.69 424.672L222.938 426.592H222.522C222.415 426.272 222.319 425.941 222.234 425.6C222.159 425.259 222.111 424.923 222.09 424.592C222.495 424.347 222.943 424.155 223.434 424.016C223.935 423.877 224.49 423.808 225.098 423.808C225.642 423.808 226.074 423.888 226.394 424.048C226.725 424.197 226.975 424.395 227.146 424.64C227.317 424.885 227.429 425.157 227.482 425.456C227.535 425.755 227.562 426.053 227.562 426.352C227.562 426.992 227.546 427.611 227.514 428.208C227.493 428.795 227.482 429.36 227.482 429.904ZM224.394 431.2C224.661 431.2 224.895 431.147 225.098 431.04C225.301 430.933 225.471 430.805 225.61 430.656C225.749 430.507 225.861 430.357 225.946 430.208C226.031 430.048 226.09 429.915 226.122 429.808V428.128C225.503 428.128 224.997 428.16 224.602 428.224C224.207 428.288 223.898 428.389 223.674 428.528C223.45 428.667 223.295 428.843 223.21 429.056C223.125 429.259 223.082 429.493 223.082 429.76C223.082 430.219 223.199 430.576 223.434 430.832C223.669 431.077 223.989 431.2 224.394 431.2ZM6.56 453.904C6.56 454.139 6.56533 454.341 6.576 454.512C6.58667 454.683 6.59733 454.864 6.608 455.056L7.712 455.216V455.552C7.44533 455.691 7.14667 455.813 6.816 455.92C6.496 456.027 6.18667 456.107 5.888 456.16H5.488C5.38133 455.915 5.31733 455.648 5.296 455.36C5.27467 455.061 5.25867 454.736 5.248 454.384H5.168C5.12533 454.597 5.04 454.816 4.912 455.04C4.79467 455.253 4.63467 455.445 4.432 455.616C4.24 455.787 4.01067 455.925 3.744 456.032C3.47733 456.139 3.17333 456.192 2.832 456.192C2.18133 456.192 1.648 455.995 1.232 455.6C0.826667 455.205 0.624 454.688 0.624 454.048C0.624 453.557 0.72 453.157 0.912 452.848C1.11467 452.528 1.408 452.277 1.792 452.096C2.176 451.915 2.65067 451.787 3.216 451.712C3.78133 451.627 4.43733 451.563 5.184 451.52C5.22667 451.061 5.23733 450.651 5.216 450.288C5.20533 449.915 5.14667 449.6 5.04 449.344C4.944 449.077 4.79467 448.875 4.592 448.736C4.4 448.587 4.144 448.512 3.824 448.512C3.67467 448.512 3.504 448.523 3.312 448.544C3.13067 448.555 2.94933 448.597 2.768 448.672L2.016 450.592H1.6C1.49333 450.272 1.39733 449.941 1.312 449.6C1.23733 449.259 1.18933 448.923 1.168 448.592C1.57333 448.347 2.02133 448.155 2.512 448.016C3.01333 447.877 3.568 447.808 4.176 447.808C4.72 447.808 5.152 447.888 5.472 448.048C5.80267 448.197 6.05333 448.395 6.224 448.64C6.39467 448.885 6.50667 449.157 6.56 449.456C6.61333 449.755 6.64 450.053 6.64 450.352C6.64 450.992 6.624 451.611 6.592 452.208C6.57067 452.795 6.56 453.36 6.56 453.904ZM3.472 455.2C3.73867 455.2 3.97333 455.147 4.176 455.04C4.37867 454.933 4.54933 454.805 4.688 454.656C4.82667 454.507 4.93867 454.357 5.024 454.208C5.10933 454.048 5.168 453.915 5.2 453.808V452.128C4.58133 452.128 4.07467 452.16 3.68 452.224C3.28533 452.288 2.976 452.389 2.752 452.528C2.528 452.667 2.37333 452.843 2.288 453.056C2.20267 453.259 2.16 453.493 2.16 453.76C2.16 454.219 2.27733 454.576 2.512 454.832C2.74667 455.077 3.06667 455.2 3.472 455.2ZM12.9231 454.176C12.9231 453.877 12.8271 453.627 12.6351 453.424C12.4538 453.211 12.2191 453.013 11.9311 452.832C11.6431 452.651 11.3338 452.475 11.0031 452.304C10.6831 452.133 10.3791 451.936 10.0911 451.712C9.80313 451.477 9.56313 451.211 9.37113 450.912C9.18979 450.613 9.09913 450.245 9.09913 449.808C9.09913 449.52 9.16313 449.253 9.29113 449.008C9.42979 448.763 9.61113 448.555 9.83513 448.384C10.0591 448.203 10.3205 448.064 10.6191 447.968C10.9178 447.861 11.2378 447.808 11.5791 447.808C12.1551 447.808 12.6245 447.84 12.9871 447.904C13.3605 447.968 13.7178 448.059 14.0591 448.176C14.0165 448.517 13.9631 448.864 13.8991 449.216C13.8458 449.557 13.7658 449.909 13.6591 450.272H13.2591L12.6511 448.64C12.5231 448.587 12.3791 448.555 12.2191 448.544C12.0591 448.523 11.8938 448.512 11.7231 448.512C11.5311 448.512 11.3605 448.549 11.2111 448.624C11.0725 448.688 10.9498 448.773 10.8431 448.88C10.7471 448.987 10.6725 449.109 10.6191 449.248C10.5658 449.387 10.5391 449.525 10.5391 449.664C10.5391 449.952 10.6298 450.203 10.8111 450.416C11.0031 450.619 11.2431 450.811 11.5311 450.992C11.8191 451.163 12.1231 451.333 12.4431 451.504C12.7738 451.675 13.0831 451.867 13.3711 452.08C13.6591 452.293 13.8938 452.544 14.0751 452.832C14.2671 453.109 14.3631 453.445 14.3631 453.84C14.3631 454.203 14.2831 454.528 14.1231 454.816C13.9738 455.104 13.7605 455.349 13.4831 455.552C13.2165 455.755 12.9018 455.909 12.5391 456.016C12.1871 456.133 11.8085 456.192 11.4031 456.192C10.9445 456.192 10.5231 456.149 10.1391 456.064C9.75513 455.989 9.35513 455.877 8.93913 455.728C8.96046 455.344 9.00846 454.976 9.08313 454.624C9.15779 454.261 9.25379 453.915 9.37113 453.584H9.77113L10.4751 455.328C10.5925 455.413 10.7311 455.461 10.8911 455.472C11.0618 455.483 11.2165 455.488 11.3551 455.488C11.8245 455.488 12.2031 455.36 12.4911 455.104C12.7791 454.848 12.9231 454.539 12.9231 454.176ZM25.8256 453.904C25.8256 454.139 25.831 454.341 25.8416 454.512C25.8523 454.683 25.863 454.864 25.8736 455.056L26.9776 455.216V455.552C26.711 455.691 26.4123 455.813 26.0816 455.92C25.7616 456.027 25.4523 456.107 25.1536 456.16H24.7536C24.647 455.915 24.583 455.648 24.5616 455.36C24.5403 455.061 24.5243 454.736 24.5136 454.384H24.4336C24.391 454.597 24.3056 454.816 24.1776 455.04C24.0603 455.253 23.9003 455.445 23.6976 455.616C23.5056 455.787 23.2763 455.925 23.0096 456.032C22.743 456.139 22.439 456.192 22.0976 456.192C21.447 456.192 20.9136 455.995 20.4976 455.6C20.0923 455.205 19.8896 454.688 19.8896 454.048C19.8896 453.557 19.9856 453.157 20.1776 452.848C20.3803 452.528 20.6736 452.277 21.0576 452.096C21.4416 451.915 21.9163 451.787 22.4816 451.712C23.047 451.627 23.703 451.563 24.4496 451.52C24.4923 451.061 24.503 450.651 24.4816 450.288C24.471 449.915 24.4123 449.6 24.3056 449.344C24.2096 449.077 24.0603 448.875 23.8576 448.736C23.6656 448.587 23.4096 448.512 23.0896 448.512C22.9403 448.512 22.7696 448.523 22.5776 448.544C22.3963 448.555 22.215 448.597 22.0336 448.672L21.2816 450.592H20.8656C20.759 450.272 20.663 449.941 20.5776 449.6C20.503 449.259 20.455 448.923 20.4336 448.592C20.839 448.347 21.287 448.155 21.7776 448.016C22.279 447.877 22.8336 447.808 23.4416 447.808C23.9856 447.808 24.4176 447.888 24.7376 448.048C25.0683 448.197 25.319 448.395 25.4896 448.64C25.6603 448.885 25.7723 449.157 25.8256 449.456C25.879 449.755 25.9056 450.053 25.9056 450.352C25.9056 450.992 25.8896 451.611 25.8576 452.208C25.8363 452.795 25.8256 453.36 25.8256 453.904ZM22.7376 455.2C23.0043 455.2 23.239 455.147 23.4416 455.04C23.6443 454.933 23.815 454.805 23.9536 454.656C24.0923 454.507 24.2043 454.357 24.2896 454.208C24.375 454.048 24.4336 453.915 24.4656 453.808V452.128C23.847 452.128 23.3403 452.16 22.9456 452.224C22.551 452.288 22.2416 452.389 22.0176 452.528C21.7936 452.667 21.639 452.843 21.5536 453.056C21.4683 453.259 21.4256 453.493 21.4256 453.76C21.4256 454.219 21.543 454.576 21.7776 454.832C22.0123 455.077 22.3323 455.2 22.7376 455.2ZM35.2924 456.192L32.1724 448.8C31.863 448.693 31.5804 448.565 31.3244 448.416V448H34.6684V448.4C34.5297 448.475 34.3857 448.549 34.2364 448.624C34.0977 448.688 33.9377 448.747 33.7564 448.8L35.6124 453.616L35.9324 454.608H35.9644L36.2044 453.6L37.9164 448.8C37.7457 448.757 37.5857 448.704 37.4364 448.64C37.2977 448.576 37.1644 448.501 37.0364 448.416V448H39.7564V448.416C39.6497 448.491 39.5164 448.56 39.3564 448.624C39.207 448.688 39.0364 448.747 38.8444 448.8L36.0124 456L35.2924 456.192ZM43.9268 456H40.3748V455.6C40.5348 455.515 40.7001 455.445 40.8708 455.392C41.0414 455.328 41.2281 455.269 41.4308 455.216V448.928L40.3748 448.8V448.384C40.6841 448.256 41.0201 448.144 41.3828 448.048C41.7454 447.952 42.1081 447.872 42.4708 447.808H42.8708V455.216C43.0841 455.269 43.2761 455.328 43.4468 455.392C43.6174 455.445 43.7774 455.515 43.9268 455.6V456ZM41.1268 445.28C41.1268 444.992 41.2174 444.763 41.3988 444.592C41.5908 444.421 41.8414 444.336 42.1508 444.336C42.4601 444.336 42.7054 444.421 42.8868 444.592C43.0681 444.763 43.1588 444.992 43.1588 445.28C43.1588 445.568 43.0681 445.797 42.8868 445.968C42.7054 446.128 42.4601 446.208 42.1508 446.208C41.8414 446.208 41.5908 446.128 41.3988 445.968C41.2174 445.797 41.1268 445.568 41.1268 445.28ZM49.3763 454.176C49.3763 453.877 49.2803 453.627 49.0883 453.424C48.9069 453.211 48.6723 453.013 48.3843 452.832C48.0963 452.651 47.7869 452.475 47.4563 452.304C47.1363 452.133 46.8323 451.936 46.5443 451.712C46.2563 451.477 46.0163 451.211 45.8243 450.912C45.6429 450.613 45.5523 450.245 45.5523 449.808C45.5523 449.52 45.6163 449.253 45.7443 449.008C45.8829 448.763 46.0643 448.555 46.2883 448.384C46.5123 448.203 46.7736 448.064 47.0723 447.968C47.3709 447.861 47.6909 447.808 48.0323 447.808C48.6083 447.808 49.0776 447.84 49.4403 447.904C49.8136 447.968 50.1709 448.059 50.5123 448.176C50.4696 448.517 50.4163 448.864 50.3523 449.216C50.2989 449.557 50.2189 449.909 50.1123 450.272H49.7123L49.1043 448.64C48.9763 448.587 48.8323 448.555 48.6723 448.544C48.5123 448.523 48.3469 448.512 48.1763 448.512C47.9843 448.512 47.8136 448.549 47.6643 448.624C47.5256 448.688 47.4029 448.773 47.2963 448.88C47.2003 448.987 47.1256 449.109 47.0723 449.248C47.0189 449.387 46.9923 449.525 46.9923 449.664C46.9923 449.952 47.0829 450.203 47.2643 450.416C47.4563 450.619 47.6963 450.811 47.9843 450.992C48.2723 451.163 48.5763 451.333 48.8963 451.504C49.2269 451.675 49.5363 451.867 49.8243 452.08C50.1123 452.293 50.3469 452.544 50.5283 452.832C50.7203 453.109 50.8163 453.445 50.8163 453.84C50.8163 454.203 50.7363 454.528 50.5763 454.816C50.4269 455.104 50.2136 455.349 49.9363 455.552C49.6696 455.755 49.3549 455.909 48.9923 456.016C48.6403 456.133 48.2616 456.192 47.8563 456.192C47.3976 456.192 46.9763 456.149 46.5923 456.064C46.2083 455.989 45.8083 455.877 45.3923 455.728C45.4136 455.344 45.4616 454.976 45.5363 454.624C45.6109 454.261 45.7069 453.915 45.8243 453.584H46.2243L46.9283 455.328C47.0456 455.413 47.1843 455.461 47.3443 455.472C47.5149 455.483 47.6696 455.488 47.8083 455.488C48.2776 455.488 48.6563 455.36 48.9443 455.104C49.2323 454.848 49.3763 454.539 49.3763 454.176ZM52.9351 452.832C52.9351 452.16 52.9511 451.504 52.9831 450.864C53.0151 450.213 53.0311 449.568 53.0311 448.928L51.9751 448.8V448.384C52.3165 448.256 52.6631 448.144 53.0151 448.048C53.3778 447.952 53.7298 447.872 54.0711 447.808H54.4711C54.4711 448.608 54.4551 449.403 54.4231 450.192C54.3911 450.981 54.3751 451.765 54.3751 452.544C54.3751 452.96 54.3965 453.333 54.4391 453.664C54.4925 453.995 54.5778 454.272 54.6951 454.496C54.8231 454.72 54.9938 454.896 55.2071 455.024C55.4205 455.141 55.6925 455.2 56.0231 455.2C56.5031 455.2 56.9031 455.029 57.2231 454.688C57.5538 454.336 57.8098 453.883 57.9911 453.328V448.928L56.9511 448.8V448.384C57.2818 448.256 57.6231 448.144 57.9751 448.048C58.3378 447.952 58.6898 447.872 59.0311 447.808H59.4311V455.088L60.4871 455.216V455.552C60.1778 455.691 59.8631 455.813 59.5431 455.92C59.2338 456.027 58.9085 456.107 58.5671 456.16H58.1671L58.0551 454.256H57.9911C57.9378 454.48 57.8418 454.709 57.7031 454.944C57.5751 455.168 57.4045 455.376 57.1911 455.568C56.9778 455.749 56.7325 455.899 56.4551 456.016C56.1885 456.133 55.8951 456.192 55.5751 456.192C55.1485 456.192 54.7698 456.139 54.4391 456.032C54.1191 455.936 53.8471 455.76 53.6231 455.504C53.3991 455.248 53.2285 454.907 53.1111 454.48C52.9938 454.043 52.9351 453.493 52.9351 452.832ZM67.5756 453.904C67.5756 454.139 67.581 454.341 67.5916 454.512C67.6023 454.683 67.613 454.864 67.6236 455.056L68.7276 455.216V455.552C68.461 455.691 68.1623 455.813 67.8316 455.92C67.5116 456.027 67.2023 456.107 66.9036 456.16H66.5036C66.397 455.915 66.333 455.648 66.3116 455.36C66.2903 455.061 66.2743 454.736 66.2636 454.384H66.1836C66.141 454.597 66.0556 454.816 65.9276 455.04C65.8103 455.253 65.6503 455.445 65.4476 455.616C65.2556 455.787 65.0263 455.925 64.7596 456.032C64.493 456.139 64.189 456.192 63.8476 456.192C63.197 456.192 62.6636 455.995 62.2476 455.6C61.8423 455.205 61.6396 454.688 61.6396 454.048C61.6396 453.557 61.7356 453.157 61.9276 452.848C62.1303 452.528 62.4236 452.277 62.8076 452.096C63.1916 451.915 63.6663 451.787 64.2316 451.712C64.797 451.627 65.453 451.563 66.1996 451.52C66.2423 451.061 66.253 450.651 66.2316 450.288C66.221 449.915 66.1623 449.6 66.0556 449.344C65.9596 449.077 65.8103 448.875 65.6076 448.736C65.4156 448.587 65.1596 448.512 64.8396 448.512C64.6903 448.512 64.5196 448.523 64.3276 448.544C64.1463 448.555 63.965 448.597 63.7836 448.672L63.0316 450.592H62.6156C62.509 450.272 62.413 449.941 62.3276 449.6C62.253 449.259 62.205 448.923 62.1836 448.592C62.589 448.347 63.037 448.155 63.5276 448.016C64.029 447.877 64.5836 447.808 65.1916 447.808C65.7356 447.808 66.1676 447.888 66.4876 448.048C66.8183 448.197 67.069 448.395 67.2396 448.64C67.4103 448.885 67.5223 449.157 67.5756 449.456C67.629 449.755 67.6556 450.053 67.6556 450.352C67.6556 450.992 67.6396 451.611 67.6076 452.208C67.5863 452.795 67.5756 453.36 67.5756 453.904ZM64.4876 455.2C64.7543 455.2 64.989 455.147 65.1916 455.04C65.3943 454.933 65.565 454.805 65.7036 454.656C65.8423 454.507 65.9543 454.357 66.0396 454.208C66.125 454.048 66.1836 453.915 66.2156 453.808V452.128C65.597 452.128 65.0903 452.16 64.6956 452.224C64.301 452.288 63.9916 452.389 63.7676 452.528C63.5436 452.667 63.389 452.843 63.3036 453.056C63.2183 453.259 63.1756 453.493 63.1756 453.76C63.1756 454.219 63.293 454.576 63.5276 454.832C63.7623 455.077 64.0823 455.2 64.4876 455.2ZM73.4268 456H69.8748V455.6C70.2268 455.429 70.5788 455.301 70.9308 455.216V445.088L69.7148 444.96V444.544C69.9921 444.416 70.3388 444.304 70.7548 444.208C71.1708 444.112 71.5761 444.032 71.9708 443.968H72.3708V455.216C72.7228 455.301 73.0748 455.429 73.4268 455.6V456ZM85.3079 454.88C85.2225 455.061 85.0892 455.232 84.9079 455.392C84.7265 455.552 84.5185 455.691 84.2839 455.808C84.0492 455.925 83.7932 456.016 83.5159 456.08C83.2385 456.155 82.9559 456.192 82.6679 456.192C82.0385 456.192 81.4839 456.096 81.0039 455.904C80.5239 455.701 80.1239 455.419 79.8039 455.056C79.4839 454.683 79.2385 454.24 79.0679 453.728C78.9079 453.216 78.8279 452.64 78.8279 452C78.8279 450.635 79.1425 449.595 79.7719 448.88C80.4012 448.165 81.2919 447.808 82.4439 447.808C82.8172 447.808 83.1852 447.861 83.5479 447.968C83.9105 448.064 84.2305 448.229 84.5079 448.464C84.7959 448.699 85.0252 449.013 85.1959 449.408C85.3772 449.792 85.4679 450.272 85.4679 450.848C85.4679 451.029 85.4572 451.216 85.4359 451.408C85.4252 451.589 85.3985 451.787 85.3559 452H80.3639C80.3639 452.448 80.4172 452.869 80.5239 453.264C80.6412 453.648 80.8119 453.984 81.0359 454.272C81.2599 454.56 81.5425 454.789 81.8839 454.96C82.2252 455.12 82.6252 455.2 83.0839 455.2C83.4572 455.2 83.8359 455.147 84.2199 455.04C84.6039 454.933 84.8919 454.795 85.0839 454.624L85.3079 454.88ZM82.3799 448.512C81.7719 448.512 81.3079 448.72 80.9879 449.136C80.6679 449.541 80.4759 450.261 80.4119 451.296H83.9319C83.9425 451.2 83.9479 451.109 83.9479 451.024C83.9585 450.928 83.9639 450.837 83.9639 450.752C83.9639 450.069 83.8359 449.525 83.5799 449.12C83.3239 448.715 82.9239 448.512 82.3799 448.512ZM92.2958 454.576C92.1464 455.003 91.8851 455.381 91.5118 455.712C91.1384 456.032 90.6638 456.192 90.0878 456.192C89.0638 456.192 88.2904 455.856 87.7678 455.184C87.2558 454.501 86.9998 453.456 86.9998 452.048C86.9998 450.661 87.3411 449.616 88.0238 448.912C88.7171 448.208 89.7091 447.856 90.9998 447.856C91.5758 447.856 92.1251 447.909 92.6478 448.016C93.1704 448.123 93.5544 448.235 93.7998 448.352V458.416C93.9811 458.448 94.1571 458.491 94.3278 458.544C94.4984 458.608 94.6744 458.693 94.8558 458.8V459.2H91.3038V458.8C91.6344 458.629 91.9864 458.501 92.3598 458.416V454.576H92.2958ZM90.4718 455.2C90.9944 455.2 91.4051 455.035 91.7038 454.704C92.0131 454.373 92.2318 453.931 92.3598 453.376V448.784C92.1678 448.72 91.9384 448.667 91.6718 448.624C91.4158 448.581 91.1171 448.56 90.7758 448.56C90.0611 448.56 89.5064 448.837 89.1118 449.392C88.7278 449.947 88.5358 450.821 88.5358 452.016C88.5358 452.464 88.5678 452.88 88.6318 453.264C88.6958 453.648 88.8024 453.984 88.9518 454.272C89.1118 454.56 89.3144 454.789 89.5598 454.96C89.8051 455.12 90.1091 455.2 90.4718 455.2ZM96.4664 452.832C96.4664 452.16 96.4824 451.504 96.5144 450.864C96.5464 450.213 96.5624 449.568 96.5624 448.928L95.5064 448.8V448.384C95.8477 448.256 96.1944 448.144 96.5464 448.048C96.909 447.952 97.261 447.872 97.6024 447.808H98.0024C98.0024 448.608 97.9864 449.403 97.9544 450.192C97.9224 450.981 97.9064 451.765 97.9064 452.544C97.9064 452.96 97.9277 453.333 97.9704 453.664C98.0237 453.995 98.109 454.272 98.2264 454.496C98.3544 454.72 98.525 454.896 98.7384 455.024C98.9517 455.141 99.2237 455.2 99.5544 455.2C100.034 455.2 100.434 455.029 100.754 454.688C101.085 454.336 101.341 453.883 101.522 453.328V448.928L100.482 448.8V448.384C100.813 448.256 101.154 448.144 101.506 448.048C101.869 447.952 102.221 447.872 102.562 447.808H102.962V455.088L104.018 455.216V455.552C103.709 455.691 103.394 455.813 103.074 455.92C102.765 456.027 102.44 456.107 102.098 456.16H101.698L101.586 454.256H101.522C101.469 454.48 101.373 454.709 101.234 454.944C101.106 455.168 100.936 455.376 100.722 455.568C100.509 455.749 100.264 455.899 99.9864 456.016C99.7197 456.133 99.4264 456.192 99.1064 456.192C98.6797 456.192 98.301 456.139 97.9704 456.032C97.6504 455.936 97.3784 455.76 97.1544 455.504C96.9304 455.248 96.7597 454.907 96.6424 454.48C96.525 454.043 96.4664 453.493 96.4664 452.832ZM108.755 456H105.203V455.6C105.363 455.515 105.528 455.445 105.699 455.392C105.87 455.328 106.056 455.269 106.259 455.216V448.928L105.203 448.8V448.384C105.512 448.256 105.848 448.144 106.211 448.048C106.574 447.952 106.936 447.872 107.299 447.808H107.699V455.216C107.912 455.269 108.104 455.328 108.275 455.392C108.446 455.445 108.606 455.515 108.755 455.6V456ZM105.955 445.28C105.955 444.992 106.046 444.763 106.227 444.592C106.419 444.421 106.67 444.336 106.979 444.336C107.288 444.336 107.534 444.421 107.715 444.592C107.896 444.763 107.987 444.992 107.987 445.28C107.987 445.568 107.896 445.797 107.715 445.968C107.534 446.128 107.288 446.208 106.979 446.208C106.67 446.208 106.419 446.128 106.227 445.968C106.046 445.797 105.955 445.568 105.955 445.28ZM113.292 456.192L110.172 448.8C109.863 448.693 109.58 448.565 109.324 448.416V448H112.668V448.4C112.53 448.475 112.386 448.549 112.236 448.624C112.098 448.688 111.938 448.747 111.756 448.8L113.612 453.616L113.932 454.608H113.964L114.204 453.6L115.916 448.8C115.746 448.757 115.586 448.704 115.436 448.64C115.298 448.576 115.164 448.501 115.036 448.416V448H117.756V448.416C117.65 448.491 117.516 448.56 117.356 448.624C117.207 448.688 117.036 448.747 116.844 448.8L114.012 456L113.292 456.192ZM124.279 453.904C124.279 454.139 124.284 454.341 124.295 454.512C124.305 454.683 124.316 454.864 124.327 455.056L125.431 455.216V455.552C125.164 455.691 124.865 455.813 124.535 455.92C124.215 456.027 123.905 456.107 123.607 456.16H123.207C123.1 455.915 123.036 455.648 123.015 455.36C122.993 455.061 122.977 454.736 122.967 454.384H122.887C122.844 454.597 122.759 454.816 122.631 455.04C122.513 455.253 122.353 455.445 122.151 455.616C121.959 455.787 121.729 455.925 121.463 456.032C121.196 456.139 120.892 456.192 120.551 456.192C119.9 456.192 119.367 455.995 118.951 455.6C118.545 455.205 118.343 454.688 118.343 454.048C118.343 453.557 118.439 453.157 118.631 452.848C118.833 452.528 119.127 452.277 119.511 452.096C119.895 451.915 120.369 451.787 120.935 451.712C121.5 451.627 122.156 451.563 122.903 451.52C122.945 451.061 122.956 450.651 122.935 450.288C122.924 449.915 122.865 449.6 122.759 449.344C122.663 449.077 122.513 448.875 122.311 448.736C122.119 448.587 121.863 448.512 121.543 448.512C121.393 448.512 121.223 448.523 121.031 448.544C120.849 448.555 120.668 448.597 120.487 448.672L119.735 450.592H119.319C119.212 450.272 119.116 449.941 119.031 449.6C118.956 449.259 118.908 448.923 118.887 448.592C119.292 448.347 119.74 448.155 120.231 448.016C120.732 447.877 121.287 447.808 121.895 447.808C122.439 447.808 122.871 447.888 123.191 448.048C123.521 448.197 123.772 448.395 123.943 448.64C124.113 448.885 124.225 449.157 124.279 449.456C124.332 449.755 124.359 450.053 124.359 450.352C124.359 450.992 124.343 451.611 124.311 452.208C124.289 452.795 124.279 453.36 124.279 453.904ZM121.191 455.2C121.457 455.2 121.692 455.147 121.895 455.04C122.097 454.933 122.268 454.805 122.407 454.656C122.545 454.507 122.657 454.357 122.743 454.208C122.828 454.048 122.887 453.915 122.919 453.808V452.128C122.3 452.128 121.793 452.16 121.399 452.224C121.004 452.288 120.695 452.389 120.471 452.528C120.247 452.667 120.092 452.843 120.007 453.056C119.921 453.259 119.879 453.493 119.879 453.76C119.879 454.219 119.996 454.576 120.231 454.832C120.465 455.077 120.785 455.2 121.191 455.2ZM130.13 456H126.578V455.6C126.93 455.429 127.282 455.301 127.634 455.216V445.088L126.418 444.96V444.544C126.695 444.416 127.042 444.304 127.458 444.208C127.874 444.112 128.279 444.032 128.674 443.968H129.074V455.216C129.426 455.301 129.778 455.429 130.13 455.6V456ZM137.995 454.88C137.91 455.061 137.777 455.232 137.595 455.392C137.414 455.552 137.206 455.691 136.971 455.808C136.737 455.925 136.481 456.016 136.203 456.08C135.926 456.155 135.643 456.192 135.355 456.192C134.726 456.192 134.171 456.096 133.691 455.904C133.211 455.701 132.811 455.419 132.491 455.056C132.171 454.683 131.926 454.24 131.755 453.728C131.595 453.216 131.515 452.64 131.515 452C131.515 450.635 131.83 449.595 132.459 448.88C133.089 448.165 133.979 447.808 135.131 447.808C135.505 447.808 135.873 447.861 136.235 447.968C136.598 448.064 136.918 448.229 137.195 448.464C137.483 448.699 137.713 449.013 137.883 449.408C138.065 449.792 138.155 450.272 138.155 450.848C138.155 451.029 138.145 451.216 138.123 451.408C138.113 451.589 138.086 451.787 138.043 452H133.051C133.051 452.448 133.105 452.869 133.211 453.264C133.329 453.648 133.499 453.984 133.723 454.272C133.947 454.56 134.23 454.789 134.571 454.96C134.913 455.12 135.313 455.2 135.771 455.2C136.145 455.2 136.523 455.147 136.907 455.04C137.291 454.933 137.579 454.795 137.771 454.624L137.995 454.88ZM135.067 448.512C134.459 448.512 133.995 448.72 133.675 449.136C133.355 449.541 133.163 450.261 133.099 451.296H136.619C136.63 451.2 136.635 451.109 136.635 451.024C136.646 450.928 136.651 450.837 136.651 450.752C136.651 450.069 136.523 449.525 136.267 449.12C136.011 448.715 135.611 448.512 135.067 448.512ZM148.263 456H144.823V455.6C145.111 455.451 145.426 455.323 145.767 455.216V451.424C145.767 450.613 145.65 449.973 145.415 449.504C145.181 449.035 144.754 448.8 144.135 448.8C143.869 448.8 143.618 448.848 143.383 448.944C143.159 449.04 142.957 449.173 142.775 449.344C142.605 449.504 142.455 449.691 142.327 449.904C142.199 450.107 142.098 450.32 142.023 450.544V455.216C142.354 455.28 142.674 455.408 142.983 455.6V456H139.527V455.6C139.794 455.461 140.146 455.333 140.583 455.216V448.928L139.527 448.8V448.384C139.805 448.267 140.125 448.16 140.487 448.064C140.85 447.968 141.229 447.883 141.623 447.808H142.023V449.6H142.039C142.263 449.109 142.583 448.688 142.999 448.336C143.426 447.984 143.938 447.808 144.535 447.808C144.962 447.808 145.341 447.861 145.671 447.968C146.013 448.064 146.295 448.24 146.519 448.496C146.743 448.752 146.914 449.099 147.031 449.536C147.149 449.963 147.207 450.507 147.207 451.168V455.216C147.634 455.291 147.986 455.419 148.263 455.6V456ZM148.896 448.384C149.302 448.128 149.728 447.947 150.176 447.84V446.48C150.315 446.373 150.475 446.272 150.656 446.176C150.848 446.069 151.035 445.979 151.216 445.904H151.616V448H154.016V448.8H151.616V453.44C151.616 454.08 151.718 454.533 151.92 454.8C152.123 455.067 152.427 455.2 152.832 455.2C153.024 455.2 153.264 455.189 153.552 455.168C153.84 455.136 154.086 455.083 154.288 455.008L154.4 455.248C154.315 455.344 154.192 455.445 154.032 455.552C153.883 455.659 153.707 455.76 153.504 455.856C153.312 455.952 153.099 456.032 152.864 456.096C152.63 456.16 152.39 456.192 152.144 456.192C151.504 456.192 151.014 456.011 150.672 455.648C150.342 455.285 150.176 454.699 150.176 453.888V448.8H148.896V448.384ZM155.855 455.088C155.855 454.768 155.956 454.512 156.159 454.32C156.361 454.128 156.623 454.032 156.943 454.032C157.273 454.032 157.54 454.128 157.743 454.32C157.945 454.512 158.047 454.768 158.047 455.088C158.047 455.397 157.945 455.648 157.743 455.84C157.54 456.032 157.273 456.128 156.943 456.128C156.623 456.128 156.361 456.032 156.159 455.84C155.956 455.648 155.855 455.397 155.855 455.088Z" fill="#222222"/>
</svg>
