<svg width="1440" height="1055" viewBox="0 0 1440 1055" fill="none" xmlns="http://www.w3.org/2000/svg">
<rect width="1440" height="1055" fill="white"/>
<rect y="151" width="1440" height="753" fill="#003E51"/>
<rect x="3" y="148" width="1434" height="759" stroke="#FF8787" stroke-width="6" stroke-dasharray="12 12"/>
<path d="M548.673 524.546C555.771 524.546 558.711 521.648 558.711 517.028C558.711 513.416 556.989 510.686 549.471 509.3C544.179 508.334 543.213 507.074 543.213 505.268C543.213 503.252 544.725 502.076 547.917 502.076C551.445 502.076 552.705 503.63 553.377 506.612L558.123 505.688C557.283 501.278 554.637 498.254 548.169 498.254C541.701 498.254 538.509 501.026 538.509 505.52C538.509 509.468 540.693 512.114 547.581 513.248C552.537 514.088 553.923 515.18 553.923 517.322C553.923 519.38 552.327 520.64 548.841 520.64C545.019 520.64 542.751 518.918 542.121 515.348L537.543 516.314C538.173 520.976 541.071 524.504 548.673 524.546ZM563.057 524H581.201V519.842H567.845V513.29H579.983V509.174H567.845V502.958H581.243V498.8H563.057V524ZM596.461 524.546C603.139 524.546 607.171 520.85 608.011 514.76L603.475 513.92C602.635 518.12 600.703 520.388 596.461 520.388C591.379 520.388 589.111 516.902 589.111 511.358C589.111 506.192 591.379 502.454 596.503 502.454C600.493 502.454 602.593 504.68 603.349 508.754L607.927 507.872C607.045 501.824 603.097 498.254 596.587 498.254C589.027 498.254 584.323 503.21 584.323 511.358C584.323 519.506 588.733 524.546 596.461 524.546ZM609.584 503.21H617.354V524H622.142V503.21H629.912V498.8H609.584V503.21ZM638.216 524V498.8H633.428V524H638.216ZM655.031 524.546C663.095 524.546 667.631 519.296 667.631 511.316C667.631 503.378 662.969 498.254 655.031 498.254C647.135 498.254 642.431 503.378 642.431 511.316C642.431 519.296 646.925 524.546 655.031 524.546ZM654.989 520.388C649.571 520.388 647.177 516.776 647.177 511.316C647.177 506.024 649.613 502.454 655.031 502.454C660.407 502.454 662.843 506.024 662.843 511.316C662.843 516.818 660.449 520.388 654.989 520.388ZM687.422 524H693.722V498.8H689.312V507.536C689.312 510.854 689.522 515.474 689.774 519.044L689.018 519.086C687.884 516.188 685.994 511.946 684.146 508.67L678.602 498.8H671.756V524H676.25V515.348C676.25 512.03 676.04 506.738 675.788 503.084L676.544 503C677.804 506.024 679.568 509.972 680.954 512.534L687.422 524ZM718.419 524.546C725.097 524.546 729.129 520.85 729.969 514.76L725.433 513.92C724.593 518.12 722.661 520.388 718.419 520.388C713.337 520.388 711.069 516.902 711.069 511.358C711.069 506.192 713.337 502.454 718.461 502.454C722.451 502.454 724.551 504.68 725.307 508.754L729.885 507.872C729.003 501.824 725.055 498.254 718.545 498.254C710.985 498.254 706.281 503.21 706.281 511.358C706.281 519.506 710.691 524.546 718.419 524.546ZM745.469 524.546C753.533 524.546 758.069 519.296 758.069 511.316C758.069 503.378 753.407 498.254 745.469 498.254C737.573 498.254 732.869 503.378 732.869 511.316C732.869 519.296 737.363 524.546 745.469 524.546ZM745.427 520.388C740.009 520.388 737.615 516.776 737.615 511.316C737.615 506.024 740.051 502.454 745.469 502.454C750.845 502.454 753.281 506.024 753.281 511.316C753.281 516.818 750.887 520.388 745.427 520.388ZM777.86 524H784.16V498.8H779.75V507.536C779.75 510.854 779.96 515.474 780.212 519.044L779.456 519.086C778.322 516.188 776.432 511.946 774.584 508.67L769.04 498.8H762.194V524H766.688V515.348C766.688 512.03 766.478 506.738 766.226 503.084L766.982 503C768.242 506.024 770.006 509.972 771.392 512.534L777.86 524ZM787.711 503.21H795.481V524H800.269V503.21H808.039V498.8H787.711V503.21ZM811.556 524H829.7V519.842H816.344V513.29H828.482V509.174H816.344V502.958H829.742V498.8H811.556V524ZM850.282 524H856.582V498.8H852.172V507.536C852.172 510.854 852.382 515.474 852.634 519.044L851.878 519.086C850.744 516.188 848.854 511.946 847.006 508.67L841.462 498.8H834.616V524H839.11V515.348C839.11 512.03 838.9 506.738 838.648 503.084L839.404 503C840.664 506.024 842.428 509.972 843.814 512.534L850.282 524ZM860.133 503.21H867.903V524H872.691V503.21H880.461V498.8H860.133V503.21ZM893.105 524.546C900.203 524.546 903.143 521.648 903.143 517.028C903.143 513.416 901.421 510.686 893.903 509.3C888.611 508.334 887.645 507.074 887.645 505.268C887.645 503.252 889.157 502.076 892.349 502.076C895.877 502.076 897.137 503.63 897.809 506.612L902.555 505.688C901.715 501.278 899.069 498.254 892.601 498.254C886.133 498.254 882.941 501.026 882.941 505.52C882.941 509.468 885.125 512.114 892.013 513.248C896.969 514.088 898.355 515.18 898.355 517.322C898.355 519.38 896.759 520.64 893.273 520.64C889.451 520.64 887.183 518.918 886.553 515.348L881.975 516.314C882.605 520.976 885.503 524.504 893.105 524.546Z" fill="white"/>
<path d="M536.076 560V543.2H533.5V550.564H524.54V543.2H521.964V560H524.54V552.748H533.5V560H536.076ZM546.031 548.38C548.523 548.38 549.531 549.808 549.587 552.496H542.167C542.419 549.724 543.707 548.38 546.031 548.38ZM546.143 560.308C549.587 560.308 551.099 558.824 551.715 556.444L549.643 555.856C549.223 557.256 548.523 558.404 546.171 558.404C543.595 558.404 542.307 556.892 542.167 554.092H551.771C551.827 553.532 551.855 552.916 551.855 552.524C551.855 548.912 550.007 546.588 546.115 546.588C542.139 546.588 539.731 549.192 539.731 553.56C539.731 557.928 542.111 560.308 546.143 560.308ZM559 558.404C557.096 558.404 556.452 557.536 556.452 556.444C556.452 555.016 557.46 554.316 559.252 554.316H563.032V555.128C563.032 557.032 561.408 558.404 559 558.404ZM563.256 560H565.44V551.404C565.44 548.268 563.872 546.588 560.204 546.588C557.376 546.588 555.444 547.96 554.8 549.948L557.068 550.732C557.516 549.416 558.496 548.548 560.148 548.548C562.304 548.548 563.032 549.584 563.032 551.432V552.832H558.86C555.612 552.832 554.184 554.456 554.184 556.696C554.184 559.272 555.724 560.28 558.104 560.28C560.54 560.28 562.08 558.992 562.864 557.088H563.256V560ZM574.609 558.236C572.229 558.236 571.137 556.836 571.137 553.504C571.137 550.144 572.257 548.8 574.581 548.8C576.821 548.8 578.277 550.396 578.277 552.636V554.456C578.277 556.612 576.793 558.236 574.609 558.236ZM578.277 560H580.685V541.24H578.277V550.004H577.941C577.185 548.1 575.785 546.588 573.489 546.588C570.493 546.588 568.757 548.884 568.757 553.532C568.757 558.124 570.549 560.336 573.349 560.336C575.589 560.336 577.213 558.768 577.969 556.836H578.277V560ZM587.838 541.24H585.402V560H587.838V541.24ZM595.218 543.872V541.576H592.418V543.872H595.218ZM595.05 560V546.924H592.614V560H595.05ZM602.011 552.804C602.011 550.536 603.747 548.8 606.183 548.8C608.003 548.8 608.731 549.836 608.731 551.656V560H611.167V551.096C611.167 548.184 609.683 546.588 607.219 546.588C605.007 546.588 603.215 548.184 602.347 550.172H601.899V546.924H599.575V560H602.011V552.804ZM620.722 548.38C623.214 548.38 624.222 549.808 624.278 552.496H616.858C617.11 549.724 618.398 548.38 620.722 548.38ZM620.834 560.308C624.278 560.308 625.79 558.824 626.406 556.444L624.334 555.856C623.914 557.256 623.214 558.404 620.862 558.404C618.286 558.404 616.998 556.892 616.858 554.092H626.462C626.518 553.532 626.546 552.916 626.546 552.524C626.546 548.912 624.698 546.588 620.806 546.588C616.83 546.588 614.422 549.192 614.422 553.56C614.422 557.928 616.802 560.308 620.834 560.308ZM634.979 560.336C638.731 560.336 640.159 558.796 640.159 556.472C640.159 554.344 638.927 553.14 635.035 552.44C632.571 552.02 631.871 551.264 631.871 550.228C631.871 549.024 632.739 548.352 634.587 548.352C636.267 548.352 637.191 548.884 637.611 550.564L639.711 550.144C639.179 548.016 638.171 546.588 634.643 546.588C631.283 546.588 629.603 548.072 629.603 550.396C629.603 552.496 630.835 553.672 634.167 554.288C636.855 554.736 637.807 555.24 637.807 556.584C637.807 557.928 636.855 558.544 635.007 558.544C632.543 558.544 631.507 557.452 631.087 555.856L628.931 556.304C629.463 558.796 630.891 560.336 634.979 560.336ZM642.908 556.444L640.78 563.808V564.088H642.544L645.4 556.444H642.908ZM661.148 560.28C664.34 560.28 665.964 558.544 666.86 556.388H667.28V560H669.604V551.432H662.38V553.448H667.196C667.14 555.912 666.104 558.18 662.072 558.18C658.376 558.18 656.836 556.108 656.836 551.824C656.836 547.456 658.152 545.076 662.184 545.076C664.928 545.076 666.188 546.252 666.86 548.856L669.268 548.324C668.568 544.712 666.412 542.892 662.128 542.892C656.836 542.892 654.232 546.112 654.232 551.824C654.232 558.124 657.284 560.28 661.148 560.28ZM675.909 560V553.952C675.909 550.648 677.113 549.332 680.277 549.332H680.445V546.644H680.277C678.317 546.644 676.917 547.68 676.105 550.312L675.685 550.284V546.924H673.473V560H675.909ZM687.279 558.404C685.375 558.404 684.731 557.536 684.731 556.444C684.731 555.016 685.739 554.316 687.531 554.316H691.311V555.128C691.311 557.032 689.687 558.404 687.279 558.404ZM691.535 560H693.719V551.404C693.719 548.268 692.151 546.588 688.483 546.588C685.655 546.588 683.723 547.96 683.079 549.948L685.347 550.732C685.795 549.416 686.775 548.548 688.427 548.548C690.583 548.548 691.311 549.584 691.311 551.432V552.832H687.139C683.891 552.832 682.463 554.456 682.463 556.696C682.463 559.272 684.003 560.28 686.383 560.28C688.819 560.28 690.359 558.992 691.143 557.088H691.535V560ZM704.008 558.236C701.824 558.236 700.368 556.612 700.368 554.456V552.636C700.368 550.396 701.796 548.8 704.036 548.8C706.36 548.8 707.48 550.144 707.48 553.504C707.48 556.836 706.388 558.236 704.008 558.236ZM709.86 553.532C709.86 548.884 708.124 546.588 705.128 546.588C702.832 546.588 701.432 548.1 700.676 550.004H700.368V546.924H697.932V564.676H700.368V556.836H700.676C701.432 558.768 703.056 560.336 705.268 560.336C708.068 560.336 709.86 558.124 709.86 553.532ZM715.701 552.804C715.701 550.536 717.409 548.8 719.929 548.8C721.581 548.8 722.421 549.836 722.421 551.656V560H724.857V551.096C724.857 548.184 723.345 546.588 721.021 546.588C718.585 546.588 716.961 548.212 716.065 550.172H715.701V541.24H713.265V560H715.701V552.804ZM731.865 543.872V541.576H729.065V543.872H731.865ZM731.697 560V546.924H729.261V560H731.697ZM745.069 551.544L747.281 551.04C746.749 548.156 745.209 546.588 741.681 546.588C737.733 546.588 735.325 549.192 735.325 553.56C735.325 557.872 737.621 560.336 741.737 560.336C745.041 560.336 746.749 558.768 747.337 556.052L745.153 555.38C744.761 556.892 744.033 558.236 741.709 558.236C738.993 558.236 737.817 556.36 737.817 553.476C737.817 550.284 739.133 548.688 741.625 548.688C743.977 548.688 744.649 549.78 745.069 551.544ZM755.855 560.336C759.607 560.336 761.035 558.796 761.035 556.472C761.035 554.344 759.803 553.14 755.911 552.44C753.447 552.02 752.747 551.264 752.747 550.228C752.747 549.024 753.615 548.352 755.463 548.352C757.143 548.352 758.067 548.884 758.487 550.564L760.587 550.144C760.055 548.016 759.047 546.588 755.519 546.588C752.159 546.588 750.479 548.072 750.479 550.396C750.479 552.496 751.711 553.672 755.043 554.288C757.731 554.736 758.683 555.24 758.683 556.584C758.683 557.928 757.731 558.544 755.883 558.544C753.419 558.544 752.383 557.452 751.963 555.856L749.807 556.304C750.339 558.796 751.767 560.336 755.855 560.336ZM763.784 556.444L761.656 563.808V564.088H763.42L766.276 556.444H763.784ZM778.999 560V543.2H776.423V560H778.999ZM786.011 552.804C786.011 550.536 787.747 548.8 790.183 548.8C791.891 548.8 792.731 549.836 792.731 551.656V560H795.167V552.804C795.167 550.536 796.791 548.8 799.339 548.8C801.047 548.8 801.887 549.836 801.887 551.656V560H804.295V551.096C804.295 548.184 802.727 546.588 800.375 546.588C797.743 546.588 796.175 548.268 795.419 550.34H794.859C794.635 547.904 793.375 546.588 791.275 546.588C788.895 546.588 787.271 548.1 786.375 550.172H785.899V546.924H783.575V560H786.011V552.804ZM812.202 558.404C810.298 558.404 809.654 557.536 809.654 556.444C809.654 555.016 810.662 554.316 812.454 554.316H816.234V555.128C816.234 557.032 814.61 558.404 812.202 558.404ZM816.458 560H818.642V551.404C818.642 548.268 817.074 546.588 813.406 546.588C810.578 546.588 808.646 547.96 808.002 549.948L810.27 550.732C810.718 549.416 811.698 548.548 813.35 548.548C815.506 548.548 816.234 549.584 816.234 551.432V552.832H812.062C808.814 552.832 807.386 554.456 807.386 556.696C807.386 559.272 808.926 560.28 811.306 560.28C813.742 560.28 815.282 558.992 816.066 557.088H816.458V560ZM827.643 548.772C829.967 548.772 831.143 549.836 831.143 551.46C831.143 553.14 830.135 554.148 827.699 554.148C825.235 554.148 824.311 553.14 824.311 551.46C824.311 549.864 825.291 548.772 827.643 548.772ZM827.895 563.5C824.311 563.5 823.303 562.94 823.303 561.68C823.303 560.812 824.143 559.86 825.795 559.86H830.079C831.731 559.86 832.515 560.532 832.515 561.54C832.515 562.8 831.591 563.5 827.895 563.5ZM834.531 561.4C834.531 559.356 832.963 558.208 830.247 558.208H826.159C825.151 558.208 824.675 557.984 824.675 557.396C824.675 557.06 824.843 556.752 825.095 556.36L825.487 555.716C826.131 555.884 826.831 555.968 827.643 555.968C831.339 555.968 833.299 554.372 833.299 551.936C833.299 550.088 831.647 549.276 829.799 548.856L829.855 548.408C831.171 548.576 832.263 548.688 832.991 548.688H834.223V546.924H827.839C824.227 546.924 822.099 548.52 822.099 551.544C822.099 553.504 823.107 554.932 824.983 555.576L823.975 556.276C823.247 556.78 822.743 557.34 822.743 558.04C822.743 558.908 823.275 559.44 824.143 559.692V560C822.491 560.448 821.343 561.232 821.343 562.408C821.343 564.172 822.799 565.292 827.643 565.292C832.879 565.292 834.531 564.088 834.531 561.4ZM842.936 548.38C845.428 548.38 846.436 549.808 846.492 552.496H839.072C839.324 549.724 840.612 548.38 842.936 548.38ZM843.048 560.308C846.492 560.308 848.004 558.824 848.62 556.444L846.548 555.856C846.128 557.256 845.428 558.404 843.076 558.404C840.5 558.404 839.212 556.892 839.072 554.092H848.676C848.732 553.532 848.76 552.916 848.76 552.524C848.76 548.912 846.912 546.588 843.02 546.588C839.044 546.588 836.636 549.192 836.636 553.56C836.636 557.928 839.016 560.308 843.048 560.308ZM857.193 560.336C860.945 560.336 862.373 558.796 862.373 556.472C862.373 554.344 861.141 553.14 857.249 552.44C854.785 552.02 854.085 551.264 854.085 550.228C854.085 549.024 854.953 548.352 856.801 548.352C858.481 548.352 859.405 548.884 859.825 550.564L861.925 550.144C861.393 548.016 860.385 546.588 856.857 546.588C853.497 546.588 851.817 548.072 851.817 550.396C851.817 552.496 853.049 553.672 856.381 554.288C859.069 554.736 860.021 555.24 860.021 556.584C860.021 557.928 859.069 558.544 857.221 558.544C854.757 558.544 853.721 557.452 853.301 555.856L851.145 556.304C851.677 558.796 853.105 560.336 857.193 560.336ZM865.122 556.444L862.994 563.808V564.088H864.758L867.614 556.444H865.122ZM882.914 548.38C885.406 548.38 886.414 549.808 886.47 552.496H879.05C879.302 549.724 880.59 548.38 882.914 548.38ZM883.026 560.308C886.47 560.308 887.982 558.824 888.598 556.444L886.526 555.856C886.106 557.256 885.406 558.404 883.054 558.404C880.478 558.404 879.19 556.892 879.05 554.092H888.654C888.71 553.532 888.738 552.916 888.738 552.524C888.738 548.912 886.89 546.588 882.998 546.588C879.022 546.588 876.614 549.192 876.614 553.56C876.614 557.928 878.994 560.308 883.026 560.308ZM892.915 556.108C892.915 558.544 894.119 560.336 896.835 560.336C898.039 560.336 898.739 560.168 899.663 559.888L899.355 557.816C898.627 558.012 898.067 558.124 897.339 558.124C895.911 558.124 895.323 557.368 895.323 555.884V548.856H899.495V546.924H895.323V543.2H892.915V546.924H890.843V548.856H892.915V556.108ZM911.528 551.544L913.74 551.04C913.208 548.156 911.668 546.588 908.14 546.588C904.192 546.588 901.784 549.192 901.784 553.56C901.784 557.872 904.08 560.336 908.196 560.336C911.5 560.336 913.208 558.768 913.796 556.052L911.612 555.38C911.22 556.892 910.492 558.236 908.168 558.236C905.452 558.236 904.276 556.36 904.276 553.476C904.276 550.284 905.592 548.688 908.084 548.688C910.436 548.688 911.108 549.78 911.528 551.544ZM916.266 557.032V560H919.318V557.032H916.266Z" fill="white"/>
<line x1="145" y1="299" x2="1295" y2="299" stroke="#FF8787" stroke-width="6" stroke-dasharray="12 12"/>
<line x1="1298" y1="151" x2="1298" y2="904" stroke="#FF8787" stroke-width="6" stroke-dasharray="12 12"/>
<line x1="145" y1="756" x2="1295" y2="756" stroke="#FF8787" stroke-width="6" stroke-dasharray="12 12"/>
<line x1="142" y1="151" x2="142" y2="904" stroke="#FF8787" stroke-width="6" stroke-dasharray="12 12"/>
<rect x="145" y="151" width="1150" height="145" fill="#509E2F"/>
<path d="M175.204 230.622H181.238V229.236H176.646V220.822H175.204V230.622ZM189.791 230.622H191.317L188.083 220.822H186.781L183.575 230.622H185.115L185.801 228.34H189.091L189.791 230.622ZM186.207 227.038L187.187 223.79C187.257 223.566 187.383 223.076 187.439 222.768C187.495 223.076 187.621 223.566 187.691 223.79L188.685 227.038H186.207ZM199.8 223.692C199.8 222.236 199.058 220.822 196.65 220.822H193.458V230.622H194.9V226.604H196.216L198.176 230.622H199.772L197.742 226.464C199.17 226.058 199.8 224.868 199.8 223.692ZM194.9 222.152H196.678C198.008 222.152 198.358 223.02 198.358 223.72C198.358 224.49 197.952 225.26 196.678 225.26H194.9V222.152ZM205.889 230.79C207.667 230.79 209.039 229.46 209.039 227.01V225.75H205.819V227.08H207.555V227.416C207.555 228.606 206.967 229.432 205.889 229.432C204.363 229.432 203.677 227.626 203.677 225.722C203.677 224.028 204.265 221.998 205.889 221.998C206.687 221.998 207.135 222.572 207.485 223.216L208.759 222.488C208.241 221.55 207.499 220.654 205.889 220.654C203.383 220.654 202.193 223.188 202.193 225.722C202.193 228.284 203.313 230.79 205.889 230.79ZM211.712 230.622H218.026V229.25H213.154V226.24H216.192V224.882H213.154V222.18H217.718V220.822H211.712V230.622ZM233.816 229.236V220.794L230.232 221.956V223.328L232.374 222.67V229.236H229.938V230.622H236.21V229.236H233.816ZM248.038 227.136H254.618V225.792H248.038V227.136ZM270.324 229.236V220.794L266.74 221.956V223.328L268.882 222.67V229.236H266.446V230.622H272.718V229.236H270.324ZM279.674 230.622H281.088V228.312H282.39V227.024H281.088V220.822H279.8L275.068 227.458V228.312H279.674V230.622ZM279.674 227.024H276.93L279.674 222.992V227.024ZM287.555 230.79C289.669 230.79 291.069 229.278 291.069 227.388C291.069 225.582 289.963 224.196 288.101 224.196C287.415 224.196 286.841 224.406 286.393 224.77L286.729 222.166H290.509V220.822H285.469L284.937 225.82L286.225 226.366C286.603 225.932 287.149 225.554 287.961 225.554C288.997 225.554 289.613 226.338 289.613 227.43C289.613 228.592 288.759 229.446 287.541 229.446C286.519 229.446 285.917 229.04 285.399 228.592L284.601 229.698C285.105 230.216 286.113 230.79 287.555 230.79Z" fill="white"/>
<rect x="145" y="759" width="1150" height="145" fill="#509E2F"/>
<path d="M175.204 838.622H181.238V837.236H176.646V828.822H175.204V838.622ZM189.791 838.622H191.317L188.083 828.822H186.781L183.575 838.622H185.115L185.801 836.34H189.091L189.791 838.622ZM186.207 835.038L187.187 831.79C187.257 831.566 187.383 831.076 187.439 830.768C187.495 831.076 187.621 831.566 187.691 831.79L188.685 835.038H186.207ZM199.8 831.692C199.8 830.236 199.058 828.822 196.65 828.822H193.458V838.622H194.9V834.604H196.216L198.176 838.622H199.772L197.742 834.464C199.17 834.058 199.8 832.868 199.8 831.692ZM194.9 830.152H196.678C198.008 830.152 198.358 831.02 198.358 831.72C198.358 832.49 197.952 833.26 196.678 833.26H194.9V830.152ZM205.889 838.79C207.667 838.79 209.039 837.46 209.039 835.01V833.75H205.819V835.08H207.555V835.416C207.555 836.606 206.967 837.432 205.889 837.432C204.363 837.432 203.677 835.626 203.677 833.722C203.677 832.028 204.265 829.998 205.889 829.998C206.687 829.998 207.135 830.572 207.485 831.216L208.759 830.488C208.241 829.55 207.499 828.654 205.889 828.654C203.383 828.654 202.193 831.188 202.193 833.722C202.193 836.284 203.313 838.79 205.889 838.79ZM211.712 838.622H218.026V837.25H213.154V834.24H216.192V832.882H213.154V830.18H217.718V828.822H211.712V838.622ZM233.816 837.236V828.794L230.232 829.956V831.328L232.374 830.67V837.236H229.938V838.622H236.21V837.236H233.816ZM248.038 835.136H254.618V833.792H248.038V835.136ZM270.324 837.236V828.794L266.74 829.956V831.328L268.882 830.67V837.236H266.446V838.622H272.718V837.236H270.324ZM279.674 838.622H281.088V836.312H282.39V835.024H281.088V828.822H279.8L275.068 835.458V836.312H279.674V838.622ZM279.674 835.024H276.93L279.674 830.992V835.024ZM287.555 838.79C289.669 838.79 291.069 837.278 291.069 835.388C291.069 833.582 289.963 832.196 288.101 832.196C287.415 832.196 286.841 832.406 286.393 832.77L286.729 830.166H290.509V828.822H285.469L284.937 833.82L286.225 834.366C286.603 833.932 287.149 833.554 287.961 833.554C288.997 833.554 289.613 834.338 289.613 835.43C289.613 836.592 288.759 837.446 287.541 837.446C286.519 837.446 285.917 837.04 285.399 836.592L284.601 837.698C285.105 838.216 286.113 838.79 287.555 838.79Z" fill="white"/>
</svg>
