<svg width="770" height="173" viewBox="0 0 770 173" fill="none" xmlns="http://www.w3.org/2000/svg">
<path d="M2.04 2.848V4.848H3.896V2.848H3.272L3.928 0.608H2.936L2.04 2.848ZM13.4715 2.272V0.608H6.0955V12H8.0155V7.424H13.0875V5.776H8.0155V2.272H13.4715ZM16.6951 12V0.608H14.8711V12H16.6951ZM22.1534 10.896C21.0174 10.896 20.0894 10.144 20.0254 8.304H25.9934C25.9934 7.52 25.9294 6.912 25.7694 6.4C25.3214 4.704 23.9774 3.632 22.1214 3.632C19.6574 3.632 18.2174 5.44 18.2174 7.84C18.2174 10.464 19.6734 12.24 22.1534 12.24C24.2814 12.24 25.5934 11.008 25.8974 9.552H24.0254C23.8654 10.336 23.1934 10.896 22.1534 10.896ZM22.1214 4.976C23.2094 4.976 24.0414 5.68 24.1694 7.104H20.0574C20.2174 5.696 21.0174 4.976 22.1214 4.976ZM31.2595 7.792L33.9475 3.872H31.8195L30.1555 6.512H30.1235L28.4595 3.872H26.3315L29.0195 7.792L26.1235 12H28.2675L30.1235 8.992H30.1555L32.0115 12H34.1555L31.2595 7.792ZM43.2013 0.367999C39.9373 0.367999 37.9213 2.64 37.9213 6.352C37.9213 10 39.7773 12.208 42.6893 12.208C44.2573 12.208 45.5213 11.584 46.1293 10.592H46.1613V12H47.8093V5.84H43.1053V7.44H46.0173C46.0013 9.648 44.8653 10.656 43.1213 10.656C41.1373 10.656 39.9053 9.024 39.9053 6.352C39.9053 3.696 41.1693 2.08 43.2013 2.08C44.6573 2.08 45.5693 2.8 45.7933 4.096H47.8413C47.6173 1.824 45.9053 0.367999 43.2013 0.367999ZM54.0441 3.76C53.0361 3.76 52.2681 4.192 51.7241 5.072H51.6921V3.872H49.9961V12H51.8201V8.016C51.8201 6.32 52.6201 5.392 54.0761 5.392C54.2841 5.392 54.4921 5.408 54.7161 5.456V3.84C54.5081 3.792 54.2521 3.76 54.0441 3.76ZM57.6014 2.352V0.608H55.7774V2.352H57.6014ZM57.6014 12V3.872H55.7774V12H57.6014ZM66.7396 12V0.608H64.9156V4.928H64.8836C64.4196 4.128 63.5076 3.664 62.4996 3.664C60.4356 3.664 59.1236 5.344 59.1236 7.936C59.1236 10.528 60.4516 12.192 62.5156 12.192C63.5396 12.192 64.4516 11.712 64.9316 10.88H64.9636V12H66.7396ZM63.0436 5.088C64.2276 5.088 65.0116 6.16 65.0116 7.936C65.0116 9.696 64.2276 10.784 63.0436 10.784C61.8116 10.784 61.0276 9.664 61.0276 7.936C61.0276 6.208 61.8116 5.088 63.0436 5.088ZM70.5363 2.608V0.608H68.6963V2.608H69.3203L68.6643 4.848H69.6562L70.5363 2.608Z" fill="#222222"/>
<rect x="0.5" y="41.5" width="769" height="131" fill="white"/>
<rect x="1" y="102" width="30" height="30" fill="#0077C8"/>
<path d="M11.421 95.168C13.283 95.168 14.697 94.006 14.697 92.214C14.697 91.01 14.039 90.128 13.115 89.764C13.857 89.33 14.333 88.546 14.333 87.636C14.333 86.124 13.115 85.032 11.435 85.032C9.92305 85.032 8.92905 85.956 8.46705 87.076L9.78305 87.58C10.049 86.992 10.553 86.376 11.435 86.376C12.261 86.376 12.877 86.936 12.877 87.79C12.877 88.672 12.261 89.232 11.323 89.232H10.581V90.576H11.393C12.625 90.576 13.241 91.262 13.241 92.228C13.241 93.278 12.443 93.81 11.449 93.81C10.567 93.81 9.92305 93.376 9.48905 92.34L8.17305 92.872C8.67705 94.216 9.69905 95.168 11.421 95.168ZM20.562 95.168C23.32 95.168 24.048 92.34 24.048 90.1C24.048 87.678 23.25 85.032 20.562 85.032C17.79 85.032 17.076 87.86 17.076 90.1C17.076 92.522 17.874 95.168 20.562 95.168ZM20.562 93.824C18.966 93.824 18.532 91.948 18.532 90.1C18.532 88.392 18.924 86.362 20.562 86.362C22.158 86.362 22.578 88.266 22.578 90.1C22.578 91.822 22.214 93.824 20.562 93.824ZM20.562 91.052C21.108 91.052 21.514 90.618 21.514 90.1C21.514 89.596 21.108 89.148 20.562 89.148C20.016 89.148 19.61 89.596 19.61 90.1C19.61 90.618 20.016 91.052 20.562 91.052Z" fill="black"/>
<rect x="76" y="102" width="15" height="30" fill="#FF5F14"/>
<path d="M80.177 93.614V85.172L76.593 86.334V87.706L78.735 87.048V93.614H76.299V95H82.571V93.614H80.177ZM88.282 95.168C90.396 95.168 91.796 93.656 91.796 91.766C91.796 89.96 90.69 88.574 88.828 88.574C88.142 88.574 87.568 88.784 87.12 89.148L87.456 86.544H91.236V85.2H86.196L85.664 90.198L86.952 90.744C87.33 90.31 87.876 89.932 88.688 89.932C89.724 89.932 90.34 90.716 90.34 91.808C90.34 92.97 89.486 93.824 88.268 93.824C87.246 93.824 86.644 93.418 86.126 92.97L85.328 94.076C85.832 94.594 86.84 95.168 88.282 95.168Z" fill="black"/>
<rect x="31" y="42" width="45" height="130" fill="#FA00FF" fill-opacity="0.2"/>
<rect x="91" y="42" width="46" height="130" fill="#FA00FF" fill-opacity="0.2"/>
<rect x="212" y="42" width="45" height="130" fill="#FA00FF" fill-opacity="0.2"/>
<rect x="332" y="42" width="46" height="130" fill="#FA00FF" fill-opacity="0.2"/>
<rect x="152" y="42" width="45" height="130" fill="#FA00FF" fill-opacity="0.2"/>
<rect x="272" y="42" width="45" height="130" fill="#FA00FF" fill-opacity="0.2"/>
<rect x="393" y="42" width="45" height="130" fill="#FA00FF" fill-opacity="0.2"/>
<rect x="453" y="42" width="45" height="130" fill="#FA00FF" fill-opacity="0.2"/>
<rect x="573" y="42" width="46" height="130" fill="#FA00FF" fill-opacity="0.2"/>
<rect x="513" y="42" width="45" height="130" fill="#FA00FF" fill-opacity="0.2"/>
<rect x="634" y="42" width="45" height="130" fill="#FA00FF" fill-opacity="0.2"/>
<rect x="694" y="42" width="45" height="130" fill="#FA00FF" fill-opacity="0.2"/>
<rect x="0.5" y="41.5" width="769" height="131" stroke="#B1B3B3"/>
</svg>
