<svg width="120" height="74" viewBox="0 0 120 74" fill="none" xmlns="http://www.w3.org/2000/svg">
<path d="M0 38.4129H6.45952V44.8958H9.55476V35.3087H0V38.4129ZM0 29.7778V32.8797H11.9786V44.8958H15.0738V29.7778H0ZM0 44.8958H4.01667V40.8586H0V44.8958Z" fill="#051C2C"/>
<path d="M93.9474 40.515C93.9474 37.4346 93.4141 36.3179 91.457 36.3179C90.8571 36.3201 90.2683 36.4796 89.7491 36.7806C89.2299 37.0816 88.7984 37.5135 88.4974 38.0335H88.4355L88.095 36.4587H85.8546V37.0982L87.0451 37.394V43.958L85.8546 44.2539V44.8957H89.607V44.2539L88.5712 43.958V39.7992C88.5712 38.1886 89.7498 37.4274 90.8308 37.4274C92.345 37.4274 92.4498 38.5871 92.4498 40.4863V43.958L91.407 44.2539V44.8957H95.1593V44.2539L93.9689 43.958L93.9474 40.515ZM99.6617 44.0105C98.1546 44.0105 97.2165 42.9798 97.2165 40.546C97.2165 37.8355 98.2498 37.1125 99.6617 37.1125C100.513 37.1125 101.089 37.3988 101.39 37.9715C101.163 38.0404 100.965 38.181 100.824 38.3724C100.683 38.5637 100.608 38.7955 100.609 39.0332C100.609 39.7228 101.066 39.9543 101.562 39.9543C102.205 39.9543 102.526 39.5566 102.526 38.7612C102.526 37.1149 101.193 36.3275 99.5665 36.3275C97.8212 36.3275 95.5808 37.3654 95.5808 40.7894C95.5831 43.8292 97.2879 45.0485 99.2855 45.0485C99.9578 45.0651 100.622 44.9 101.209 44.5704C101.795 44.2408 102.282 43.7589 102.619 43.1754L102.143 42.8008C101.84 43.1699 101.46 43.468 101.029 43.6741C100.599 43.8802 100.129 43.9894 99.6522 43.9938L99.6617 44.0105ZM75.6212 40.515C75.6212 37.4346 75.0855 36.3179 73.1308 36.3179C72.5309 36.3196 71.9419 36.4789 71.4226 36.78C70.9033 37.081 70.4718 37.5132 70.1712 38.0335H70.1093L69.7617 36.4587H67.5236V37.0982L68.7141 37.394V43.958L67.5236 44.2539V44.8957H71.276V44.2539L70.2379 43.958V39.7992C70.2379 38.1886 71.4165 37.4274 72.4951 37.4274C74.0093 37.4274 74.1141 38.5871 74.1141 40.4863V43.958L73.0712 44.2539V44.8957H76.8236V44.2539L75.6331 43.958L75.6212 40.515ZM82.1546 43.0346C81.9645 43.3676 81.6915 43.6455 81.3622 43.8412C81.033 44.037 80.6587 44.1438 80.276 44.1513C79.6236 44.1513 79.1236 43.729 79.1236 42.7459C79.1236 41.2523 80.4903 40.9468 82.4093 40.5317C82.5427 41.5958 82.4879 42.4405 82.1546 43.0346ZM84.0831 43.8459C83.9993 43.4961 83.9656 43.1362 83.9832 42.7769V40.515C83.9832 38.8718 83.6609 37.7273 83.0165 37.0815C82.5093 36.5709 81.8117 36.3179 80.9308 36.3179C79.7403 36.3179 77.9403 36.893 77.9403 38.3461C77.9403 38.8805 78.2355 39.3005 78.7974 39.3005C78.9123 39.3084 79.0275 39.2924 79.1358 39.2533C79.2442 39.2143 79.3432 39.1532 79.4267 39.0737C79.5102 38.9943 79.5763 38.8984 79.6209 38.792C79.6654 38.6857 79.6875 38.5712 79.6855 38.4558C79.6816 38.2885 79.6419 38.124 79.5692 37.9734C79.4966 37.8228 79.3925 37.6895 79.2641 37.5825C79.4784 37.1674 79.9998 37.0051 80.526 37.0051C81.5998 37.0051 82.2927 37.5062 82.4308 40.064C80.5546 40.4076 77.526 40.7918 77.526 43.0752C77.526 44.1227 78.1022 45.058 79.6284 45.058C81.1546 45.058 82.0736 44.1895 82.6165 43.3567H82.6784C82.6784 44.5187 82.7808 45.058 83.4879 45.058C84.0938 45.0108 84.6864 44.8557 85.2379 44.5999V44.1227H84.5236C84.4277 44.1325 84.3313 44.1092 84.2504 44.0567C84.1694 44.0042 84.1088 43.9257 84.0784 43.834L84.0831 43.8459ZM106.016 36.4587H103.307V37.0982L104.497 37.394V43.958L103.307 44.2539V44.8957H107.216V44.2539L106.026 43.958L106.016 36.4587ZM118.809 43.958V32.7222H116.09V33.3569L117.281 33.6551V43.958L116.09 44.2539V44.8957H120V44.2539L118.809 43.958ZM112.528 43.0299C112.338 43.3628 112.065 43.6408 111.736 43.8365C111.407 44.0322 111.033 44.139 110.65 44.1465C109.997 44.1465 109.497 43.7242 109.497 42.7411C109.497 41.2475 110.864 40.9421 112.783 40.5269C112.916 41.5911 112.862 42.4357 112.528 43.0299ZM114.457 43.8411C114.373 43.4914 114.339 43.1314 114.357 42.7722V40.515C114.357 38.8718 114.035 37.7273 113.39 37.0815C112.883 36.5709 112.186 36.3179 111.305 36.3179C110.114 36.3179 108.314 36.893 108.314 38.3461C108.314 38.8805 108.609 39.3005 109.171 39.3005C109.286 39.3084 109.401 39.2924 109.51 39.2533C109.618 39.2143 109.717 39.1532 109.801 39.0737C109.884 38.9943 109.95 38.8984 109.995 38.792C110.039 38.6857 110.061 38.5712 110.059 38.4558C110.055 38.2885 110.016 38.124 109.943 37.9734C109.87 37.8228 109.766 37.6895 109.638 37.5825C109.852 37.1674 110.374 37.0051 110.9 37.0051C111.974 37.0051 112.666 37.5062 112.805 40.064C110.928 40.4076 107.9 40.7918 107.9 43.0752C107.9 44.1227 108.476 45.058 110.002 45.058C111.528 45.058 112.447 44.1895 112.99 43.3567H113.052C113.052 44.5187 113.155 45.058 113.862 45.058C114.466 45.0125 115.056 44.8598 115.607 44.607V44.1298H114.907C114.811 44.1396 114.715 44.1164 114.634 44.0639C114.553 44.0114 114.492 43.9328 114.462 43.8411H114.457ZM47.0808 43.958H42.8427V34.6525L44.4617 34.3256V33.6599H39.8212V34.3304L41.2855 34.6572V43.896L39.8212 44.2229V44.8957H48.4641V41.2594H47.6189L47.0808 43.958ZM64.6141 34.9221C64.7441 34.9292 64.8742 34.9102 64.9969 34.8664C65.1195 34.8226 65.2322 34.7547 65.3284 34.6668C65.4192 34.5721 65.4896 34.4597 65.535 34.3365C65.5805 34.2133 65.6001 34.0821 65.5927 33.951C65.6031 33.8192 65.5848 33.6868 65.5392 33.5628C65.4936 33.4388 65.4217 33.3262 65.3284 33.2327C65.2352 33.1393 65.1228 33.0672 64.9991 33.0215C64.8753 32.9758 64.7432 32.9575 64.6117 32.9679C64.4808 32.9593 64.3495 32.9784 64.2264 33.024C64.1033 33.0697 63.9912 33.1408 63.8974 33.2328C63.8087 33.3287 63.7401 33.4415 63.6955 33.5644C63.6509 33.6873 63.6313 33.818 63.6379 33.9486C63.6284 34.0776 63.6471 34.2071 63.6925 34.3282C63.7379 34.4493 63.8091 34.559 63.901 34.6498C63.993 34.7406 64.1035 34.8102 64.225 34.854C64.3465 34.8977 64.476 34.9144 64.6046 34.903L64.6141 34.9221ZM28.0189 43.958H23.7831V34.6525L25.4022 34.3256V33.6599H20.7617V34.3304L22.226 34.6572V43.896L20.7617 44.2229V44.8957H29.4046V41.2594H28.5474L28.0189 43.958ZM35.4308 39.5725H33.4998V34.5618H35.3689C36.6403 34.5618 37.5951 35.4065 37.5951 37.091C37.5951 38.7159 36.7736 39.5701 35.4308 39.5701V39.5725ZM35.7879 33.6575H30.6355V34.328L31.9427 34.6549V43.896L30.6355 44.2253V44.8957H34.9784V44.2253L33.4998 43.896V40.4792H35.7736C38.1284 40.4792 39.3093 38.7493 39.3093 36.998C39.3093 35.7166 38.4451 33.6575 35.7879 33.6575ZM105.252 34.9197C105.382 34.9263 105.512 34.9071 105.635 34.8633C105.757 34.8195 105.87 34.7519 105.966 34.6644C106.057 34.5695 106.127 34.457 106.172 34.3338C106.217 34.2107 106.236 34.0795 106.228 33.9486C106.235 33.8178 106.215 33.6871 106.17 33.5641C106.125 33.4412 106.056 33.3285 105.966 33.2328C105.871 33.1429 105.759 33.0732 105.636 33.0277C105.513 32.9822 105.383 32.9619 105.252 32.9679C105.121 32.9605 104.99 32.9801 104.867 33.0257C104.745 33.0713 104.632 33.1418 104.538 33.2328C104.45 33.3291 104.382 33.442 104.338 33.5649C104.294 33.6878 104.274 33.8182 104.281 33.9486C104.271 34.0776 104.289 34.2072 104.334 34.3285C104.379 34.4498 104.449 34.5598 104.541 34.6507C104.633 34.7416 104.744 34.8113 104.865 34.8549C104.987 34.8985 105.116 34.9149 105.245 34.903L105.252 34.9197ZM53.1736 34.3113L54.6379 34.6382V43.8554L53.1736 44.23V44.9029H58.0189V44.1465L56.2022 43.8554V39.761H58.8093L59.0736 41.3525H59.8665V37.2318H59.0736L58.8093 38.8257H56.2022V34.5642H60.6093L61.107 36.998H61.9498V33.6575H53.1808L53.1736 34.3113ZM65.3665 36.4587H62.6665V37.0982L63.857 37.394V43.958L62.6665 44.2539V44.8957H66.5736V44.2539L65.3831 43.958L65.3665 36.4587Z" fill="#051C2C"/>
</svg>
