<svg width="375" height="909" viewBox="0 0 375 909" fill="none" xmlns="http://www.w3.org/2000/svg">
<rect width="375" height="909" fill="white"/>
<rect y="81" width="375" height="747" fill="#003E51"/>
<path d="M108.037 410.546C115.135 410.546 118.075 407.648 118.075 403.028C118.075 399.416 116.353 396.686 108.835 395.3C103.543 394.334 102.577 393.074 102.577 391.268C102.577 389.252 104.089 388.076 107.281 388.076C110.809 388.076 112.069 389.63 112.741 392.612L117.487 391.688C116.647 387.278 114.001 384.254 107.533 384.254C101.065 384.254 97.8734 387.026 97.8734 391.52C97.8734 395.468 100.057 398.114 106.945 399.248C111.901 400.088 113.287 401.18 113.287 403.322C113.287 405.38 111.691 406.64 108.205 406.64C104.383 406.64 102.115 404.918 101.485 401.348L96.9074 402.314C97.5374 406.976 100.435 410.504 108.037 410.546ZM122.421 410H140.565V405.842H127.209V399.29H139.347V395.174H127.209V388.958H140.607V384.8H122.421V410ZM155.826 410.546C162.504 410.546 166.536 406.85 167.376 400.76L162.84 399.92C162 404.12 160.068 406.388 155.826 406.388C150.744 406.388 148.476 402.902 148.476 397.358C148.476 392.192 150.744 388.454 155.868 388.454C159.858 388.454 161.958 390.68 162.714 394.754L167.292 393.872C166.41 387.824 162.462 384.254 155.952 384.254C148.392 384.254 143.688 389.21 143.688 397.358C143.688 405.506 148.098 410.546 155.826 410.546ZM168.949 389.21H176.719V410H181.507V389.21H189.277V384.8H168.949V389.21ZM197.581 410V384.8H192.793V410H197.581ZM214.395 410.546C222.459 410.546 226.995 405.296 226.995 397.316C226.995 389.378 222.333 384.254 214.395 384.254C206.499 384.254 201.795 389.378 201.795 397.316C201.795 405.296 206.289 410.546 214.395 410.546ZM214.353 406.388C208.935 406.388 206.541 402.776 206.541 397.316C206.541 392.024 208.977 388.454 214.395 388.454C219.771 388.454 222.207 392.024 222.207 397.316C222.207 402.818 219.813 406.388 214.353 406.388ZM246.787 410H253.087V384.8H248.677V393.536C248.677 396.854 248.887 401.474 249.139 405.044L248.383 405.086C247.249 402.188 245.359 397.946 243.511 394.67L237.967 384.8H231.121V410H235.615V401.348C235.615 398.03 235.405 392.738 235.153 389.084L235.909 389C237.169 392.024 238.933 395.972 240.319 398.534L246.787 410ZM89.5454 456.546C96.2234 456.546 100.255 452.85 101.095 446.76L96.5594 445.92C95.7194 450.12 93.7874 452.388 89.5454 452.388C84.4634 452.388 82.1954 448.902 82.1954 443.358C82.1954 438.192 84.4634 434.454 89.5874 434.454C93.5774 434.454 95.6774 436.68 96.4334 440.754L101.011 439.872C100.129 433.824 96.1814 430.254 89.6714 430.254C82.1114 430.254 77.4074 435.21 77.4074 443.358C77.4074 451.506 81.8174 456.546 89.5454 456.546ZM116.595 456.546C124.659 456.546 129.195 451.296 129.195 443.316C129.195 435.378 124.533 430.254 116.595 430.254C108.699 430.254 103.995 435.378 103.995 443.316C103.995 451.296 108.489 456.546 116.595 456.546ZM116.553 452.388C111.135 452.388 108.741 448.776 108.741 443.316C108.741 438.024 111.177 434.454 116.595 434.454C121.971 434.454 124.407 438.024 124.407 443.316C124.407 448.818 122.013 452.388 116.553 452.388ZM148.987 456H155.287V430.8H150.877V439.536C150.877 442.854 151.087 447.474 151.339 451.044L150.583 451.086C149.449 448.188 147.559 443.946 145.711 440.67L140.167 430.8H133.321V456H137.815V447.348C137.815 444.03 137.605 438.738 137.353 435.084L138.109 435C139.369 438.024 141.133 441.972 142.519 444.534L148.987 456ZM158.838 435.21H166.608V456H171.396V435.21H179.166V430.8H158.838V435.21ZM182.682 456H200.826V451.842H187.47V445.29H199.608V441.174H187.47V434.958H200.868V430.8H182.682V456ZM221.409 456H227.709V430.8H223.299V439.536C223.299 442.854 223.509 447.474 223.761 451.044L223.005 451.086C221.871 448.188 219.981 443.946 218.133 440.67L212.589 430.8H205.743V456H210.237V447.348C210.237 444.03 210.027 438.738 209.775 435.084L210.531 435C211.791 438.024 213.555 441.972 214.941 444.534L221.409 456ZM231.26 435.21H239.03V456H243.818V435.21H251.588V430.8H231.26V435.21ZM264.232 456.546C271.33 456.546 274.27 453.648 274.27 449.028C274.27 445.416 272.548 442.686 265.03 441.3C259.738 440.334 258.772 439.074 258.772 437.268C258.772 435.252 260.284 434.076 263.476 434.076C267.004 434.076 268.264 435.63 268.936 438.612L273.682 437.688C272.842 433.278 270.196 430.254 263.728 430.254C257.26 430.254 254.068 433.026 254.068 437.52C254.068 441.468 256.252 444.114 263.14 445.248C268.096 446.088 269.482 447.18 269.482 449.322C269.482 451.38 267.886 452.64 264.4 452.64C260.578 452.64 258.31 450.918 257.68 447.348L253.102 448.314C253.732 452.976 256.63 456.504 264.232 456.546Z" fill="white"/>
<path d="M80.626 492V475.2H78.05V482.564H69.09V475.2H66.514V492H69.09V484.748H78.05V492H80.626ZM90.5813 480.38C93.0733 480.38 94.0813 481.808 94.1373 484.496H86.7173C86.9693 481.724 88.2573 480.38 90.5813 480.38ZM90.6933 492.308C94.1373 492.308 95.6493 490.824 96.2653 488.444L94.1933 487.856C93.7733 489.256 93.0733 490.404 90.7213 490.404C88.1453 490.404 86.8573 488.892 86.7173 486.092H96.3213C96.3773 485.532 96.4053 484.916 96.4053 484.524C96.4053 480.912 94.5573 478.588 90.6653 478.588C86.6893 478.588 84.2813 481.192 84.2813 485.56C84.2813 489.928 86.6613 492.308 90.6933 492.308ZM103.55 490.404C101.646 490.404 101.002 489.536 101.002 488.444C101.002 487.016 102.01 486.316 103.802 486.316H107.582V487.128C107.582 489.032 105.958 490.404 103.55 490.404ZM107.806 492H109.99V483.404C109.99 480.268 108.422 478.588 104.754 478.588C101.926 478.588 99.9944 479.96 99.3504 481.948L101.618 482.732C102.066 481.416 103.046 480.548 104.698 480.548C106.854 480.548 107.582 481.584 107.582 483.432V484.832H103.41C100.162 484.832 98.7344 486.456 98.7344 488.696C98.7344 491.272 100.274 492.28 102.654 492.28C105.09 492.28 106.63 490.992 107.414 489.088H107.806V492ZM119.159 490.236C116.779 490.236 115.687 488.836 115.687 485.504C115.687 482.144 116.807 480.8 119.131 480.8C121.371 480.8 122.827 482.396 122.827 484.636V486.456C122.827 488.612 121.343 490.236 119.159 490.236ZM122.827 492H125.235V473.24H122.827V482.004H122.491C121.735 480.1 120.335 478.588 118.039 478.588C115.043 478.588 113.307 480.884 113.307 485.532C113.307 490.124 115.099 492.336 117.899 492.336C120.139 492.336 121.763 490.768 122.519 488.836H122.827V492ZM132.389 473.24H129.953V492H132.389V473.24ZM139.769 475.872V473.576H136.969V475.872H139.769ZM139.601 492V478.924H137.165V492H139.601ZM146.561 484.804C146.561 482.536 148.297 480.8 150.733 480.8C152.553 480.8 153.281 481.836 153.281 483.656V492H155.717V483.096C155.717 480.184 154.233 478.588 151.769 478.588C149.557 478.588 147.765 480.184 146.897 482.172H146.449V478.924H144.125V492H146.561V484.804ZM165.272 480.38C167.764 480.38 168.772 481.808 168.828 484.496H161.408C161.66 481.724 162.948 480.38 165.272 480.38ZM165.384 492.308C168.828 492.308 170.34 490.824 170.956 488.444L168.884 487.856C168.464 489.256 167.764 490.404 165.412 490.404C162.836 490.404 161.548 488.892 161.408 486.092H171.012C171.068 485.532 171.096 484.916 171.096 484.524C171.096 480.912 169.248 478.588 165.356 478.588C161.38 478.588 158.972 481.192 158.972 485.56C158.972 489.928 161.352 492.308 165.384 492.308ZM179.529 492.336C183.281 492.336 184.709 490.796 184.709 488.472C184.709 486.344 183.477 485.14 179.585 484.44C177.121 484.02 176.421 483.264 176.421 482.228C176.421 481.024 177.289 480.352 179.137 480.352C180.817 480.352 181.741 480.884 182.161 482.564L184.261 482.144C183.729 480.016 182.721 478.588 179.193 478.588C175.833 478.588 174.153 480.072 174.153 482.396C174.153 484.496 175.385 485.672 178.717 486.288C181.405 486.736 182.357 487.24 182.357 488.584C182.357 489.928 181.405 490.544 179.557 490.544C177.093 490.544 176.057 489.452 175.637 487.856L173.481 488.304C174.013 490.796 175.441 492.336 179.529 492.336ZM187.459 488.444L185.331 495.808V496.088H187.095L189.951 488.444H187.459ZM205.698 492.28C208.89 492.28 210.514 490.544 211.41 488.388H211.83V492H214.154V483.432H206.93V485.448H211.746C211.69 487.912 210.654 490.18 206.622 490.18C202.926 490.18 201.386 488.108 201.386 483.824C201.386 479.456 202.702 477.076 206.734 477.076C209.478 477.076 210.738 478.252 211.41 480.856L213.818 480.324C213.118 476.712 210.962 474.892 206.678 474.892C201.386 474.892 198.782 478.112 198.782 483.824C198.782 490.124 201.834 492.28 205.698 492.28ZM220.459 492V485.952C220.459 482.648 221.663 481.332 224.827 481.332H224.995V478.644H224.827C222.867 478.644 221.467 479.68 220.655 482.312L220.235 482.284V478.924H218.023V492H220.459ZM231.83 490.404C229.926 490.404 229.282 489.536 229.282 488.444C229.282 487.016 230.29 486.316 232.082 486.316H235.862V487.128C235.862 489.032 234.238 490.404 231.83 490.404ZM236.086 492H238.27V483.404C238.27 480.268 236.702 478.588 233.034 478.588C230.206 478.588 228.274 479.96 227.63 481.948L229.898 482.732C230.346 481.416 231.326 480.548 232.978 480.548C235.134 480.548 235.862 481.584 235.862 483.432V484.832H231.69C228.442 484.832 227.014 486.456 227.014 488.696C227.014 491.272 228.554 492.28 230.934 492.28C233.37 492.28 234.91 490.992 235.694 489.088H236.086V492ZM248.559 490.236C246.375 490.236 244.919 488.612 244.919 486.456V484.636C244.919 482.396 246.347 480.8 248.587 480.8C250.911 480.8 252.031 482.144 252.031 485.504C252.031 488.836 250.939 490.236 248.559 490.236ZM254.411 485.532C254.411 480.884 252.675 478.588 249.679 478.588C247.383 478.588 245.983 480.1 245.227 482.004H244.919V478.924H242.483V496.676H244.919V488.836H245.227C245.983 490.768 247.607 492.336 249.819 492.336C252.619 492.336 254.411 490.124 254.411 485.532ZM260.252 484.804C260.252 482.536 261.96 480.8 264.48 480.8C266.132 480.8 266.972 481.836 266.972 483.656V492H269.408V483.096C269.408 480.184 267.896 478.588 265.572 478.588C263.136 478.588 261.512 480.212 260.616 482.172H260.252V473.24H257.816V492H260.252V484.804ZM276.415 475.872V473.576H273.615V475.872H276.415ZM276.247 492V478.924H273.811V492H276.247ZM289.62 483.544L291.832 483.04C291.3 480.156 289.76 478.588 286.232 478.588C282.284 478.588 279.876 481.192 279.876 485.56C279.876 489.872 282.172 492.336 286.288 492.336C289.592 492.336 291.3 490.768 291.888 488.052L289.704 487.38C289.312 488.892 288.584 490.236 286.26 490.236C283.544 490.236 282.368 488.36 282.368 485.476C282.368 482.284 283.684 480.688 286.176 480.688C288.528 480.688 289.2 481.78 289.62 483.544ZM300.405 492.336C304.157 492.336 305.585 490.796 305.585 488.472C305.585 486.344 304.353 485.14 300.461 484.44C297.997 484.02 297.297 483.264 297.297 482.228C297.297 481.024 298.165 480.352 300.013 480.352C301.693 480.352 302.617 480.884 303.037 482.564L305.137 482.144C304.605 480.016 303.597 478.588 300.069 478.588C296.709 478.588 295.029 480.072 295.029 482.396C295.029 484.496 296.261 485.672 299.593 486.288C302.281 486.736 303.233 487.24 303.233 488.584C303.233 489.928 302.281 490.544 300.433 490.544C297.969 490.544 296.933 489.452 296.513 487.856L294.357 488.304C294.889 490.796 296.317 492.336 300.405 492.336ZM308.334 488.444L306.206 495.808V496.088H307.97L310.826 488.444H308.334ZM119.769 528V511.2H117.193V528H119.769ZM126.781 520.804C126.781 518.536 128.517 516.8 130.953 516.8C132.661 516.8 133.501 517.836 133.501 519.656V528H135.937V520.804C135.937 518.536 137.561 516.8 140.109 516.8C141.817 516.8 142.657 517.836 142.657 519.656V528H145.065V519.096C145.065 516.184 143.497 514.588 141.145 514.588C138.513 514.588 136.945 516.268 136.189 518.34H135.629C135.405 515.904 134.145 514.588 132.045 514.588C129.665 514.588 128.041 516.1 127.145 518.172H126.669V514.924H124.345V528H126.781V520.804ZM152.972 526.404C151.068 526.404 150.424 525.536 150.424 524.444C150.424 523.016 151.432 522.316 153.224 522.316H157.004V523.128C157.004 525.032 155.38 526.404 152.972 526.404ZM157.228 528H159.412V519.404C159.412 516.268 157.844 514.588 154.176 514.588C151.348 514.588 149.416 515.96 148.772 517.948L151.04 518.732C151.488 517.416 152.468 516.548 154.12 516.548C156.276 516.548 157.004 517.584 157.004 519.432V520.832H152.832C149.584 520.832 148.156 522.456 148.156 524.696C148.156 527.272 149.696 528.28 152.076 528.28C154.512 528.28 156.052 526.992 156.836 525.088H157.228V528ZM168.413 516.772C170.737 516.772 171.913 517.836 171.913 519.46C171.913 521.14 170.905 522.148 168.469 522.148C166.005 522.148 165.081 521.14 165.081 519.46C165.081 517.864 166.061 516.772 168.413 516.772ZM168.665 531.5C165.081 531.5 164.073 530.94 164.073 529.68C164.073 528.812 164.913 527.86 166.565 527.86H170.849C172.501 527.86 173.285 528.532 173.285 529.54C173.285 530.8 172.361 531.5 168.665 531.5ZM175.301 529.4C175.301 527.356 173.733 526.208 171.017 526.208H166.929C165.921 526.208 165.445 525.984 165.445 525.396C165.445 525.06 165.613 524.752 165.865 524.36L166.257 523.716C166.901 523.884 167.601 523.968 168.413 523.968C172.109 523.968 174.069 522.372 174.069 519.936C174.069 518.088 172.417 517.276 170.569 516.856L170.625 516.408C171.941 516.576 173.033 516.688 173.761 516.688H174.993V514.924H168.609C164.997 514.924 162.869 516.52 162.869 519.544C162.869 521.504 163.877 522.932 165.753 523.576L164.745 524.276C164.017 524.78 163.513 525.34 163.513 526.04C163.513 526.908 164.045 527.44 164.913 527.692V528C163.261 528.448 162.113 529.232 162.113 530.408C162.113 532.172 163.569 533.292 168.413 533.292C173.649 533.292 175.301 532.088 175.301 529.4ZM183.706 516.38C186.198 516.38 187.206 517.808 187.262 520.496H179.842C180.094 517.724 181.382 516.38 183.706 516.38ZM183.818 528.308C187.262 528.308 188.774 526.824 189.39 524.444L187.318 523.856C186.898 525.256 186.198 526.404 183.846 526.404C181.27 526.404 179.982 524.892 179.842 522.092H189.446C189.502 521.532 189.53 520.916 189.53 520.524C189.53 516.912 187.682 514.588 183.79 514.588C179.814 514.588 177.406 517.192 177.406 521.56C177.406 525.928 179.786 528.308 183.818 528.308ZM197.963 528.336C201.715 528.336 203.143 526.796 203.143 524.472C203.143 522.344 201.911 521.14 198.019 520.44C195.555 520.02 194.855 519.264 194.855 518.228C194.855 517.024 195.723 516.352 197.571 516.352C199.251 516.352 200.175 516.884 200.595 518.564L202.695 518.144C202.163 516.016 201.155 514.588 197.627 514.588C194.267 514.588 192.587 516.072 192.587 518.396C192.587 520.496 193.819 521.672 197.151 522.288C199.839 522.736 200.791 523.24 200.791 524.584C200.791 525.928 199.839 526.544 197.991 526.544C195.527 526.544 194.491 525.452 194.071 523.856L191.915 524.304C192.447 526.796 193.875 528.336 197.963 528.336ZM205.892 524.444L203.764 531.808V532.088H205.528L208.384 524.444H205.892ZM223.684 516.38C226.176 516.38 227.184 517.808 227.24 520.496H219.82C220.072 517.724 221.36 516.38 223.684 516.38ZM223.796 528.308C227.24 528.308 228.752 526.824 229.368 524.444L227.296 523.856C226.876 525.256 226.176 526.404 223.824 526.404C221.248 526.404 219.96 524.892 219.82 522.092H229.424C229.48 521.532 229.508 520.916 229.508 520.524C229.508 516.912 227.66 514.588 223.768 514.588C219.792 514.588 217.384 517.192 217.384 521.56C217.384 525.928 219.764 528.308 223.796 528.308ZM233.685 524.108C233.685 526.544 234.889 528.336 237.605 528.336C238.809 528.336 239.509 528.168 240.433 527.888L240.125 525.816C239.397 526.012 238.837 526.124 238.109 526.124C236.681 526.124 236.093 525.368 236.093 523.884V516.856H240.265V514.924H236.093V511.2H233.685V514.924H231.613V516.856H233.685V524.108ZM252.298 519.544L254.51 519.04C253.978 516.156 252.438 514.588 248.91 514.588C244.962 514.588 242.554 517.192 242.554 521.56C242.554 525.872 244.85 528.336 248.966 528.336C252.27 528.336 253.978 526.768 254.566 524.052L252.382 523.38C251.99 524.892 251.262 526.236 248.938 526.236C246.222 526.236 245.046 524.36 245.046 521.476C245.046 518.284 246.362 516.688 248.854 516.688C251.206 516.688 251.878 517.78 252.298 519.544ZM257.036 525.032V528H260.088V525.032H257.036Z" fill="white"/>
<rect x="3" y="78" width="369" height="753" stroke="#FF8787" stroke-width="6" stroke-dasharray="12 12"/>
<line x1="20" y1="159" x2="355" y2="159" stroke="#FF8787" stroke-width="6" stroke-dasharray="12 12"/>
<line x1="358" y1="81" x2="358" y2="828" stroke="#FF8787" stroke-width="6" stroke-dasharray="12 12"/>
<line x1="20" y1="750" x2="355" y2="750" stroke="#FF8787" stroke-width="6" stroke-dasharray="12 12"/>
<line x1="17" y1="81" x2="16.9999" y2="828" stroke="#FF8787" stroke-width="6" stroke-dasharray="12 12"/>
<rect x="20" y="81" width="335" height="75" fill="#509E2F"/>
<path d="M50.204 128H56.238V126.614H51.646V118.2H50.204V128ZM64.791 128H66.317L63.083 118.2H61.781L58.575 128H60.115L60.801 125.718H64.091L64.791 128ZM61.207 124.416L62.187 121.168C62.257 120.944 62.383 120.454 62.439 120.146C62.495 120.454 62.621 120.944 62.691 121.168L63.685 124.416H61.207ZM74.7999 121.07C74.7999 119.614 74.0579 118.2 71.6499 118.2H68.4579V128H69.8999V123.982H71.2159L73.1759 128H74.7719L72.7419 123.842C74.1699 123.436 74.7999 122.246 74.7999 121.07ZM69.8999 119.53H71.6779C73.0079 119.53 73.3579 120.398 73.3579 121.098C73.3579 121.868 72.9519 122.638 71.6779 122.638H69.8999V119.53ZM80.8889 128.168C82.6669 128.168 84.0389 126.838 84.0389 124.388V123.128H80.8189V124.458H82.5549V124.794C82.5549 125.984 81.9669 126.81 80.8889 126.81C79.3629 126.81 78.6769 125.004 78.6769 123.1C78.6769 121.406 79.2649 119.376 80.8889 119.376C81.6869 119.376 82.1349 119.95 82.4849 120.594L83.7589 119.866C83.2409 118.928 82.4989 118.032 80.8889 118.032C78.3829 118.032 77.1929 120.566 77.1929 123.1C77.1929 125.662 78.3129 128.168 80.8889 128.168ZM86.7118 128H93.0258V126.628H88.1538V123.618H91.1918V122.26H88.1538V119.558H92.7178V118.2H86.7118V128ZM108.816 126.614V118.172L105.232 119.334V120.706L107.374 120.048V126.614H104.938V128H111.21V126.614H108.816ZM123.038 124.514H129.618V123.17H123.038V124.514ZM141.432 118.2V119.53H146.08C144.05 122.218 143.322 124.864 143.308 128H144.75C144.75 125.76 145.338 122.078 147.732 119.348V118.2H141.432ZM153.428 128.168C155.542 128.168 156.942 126.656 156.942 124.766C156.942 122.96 155.836 121.574 153.974 121.574C153.288 121.574 152.714 121.784 152.266 122.148L152.602 119.544H156.382V118.2H151.342L150.81 123.198L152.098 123.744C152.476 123.31 153.022 122.932 153.834 122.932C154.87 122.932 155.486 123.716 155.486 124.808C155.486 125.97 154.632 126.824 153.414 126.824C152.392 126.824 151.79 126.418 151.272 125.97L150.474 127.076C150.978 127.594 151.986 128.168 153.428 128.168Z" fill="white"/>
<rect x="20" y="753" width="335" height="75" fill="#509E2F"/>
<path d="M50.204 800H56.238V798.614H51.646V790.2H50.204V800ZM64.791 800H66.317L63.083 790.2H61.781L58.575 800H60.115L60.801 797.718H64.091L64.791 800ZM61.207 796.416L62.187 793.168C62.257 792.944 62.383 792.454 62.439 792.146C62.495 792.454 62.621 792.944 62.691 793.168L63.685 796.416H61.207ZM74.7999 793.07C74.7999 791.614 74.0579 790.2 71.6499 790.2H68.4579V800H69.8999V795.982H71.2159L73.1759 800H74.7719L72.7419 795.842C74.1699 795.436 74.7999 794.246 74.7999 793.07ZM69.8999 791.53H71.6779C73.0079 791.53 73.3579 792.398 73.3579 793.098C73.3579 793.868 72.9519 794.638 71.6779 794.638H69.8999V791.53ZM80.8889 800.168C82.6669 800.168 84.0389 798.838 84.0389 796.388V795.128H80.8189V796.458H82.5549V796.794C82.5549 797.984 81.9669 798.81 80.8889 798.81C79.3629 798.81 78.6769 797.004 78.6769 795.1C78.6769 793.406 79.2649 791.376 80.8889 791.376C81.6869 791.376 82.1349 791.95 82.4849 792.594L83.7589 791.866C83.2409 790.928 82.4989 790.032 80.8889 790.032C78.3829 790.032 77.1929 792.566 77.1929 795.1C77.1929 797.662 78.3129 800.168 80.8889 800.168ZM86.7118 800H93.0258V798.628H88.1538V795.618H91.1918V794.26H88.1538V791.558H92.7178V790.2H86.7118V800ZM108.816 798.614V790.172L105.232 791.334V792.706L107.374 792.048V798.614H104.938V800H111.21V798.614H108.816ZM123.038 796.514H129.618V795.17H123.038V796.514ZM141.432 790.2V791.53H146.08C144.05 794.218 143.322 796.864 143.308 800H144.75C144.75 797.76 145.338 794.078 147.732 791.348V790.2H141.432ZM153.428 800.168C155.542 800.168 156.942 798.656 156.942 796.766C156.942 794.96 155.836 793.574 153.974 793.574C153.288 793.574 152.714 793.784 152.266 794.148L152.602 791.544H156.382V790.2H151.342L150.81 795.198L152.098 795.744C152.476 795.31 153.022 794.932 153.834 794.932C154.87 794.932 155.486 795.716 155.486 796.808C155.486 797.97 154.632 798.824 153.414 798.824C152.392 798.824 151.79 798.418 151.272 797.97L150.474 799.076C150.978 799.594 151.986 800.168 153.428 800.168Z" fill="white"/>
</svg>
