<svg width="834" height="1132" viewBox="0 0 834 1132" fill="none" xmlns="http://www.w3.org/2000/svg">
<rect width="834" height="1132" fill="white"/>
<rect y="106" width="834" height="920" fill="#003E51"/>
<rect x="3" y="103" width="828" height="926" stroke="#FF8787" stroke-width="6" stroke-dasharray="12 12"/>
<path d="M245.673 563.546C252.771 563.546 255.711 560.648 255.711 556.028C255.711 552.416 253.989 549.686 246.471 548.3C241.179 547.334 240.213 546.074 240.213 544.268C240.213 542.252 241.725 541.076 244.917 541.076C248.445 541.076 249.705 542.63 250.377 545.612L255.123 544.688C254.283 540.278 251.637 537.254 245.169 537.254C238.701 537.254 235.509 540.026 235.509 544.52C235.509 548.468 237.693 551.114 244.581 552.248C249.537 553.088 250.923 554.18 250.923 556.322C250.923 558.38 249.327 559.64 245.841 559.64C242.019 559.64 239.751 557.918 239.121 554.348L234.543 555.314C235.173 559.976 238.071 563.504 245.673 563.546ZM260.057 563H278.201V558.842H264.845V552.29H276.983V548.174H264.845V541.958H278.243V537.8H260.057V563ZM293.461 563.546C300.139 563.546 304.171 559.85 305.011 553.76L300.475 552.92C299.635 557.12 297.703 559.388 293.461 559.388C288.379 559.388 286.111 555.902 286.111 550.358C286.111 545.192 288.379 541.454 293.503 541.454C297.493 541.454 299.593 543.68 300.349 547.754L304.927 546.872C304.045 540.824 300.097 537.254 293.587 537.254C286.027 537.254 281.323 542.21 281.323 550.358C281.323 558.506 285.733 563.546 293.461 563.546ZM306.584 542.21H314.354V563H319.142V542.21H326.912V537.8H306.584V542.21ZM335.216 563V537.8H330.428V563H335.216ZM352.031 563.546C360.095 563.546 364.631 558.296 364.631 550.316C364.631 542.378 359.969 537.254 352.031 537.254C344.135 537.254 339.431 542.378 339.431 550.316C339.431 558.296 343.925 563.546 352.031 563.546ZM351.989 559.388C346.571 559.388 344.177 555.776 344.177 550.316C344.177 545.024 346.613 541.454 352.031 541.454C357.407 541.454 359.843 545.024 359.843 550.316C359.843 555.818 357.449 559.388 351.989 559.388ZM384.422 563H390.722V537.8H386.312V546.536C386.312 549.854 386.522 554.474 386.774 558.044L386.018 558.086C384.884 555.188 382.994 550.946 381.146 547.67L375.602 537.8H368.756V563H373.25V554.348C373.25 551.03 373.04 545.738 372.788 542.084L373.544 542C374.804 545.024 376.568 548.972 377.954 551.534L384.422 563ZM415.419 563.546C422.097 563.546 426.129 559.85 426.969 553.76L422.433 552.92C421.593 557.12 419.661 559.388 415.419 559.388C410.337 559.388 408.069 555.902 408.069 550.358C408.069 545.192 410.337 541.454 415.461 541.454C419.451 541.454 421.551 543.68 422.307 547.754L426.885 546.872C426.003 540.824 422.055 537.254 415.545 537.254C407.985 537.254 403.281 542.21 403.281 550.358C403.281 558.506 407.691 563.546 415.419 563.546ZM442.469 563.546C450.533 563.546 455.069 558.296 455.069 550.316C455.069 542.378 450.407 537.254 442.469 537.254C434.573 537.254 429.869 542.378 429.869 550.316C429.869 558.296 434.363 563.546 442.469 563.546ZM442.427 559.388C437.009 559.388 434.615 555.776 434.615 550.316C434.615 545.024 437.051 541.454 442.469 541.454C447.845 541.454 450.281 545.024 450.281 550.316C450.281 555.818 447.887 559.388 442.427 559.388ZM474.86 563H481.16V537.8H476.75V546.536C476.75 549.854 476.96 554.474 477.212 558.044L476.456 558.086C475.322 555.188 473.432 550.946 471.584 547.67L466.04 537.8H459.194V563H463.688V554.348C463.688 551.03 463.478 545.738 463.226 542.084L463.982 542C465.242 545.024 467.006 548.972 468.392 551.534L474.86 563ZM484.711 542.21H492.481V563H497.269V542.21H505.039V537.8H484.711V542.21ZM508.556 563H526.7V558.842H513.344V552.29H525.482V548.174H513.344V541.958H526.742V537.8H508.556V563ZM547.282 563H553.582V537.8H549.172V546.536C549.172 549.854 549.382 554.474 549.634 558.044L548.878 558.086C547.744 555.188 545.854 550.946 544.006 547.67L538.462 537.8H531.616V563H536.11V554.348C536.11 551.03 535.9 545.738 535.648 542.084L536.404 542C537.664 545.024 539.428 548.972 540.814 551.534L547.282 563ZM557.133 542.21H564.903V563H569.691V542.21H577.461V537.8H557.133V542.21ZM590.105 563.546C597.203 563.546 600.143 560.648 600.143 556.028C600.143 552.416 598.421 549.686 590.903 548.3C585.611 547.334 584.645 546.074 584.645 544.268C584.645 542.252 586.157 541.076 589.349 541.076C592.877 541.076 594.137 542.63 594.809 545.612L599.555 544.688C598.715 540.278 596.069 537.254 589.601 537.254C583.133 537.254 579.941 540.026 579.941 544.52C579.941 548.468 582.125 551.114 589.013 552.248C593.969 553.088 595.355 554.18 595.355 556.322C595.355 558.38 593.759 559.64 590.273 559.64C586.451 559.64 584.183 557.918 583.553 554.348L578.975 555.314C579.605 559.976 582.503 563.504 590.105 563.546Z" fill="white"/>
<path d="M233.076 599V582.2H230.5V589.564H221.54V582.2H218.964V599H221.54V591.748H230.5V599H233.076ZM243.031 587.38C245.523 587.38 246.531 588.808 246.587 591.496H239.167C239.419 588.724 240.707 587.38 243.031 587.38ZM243.143 599.308C246.587 599.308 248.099 597.824 248.715 595.444L246.643 594.856C246.223 596.256 245.523 597.404 243.171 597.404C240.595 597.404 239.307 595.892 239.167 593.092H248.771C248.827 592.532 248.855 591.916 248.855 591.524C248.855 587.912 247.007 585.588 243.115 585.588C239.139 585.588 236.731 588.192 236.731 592.56C236.731 596.928 239.111 599.308 243.143 599.308ZM256 597.404C254.096 597.404 253.452 596.536 253.452 595.444C253.452 594.016 254.46 593.316 256.252 593.316H260.032V594.128C260.032 596.032 258.408 597.404 256 597.404ZM260.256 599H262.44V590.404C262.44 587.268 260.872 585.588 257.204 585.588C254.376 585.588 252.444 586.96 251.8 588.948L254.068 589.732C254.516 588.416 255.496 587.548 257.148 587.548C259.304 587.548 260.032 588.584 260.032 590.432V591.832H255.86C252.612 591.832 251.184 593.456 251.184 595.696C251.184 598.272 252.724 599.28 255.104 599.28C257.54 599.28 259.08 597.992 259.864 596.088H260.256V599ZM271.609 597.236C269.229 597.236 268.137 595.836 268.137 592.504C268.137 589.144 269.257 587.8 271.581 587.8C273.821 587.8 275.277 589.396 275.277 591.636V593.456C275.277 595.612 273.793 597.236 271.609 597.236ZM275.277 599H277.685V580.24H275.277V589.004H274.941C274.185 587.1 272.785 585.588 270.489 585.588C267.493 585.588 265.757 587.884 265.757 592.532C265.757 597.124 267.549 599.336 270.349 599.336C272.589 599.336 274.213 597.768 274.969 595.836H275.277V599ZM284.838 580.24H282.402V599H284.838V580.24ZM292.218 582.872V580.576H289.418V582.872H292.218ZM292.05 599V585.924H289.614V599H292.05ZM299.011 591.804C299.011 589.536 300.747 587.8 303.183 587.8C305.003 587.8 305.731 588.836 305.731 590.656V599H308.167V590.096C308.167 587.184 306.683 585.588 304.219 585.588C302.007 585.588 300.215 587.184 299.347 589.172H298.899V585.924H296.575V599H299.011V591.804ZM317.722 587.38C320.214 587.38 321.222 588.808 321.278 591.496H313.858C314.11 588.724 315.398 587.38 317.722 587.38ZM317.834 599.308C321.278 599.308 322.79 597.824 323.406 595.444L321.334 594.856C320.914 596.256 320.214 597.404 317.862 597.404C315.286 597.404 313.998 595.892 313.858 593.092H323.462C323.518 592.532 323.546 591.916 323.546 591.524C323.546 587.912 321.698 585.588 317.806 585.588C313.83 585.588 311.422 588.192 311.422 592.56C311.422 596.928 313.802 599.308 317.834 599.308ZM331.979 599.336C335.731 599.336 337.159 597.796 337.159 595.472C337.159 593.344 335.927 592.14 332.035 591.44C329.571 591.02 328.871 590.264 328.871 589.228C328.871 588.024 329.739 587.352 331.587 587.352C333.267 587.352 334.191 587.884 334.611 589.564L336.711 589.144C336.179 587.016 335.171 585.588 331.643 585.588C328.283 585.588 326.603 587.072 326.603 589.396C326.603 591.496 327.835 592.672 331.167 593.288C333.855 593.736 334.807 594.24 334.807 595.584C334.807 596.928 333.855 597.544 332.007 597.544C329.543 597.544 328.507 596.452 328.087 594.856L325.931 595.304C326.463 597.796 327.891 599.336 331.979 599.336ZM339.908 595.444L337.78 602.808V603.088H339.544L342.4 595.444H339.908ZM358.148 599.28C361.34 599.28 362.964 597.544 363.86 595.388H364.28V599H366.604V590.432H359.38V592.448H364.196C364.14 594.912 363.104 597.18 359.072 597.18C355.376 597.18 353.836 595.108 353.836 590.824C353.836 586.456 355.152 584.076 359.184 584.076C361.928 584.076 363.188 585.252 363.86 587.856L366.268 587.324C365.568 583.712 363.412 581.892 359.128 581.892C353.836 581.892 351.232 585.112 351.232 590.824C351.232 597.124 354.284 599.28 358.148 599.28ZM372.909 599V592.952C372.909 589.648 374.113 588.332 377.277 588.332H377.445V585.644H377.277C375.317 585.644 373.917 586.68 373.105 589.312L372.685 589.284V585.924H370.473V599H372.909ZM384.279 597.404C382.375 597.404 381.731 596.536 381.731 595.444C381.731 594.016 382.739 593.316 384.531 593.316H388.311V594.128C388.311 596.032 386.687 597.404 384.279 597.404ZM388.535 599H390.719V590.404C390.719 587.268 389.151 585.588 385.483 585.588C382.655 585.588 380.723 586.96 380.079 588.948L382.347 589.732C382.795 588.416 383.775 587.548 385.427 587.548C387.583 587.548 388.311 588.584 388.311 590.432V591.832H384.139C380.891 591.832 379.463 593.456 379.463 595.696C379.463 598.272 381.003 599.28 383.383 599.28C385.819 599.28 387.359 597.992 388.143 596.088H388.535V599ZM401.008 597.236C398.824 597.236 397.368 595.612 397.368 593.456V591.636C397.368 589.396 398.796 587.8 401.036 587.8C403.36 587.8 404.48 589.144 404.48 592.504C404.48 595.836 403.388 597.236 401.008 597.236ZM406.86 592.532C406.86 587.884 405.124 585.588 402.128 585.588C399.832 585.588 398.432 587.1 397.676 589.004H397.368V585.924H394.932V603.676H397.368V595.836H397.676C398.432 597.768 400.056 599.336 402.268 599.336C405.068 599.336 406.86 597.124 406.86 592.532ZM412.701 591.804C412.701 589.536 414.409 587.8 416.929 587.8C418.581 587.8 419.421 588.836 419.421 590.656V599H421.857V590.096C421.857 587.184 420.345 585.588 418.021 585.588C415.585 585.588 413.961 587.212 413.065 589.172H412.701V580.24H410.265V599H412.701V591.804ZM428.865 582.872V580.576H426.065V582.872H428.865ZM428.697 599V585.924H426.261V599H428.697ZM442.069 590.544L444.281 590.04C443.749 587.156 442.209 585.588 438.681 585.588C434.733 585.588 432.325 588.192 432.325 592.56C432.325 596.872 434.621 599.336 438.737 599.336C442.041 599.336 443.749 597.768 444.337 595.052L442.153 594.38C441.761 595.892 441.033 597.236 438.709 597.236C435.993 597.236 434.817 595.36 434.817 592.476C434.817 589.284 436.133 587.688 438.625 587.688C440.977 587.688 441.649 588.78 442.069 590.544ZM452.855 599.336C456.607 599.336 458.035 597.796 458.035 595.472C458.035 593.344 456.803 592.14 452.911 591.44C450.447 591.02 449.747 590.264 449.747 589.228C449.747 588.024 450.615 587.352 452.463 587.352C454.143 587.352 455.067 587.884 455.487 589.564L457.587 589.144C457.055 587.016 456.047 585.588 452.519 585.588C449.159 585.588 447.479 587.072 447.479 589.396C447.479 591.496 448.711 592.672 452.043 593.288C454.731 593.736 455.683 594.24 455.683 595.584C455.683 596.928 454.731 597.544 452.883 597.544C450.419 597.544 449.383 596.452 448.963 594.856L446.807 595.304C447.339 597.796 448.767 599.336 452.855 599.336ZM460.784 595.444L458.656 602.808V603.088H460.42L463.276 595.444H460.784ZM475.999 599V582.2H473.423V599H475.999ZM483.011 591.804C483.011 589.536 484.747 587.8 487.183 587.8C488.891 587.8 489.731 588.836 489.731 590.656V599H492.167V591.804C492.167 589.536 493.791 587.8 496.339 587.8C498.047 587.8 498.887 588.836 498.887 590.656V599H501.295V590.096C501.295 587.184 499.727 585.588 497.375 585.588C494.743 585.588 493.175 587.268 492.419 589.34H491.859C491.635 586.904 490.375 585.588 488.275 585.588C485.895 585.588 484.271 587.1 483.375 589.172H482.899V585.924H480.575V599H483.011V591.804ZM509.202 597.404C507.298 597.404 506.654 596.536 506.654 595.444C506.654 594.016 507.662 593.316 509.454 593.316H513.234V594.128C513.234 596.032 511.61 597.404 509.202 597.404ZM513.458 599H515.642V590.404C515.642 587.268 514.074 585.588 510.406 585.588C507.578 585.588 505.646 586.96 505.002 588.948L507.27 589.732C507.718 588.416 508.698 587.548 510.35 587.548C512.506 587.548 513.234 588.584 513.234 590.432V591.832H509.062C505.814 591.832 504.386 593.456 504.386 595.696C504.386 598.272 505.926 599.28 508.306 599.28C510.742 599.28 512.282 597.992 513.066 596.088H513.458V599ZM524.643 587.772C526.967 587.772 528.143 588.836 528.143 590.46C528.143 592.14 527.135 593.148 524.699 593.148C522.235 593.148 521.311 592.14 521.311 590.46C521.311 588.864 522.291 587.772 524.643 587.772ZM524.895 602.5C521.311 602.5 520.303 601.94 520.303 600.68C520.303 599.812 521.143 598.86 522.795 598.86H527.079C528.731 598.86 529.515 599.532 529.515 600.54C529.515 601.8 528.591 602.5 524.895 602.5ZM531.531 600.4C531.531 598.356 529.963 597.208 527.247 597.208H523.159C522.151 597.208 521.675 596.984 521.675 596.396C521.675 596.06 521.843 595.752 522.095 595.36L522.487 594.716C523.131 594.884 523.831 594.968 524.643 594.968C528.339 594.968 530.299 593.372 530.299 590.936C530.299 589.088 528.647 588.276 526.799 587.856L526.855 587.408C528.171 587.576 529.263 587.688 529.991 587.688H531.223V585.924H524.839C521.227 585.924 519.099 587.52 519.099 590.544C519.099 592.504 520.107 593.932 521.983 594.576L520.975 595.276C520.247 595.78 519.743 596.34 519.743 597.04C519.743 597.908 520.275 598.44 521.143 598.692V599C519.491 599.448 518.343 600.232 518.343 601.408C518.343 603.172 519.799 604.292 524.643 604.292C529.879 604.292 531.531 603.088 531.531 600.4ZM539.936 587.38C542.428 587.38 543.436 588.808 543.492 591.496H536.072C536.324 588.724 537.612 587.38 539.936 587.38ZM540.048 599.308C543.492 599.308 545.004 597.824 545.62 595.444L543.548 594.856C543.128 596.256 542.428 597.404 540.076 597.404C537.5 597.404 536.212 595.892 536.072 593.092H545.676C545.732 592.532 545.76 591.916 545.76 591.524C545.76 587.912 543.912 585.588 540.02 585.588C536.044 585.588 533.636 588.192 533.636 592.56C533.636 596.928 536.016 599.308 540.048 599.308ZM554.193 599.336C557.945 599.336 559.373 597.796 559.373 595.472C559.373 593.344 558.141 592.14 554.249 591.44C551.785 591.02 551.085 590.264 551.085 589.228C551.085 588.024 551.953 587.352 553.801 587.352C555.481 587.352 556.405 587.884 556.825 589.564L558.925 589.144C558.393 587.016 557.385 585.588 553.857 585.588C550.497 585.588 548.817 587.072 548.817 589.396C548.817 591.496 550.049 592.672 553.381 593.288C556.069 593.736 557.021 594.24 557.021 595.584C557.021 596.928 556.069 597.544 554.221 597.544C551.757 597.544 550.721 596.452 550.301 594.856L548.145 595.304C548.677 597.796 550.105 599.336 554.193 599.336ZM562.122 595.444L559.994 602.808V603.088H561.758L564.614 595.444H562.122ZM579.914 587.38C582.406 587.38 583.414 588.808 583.47 591.496H576.05C576.302 588.724 577.59 587.38 579.914 587.38ZM580.026 599.308C583.47 599.308 584.982 597.824 585.598 595.444L583.526 594.856C583.106 596.256 582.406 597.404 580.054 597.404C577.478 597.404 576.19 595.892 576.05 593.092H585.654C585.71 592.532 585.738 591.916 585.738 591.524C585.738 587.912 583.89 585.588 579.998 585.588C576.022 585.588 573.614 588.192 573.614 592.56C573.614 596.928 575.994 599.308 580.026 599.308ZM589.915 595.108C589.915 597.544 591.119 599.336 593.835 599.336C595.039 599.336 595.739 599.168 596.663 598.888L596.355 596.816C595.627 597.012 595.067 597.124 594.339 597.124C592.911 597.124 592.323 596.368 592.323 594.884V587.856H596.495V585.924H592.323V582.2H589.915V585.924H587.843V587.856H589.915V595.108ZM608.528 590.544L610.74 590.04C610.208 587.156 608.668 585.588 605.14 585.588C601.192 585.588 598.784 588.192 598.784 592.56C598.784 596.872 601.08 599.336 605.196 599.336C608.5 599.336 610.208 597.768 610.796 595.052L608.612 594.38C608.22 595.892 607.492 597.236 605.168 597.236C602.452 597.236 601.276 595.36 601.276 592.476C601.276 589.284 602.592 587.688 605.084 587.688C607.436 587.688 608.108 588.78 608.528 590.544ZM613.266 596.032V599H616.318V596.032H613.266Z" fill="white"/>
<line x1="30" y1="209" x2="804" y2="209" stroke="#FF8787" stroke-width="6" stroke-dasharray="12 12"/>
<line x1="807" y1="106" x2="807" y2="1020" stroke="#FF8787" stroke-width="6" stroke-dasharray="12 12"/>
<line x1="30" y1="923" x2="804" y2="923" stroke="#FF8787" stroke-width="6" stroke-dasharray="12 12"/>
<line x1="27" y1="106" x2="26.9999" y2="1020" stroke="#FF8787" stroke-width="6" stroke-dasharray="12 12"/>
<rect x="30" y="106" width="774" height="100" fill="#509E2F"/>
<path d="M60.204 164.946H66.238V163.56H61.646V155.146H60.204V164.946ZM74.791 164.946H76.317L73.083 155.146H71.781L68.575 164.946H70.115L70.801 162.664H74.091L74.791 164.946ZM71.207 161.362L72.187 158.114C72.257 157.89 72.383 157.4 72.439 157.092C72.495 157.4 72.621 157.89 72.691 158.114L73.685 161.362H71.207ZM84.7999 158.016C84.7999 156.56 84.0579 155.146 81.6499 155.146H78.4579V164.946H79.8999V160.928H81.2159L83.1759 164.946H84.7719L82.7419 160.788C84.1699 160.382 84.7999 159.192 84.7999 158.016ZM79.8999 156.476H81.6779C83.0079 156.476 83.3579 157.344 83.3579 158.044C83.3579 158.814 82.9519 159.584 81.6779 159.584H79.8999V156.476ZM90.8889 165.114C92.6669 165.114 94.0389 163.784 94.0389 161.334V160.074H90.8189V161.404H92.5549V161.74C92.5549 162.93 91.9669 163.756 90.8889 163.756C89.3629 163.756 88.6769 161.95 88.6769 160.046C88.6769 158.352 89.2649 156.322 90.8889 156.322C91.6869 156.322 92.1349 156.896 92.4849 157.54L93.7589 156.812C93.2409 155.874 92.4989 154.978 90.8889 154.978C88.3829 154.978 87.1929 157.512 87.1929 160.046C87.1929 162.608 88.3129 165.114 90.8889 165.114ZM96.7118 164.946H103.026V163.574H98.1538V160.564H101.192V159.206H98.1538V156.504H102.718V155.146H96.7118V164.946ZM118.816 163.56V155.118L115.232 156.28V157.652L117.374 156.994V163.56H114.938V164.946H121.21V163.56H118.816ZM133.038 161.46H139.618V160.116H133.038V161.46ZM155.324 163.56V155.118L151.74 156.28V157.652L153.882 156.994V163.56H151.446V164.946H157.718V163.56H155.324ZM163.708 165.114C166.466 165.114 167.194 162.286 167.194 160.046C167.194 157.624 166.396 154.978 163.708 154.978C160.936 154.978 160.222 157.806 160.222 160.046C160.222 162.468 161.02 165.114 163.708 165.114ZM163.708 163.77C162.112 163.77 161.678 161.894 161.678 160.046C161.678 158.338 162.07 156.308 163.708 156.308C165.304 156.308 165.724 158.212 165.724 160.046C165.724 161.768 165.36 163.77 163.708 163.77ZM163.708 160.998C164.254 160.998 164.66 160.564 164.66 160.046C164.66 159.542 164.254 159.094 163.708 159.094C163.162 159.094 162.756 159.542 162.756 160.046C162.756 160.564 163.162 160.998 163.708 160.998ZM172.835 165.114C175.593 165.114 176.321 162.286 176.321 160.046C176.321 157.624 175.523 154.978 172.835 154.978C170.063 154.978 169.349 157.806 169.349 160.046C169.349 162.468 170.147 165.114 172.835 165.114ZM172.835 163.77C171.239 163.77 170.805 161.894 170.805 160.046C170.805 158.338 171.197 156.308 172.835 156.308C174.431 156.308 174.851 158.212 174.851 160.046C174.851 161.768 174.487 163.77 172.835 163.77ZM172.835 160.998C173.381 160.998 173.787 160.564 173.787 160.046C173.787 159.542 173.381 159.094 172.835 159.094C172.289 159.094 171.883 159.542 171.883 160.046C171.883 160.564 172.289 160.998 172.835 160.998Z" fill="white"/>
<rect x="30" y="926" width="774" height="100" fill="#509E2F"/>
<path d="M60.204 984.946H66.238V983.56H61.646V975.146H60.204V984.946ZM74.791 984.946H76.317L73.083 975.146H71.781L68.575 984.946H70.115L70.801 982.664H74.091L74.791 984.946ZM71.207 981.362L72.187 978.114C72.257 977.89 72.383 977.4 72.439 977.092C72.495 977.4 72.621 977.89 72.691 978.114L73.685 981.362H71.207ZM84.7999 978.016C84.7999 976.56 84.0579 975.146 81.6499 975.146H78.4579V984.946H79.8999V980.928H81.2159L83.1759 984.946H84.7719L82.7419 980.788C84.1699 980.382 84.7999 979.192 84.7999 978.016ZM79.8999 976.476H81.6779C83.0079 976.476 83.3579 977.344 83.3579 978.044C83.3579 978.814 82.9519 979.584 81.6779 979.584H79.8999V976.476ZM90.8889 985.114C92.6669 985.114 94.0389 983.784 94.0389 981.334V980.074H90.8189V981.404H92.5549V981.74C92.5549 982.93 91.9669 983.756 90.8889 983.756C89.3629 983.756 88.6769 981.95 88.6769 980.046C88.6769 978.352 89.2649 976.322 90.8889 976.322C91.6869 976.322 92.1349 976.896 92.4849 977.54L93.7589 976.812C93.2409 975.874 92.4989 974.978 90.8889 974.978C88.3829 974.978 87.1929 977.512 87.1929 980.046C87.1929 982.608 88.3129 985.114 90.8889 985.114ZM96.7118 984.946H103.026V983.574H98.1538V980.564H101.192V979.206H98.1538V976.504H102.718V975.146H96.7118V984.946ZM118.816 983.56V975.118L115.232 976.28V977.652L117.374 976.994V983.56H114.938V984.946H121.21V983.56H118.816ZM133.038 981.46H139.618V980.116H133.038V981.46ZM155.324 983.56V975.118L151.74 976.28V977.652L153.882 976.994V983.56H151.446V984.946H157.718V983.56H155.324ZM163.708 985.114C166.466 985.114 167.194 982.286 167.194 980.046C167.194 977.624 166.396 974.978 163.708 974.978C160.936 974.978 160.222 977.806 160.222 980.046C160.222 982.468 161.02 985.114 163.708 985.114ZM163.708 983.77C162.112 983.77 161.678 981.894 161.678 980.046C161.678 978.338 162.07 976.308 163.708 976.308C165.304 976.308 165.724 978.212 165.724 980.046C165.724 981.768 165.36 983.77 163.708 983.77ZM163.708 980.998C164.254 980.998 164.66 980.564 164.66 980.046C164.66 979.542 164.254 979.094 163.708 979.094C163.162 979.094 162.756 979.542 162.756 980.046C162.756 980.564 163.162 980.998 163.708 980.998ZM172.835 985.114C175.593 985.114 176.321 982.286 176.321 980.046C176.321 977.624 175.523 974.978 172.835 974.978C170.063 974.978 169.349 977.806 169.349 980.046C169.349 982.468 170.147 985.114 172.835 985.114ZM172.835 983.77C171.239 983.77 170.805 981.894 170.805 980.046C170.805 978.338 171.197 976.308 172.835 976.308C174.431 976.308 174.851 978.212 174.851 980.046C174.851 981.768 174.487 983.77 172.835 983.77ZM172.835 980.998C173.381 980.998 173.787 980.564 173.787 980.046C173.787 979.542 173.381 979.094 172.835 979.094C172.289 979.094 171.883 979.542 171.883 980.046C171.883 980.564 172.289 980.998 172.835 980.998Z" fill="white"/>
</svg>
