<svg width="160" height="36" viewBox="0 0 160 36" fill="none" xmlns="http://www.w3.org/2000/svg">
<g clip-path="url(#clip0)">
<path fill-rule="evenodd" clip-rule="evenodd" d="M15.9997 12.2781H13.911C13.6714 12.2864 13.4397 12.366 13.2457 12.5069C13.0517 12.6477 12.9042 12.8433 12.8221 13.0685L8.35575 26.8581L3.98778 13.059C3.90848 12.8329 3.76265 12.6362 3.56945 12.4945C3.37626 12.3529 3.14474 12.273 2.90531 12.2654H0.734018C0.616908 12.2571 0.499635 12.279 0.39343 12.3291C0.287225 12.3791 0.195648 12.4556 0.127469 12.5512C0.0592905 12.6467 0.0167922 12.7582 0.00405036 12.8749C-0.00869146 12.9916 0.0087478 13.1097 0.0546966 13.2177L5.99082 31.0293C6.07507 31.2534 6.22365 31.4478 6.41792 31.5878C6.61219 31.7279 6.8435 31.8074 7.08282 31.8165H9.49219C9.73158 31.8079 9.96313 31.7289 10.1579 31.5895C10.3527 31.45 10.502 31.2563 10.5874 31.0324L16.6759 13.2177C16.7216 13.1099 16.7391 12.9922 16.7265 12.8758C16.7139 12.7594 16.6717 12.6481 16.6039 12.5526C16.5361 12.4571 16.445 12.3806 16.3392 12.3303C16.2334 12.28 16.1166 12.2577 15.9997 12.2654V12.2781ZM23.6945 12.2781H21.6565C21.1603 12.2781 20.7581 12.6803 20.7581 13.1764V30.9213C20.7581 31.4175 21.1603 31.8197 21.6565 31.8197H23.6945C24.1906 31.8197 24.5928 31.4175 24.5928 30.9213V13.1764C24.5928 12.6803 24.1906 12.2781 23.6945 12.2781ZM29.5322 12.2781H43.6329C43.7522 12.2755 43.8708 12.2968 43.9818 12.3406C44.0928 12.3844 44.1939 12.4499 44.2793 12.5332C44.3647 12.6166 44.4327 12.7161 44.4792 12.826C44.5257 12.9359 44.5499 13.0539 44.5503 13.1732V14.7604C44.5503 14.9987 44.4556 15.2272 44.2872 15.3957C44.1187 15.5642 43.8902 15.6588 43.6519 15.6588H38.8903C38.7851 15.6588 38.6842 15.7006 38.6098 15.775C38.5353 15.8494 38.4935 15.9504 38.4935 16.0556V30.9245C38.4935 31.1627 38.3989 31.3912 38.2304 31.5597C38.0619 31.7282 37.8334 31.8228 37.5952 31.8228H35.5572C35.319 31.8228 35.0904 31.7282 34.922 31.5597C34.7535 31.3912 34.6588 31.1627 34.6588 30.9245V16.0588C34.6588 15.9535 34.617 15.8526 34.5426 15.7782C34.4682 15.7038 34.3673 15.662 34.262 15.662H29.5322C29.2939 15.662 29.0654 15.5673 28.897 15.3989C28.7285 15.2304 28.6338 15.0019 28.6338 14.7636V13.1764C28.6338 12.9382 28.7285 12.7097 28.897 12.5412C29.0654 12.3727 29.2939 12.2781 29.5322 12.2781ZM56.121 13.059C56.0261 12.8395 55.8712 12.6512 55.6741 12.5159C55.477 12.3806 55.2456 12.3036 55.0067 12.2939H52.7561C52.5172 12.3036 52.2858 12.3806 52.0887 12.5159C51.8916 12.6512 51.7367 12.8395 51.6419 13.059L44.7979 30.8896C44.7464 30.9949 44.7238 31.1119 44.7323 31.2288C44.7408 31.3457 44.7801 31.4583 44.8463 31.555C44.9124 31.6518 45.0029 31.7293 45.1087 31.7797C45.2146 31.8301 45.3318 31.8515 45.4486 31.8419H47.5913C47.8307 31.8334 48.0623 31.7553 48.258 31.6172C48.4536 31.479 48.6047 31.2869 48.6928 31.0642L50.0451 27.2549C50.0991 27.1288 50.187 27.0201 50.2991 26.941C50.4112 26.862 50.5431 26.8157 50.68 26.8073H56.9812C57.1182 26.8153 57.2503 26.8615 57.3625 26.9406C57.4746 27.0197 57.5625 27.1285 57.6161 27.2549L58.9716 31.0642C59.0597 31.2869 59.2108 31.479 59.4064 31.6172C59.6021 31.7553 59.8337 31.8334 60.0731 31.8419H62.3491C62.4646 31.8486 62.5798 31.8249 62.6834 31.7733C62.7869 31.7216 62.8751 31.6438 62.9393 31.5476C63.0035 31.4513 63.0414 31.3399 63.0492 31.2245C63.057 31.1091 63.0346 30.9936 62.984 30.8896L56.121 13.059ZM56.2987 23.4805C56.3142 23.5127 56.3222 23.548 56.3222 23.5837C56.3222 23.6194 56.3142 23.6547 56.2987 23.6869C56.2745 23.7136 56.2444 23.7344 56.2108 23.7476C56.1772 23.7608 56.141 23.7661 56.1051 23.7631H51.5816C51.5461 23.7661 51.5104 23.7608 51.4773 23.7475C51.4442 23.7343 51.4147 23.7135 51.3911 23.6869C51.3749 23.6554 51.3665 23.6206 51.3665 23.5853C51.3665 23.55 51.3749 23.5151 51.3911 23.4837L53.8608 16.4683L56.2987 23.4805ZM83.0208 12.2781H86.3539C86.5922 12.2781 86.8207 12.3727 86.9892 12.5412C87.1576 12.7097 87.2523 12.9382 87.2523 13.1764V30.9213C87.2523 31.1596 87.1576 31.3881 86.9892 31.5566C86.8207 31.725 86.5922 31.8197 86.3539 31.8197H84.4779C84.2396 31.8197 84.0111 31.725 83.8426 31.5566C83.6742 31.3881 83.5795 31.1596 83.5795 30.9213V18.1602L78.9512 31.0451C78.8617 31.2672 78.7097 31.4586 78.5137 31.5961C78.3176 31.7336 78.0859 31.8113 77.8465 31.8197H76.399C76.1598 31.8109 75.9282 31.733 75.7322 31.5956C75.5362 31.4582 75.3842 31.267 75.2943 31.0451L70.666 18.1634V30.9245C70.666 31.1628 70.5714 31.3913 70.4029 31.5597C70.2344 31.7282 70.006 31.8229 69.7677 31.8229H67.8916C67.6534 31.8229 67.4249 31.7282 67.2564 31.5597C67.0879 31.3913 66.9933 31.1628 66.9933 30.9245V13.1796C66.9933 12.9414 67.0879 12.7129 67.2564 12.5444C67.4249 12.3759 67.6534 12.2813 67.8916 12.2813H71.2882C71.5272 12.2896 71.7586 12.3676 71.9537 12.5058C72.1489 12.644 72.2994 12.8363 72.3866 13.059L77.2244 26.7502L81.9256 13.059C82.0118 12.836 82.1615 12.6431 82.3561 12.5043C82.5508 12.3655 82.7819 12.2869 83.0208 12.2781ZM96.1882 12.2781H94.1502C93.6541 12.2781 93.2519 12.6803 93.2519 13.1764V30.9213C93.2519 31.4175 93.6541 31.8197 94.1502 31.8197H96.1882C96.6844 31.8197 97.0866 31.4175 97.0866 30.9213V13.1764C97.0866 12.6803 96.6844 12.2781 96.1882 12.2781ZM118.47 12.5412C118.638 12.7097 118.733 12.9382 118.733 13.1764L118.745 30.915C118.745 31.033 118.722 31.1498 118.677 31.2588C118.632 31.3678 118.566 31.4668 118.482 31.5502C118.399 31.6336 118.3 31.6998 118.191 31.745C118.082 31.7901 117.965 31.8133 117.847 31.8133H115.625C115.387 31.8018 115.155 31.7353 114.947 31.6191C114.738 31.5029 114.56 31.3401 114.425 31.1435L106.489 18.3126V30.915C106.489 31.1532 106.395 31.3817 106.226 31.5502C106.058 31.7187 105.829 31.8133 105.591 31.8133H103.715C103.476 31.8133 103.248 31.7187 103.079 31.5502C102.911 31.3817 102.816 31.1532 102.816 30.915V13.1701C102.816 12.9318 102.911 12.7033 103.079 12.5349C103.248 12.3664 103.476 12.2717 103.715 12.2717H105.937C106.175 12.2828 106.407 12.3491 106.616 12.4653C106.824 12.5816 107.002 12.7446 107.137 12.9415L115.073 25.7566V13.1764C115.073 13.0585 115.096 12.9416 115.141 12.8326C115.186 12.7237 115.252 12.6246 115.336 12.5412C115.419 12.4578 115.518 12.3916 115.627 12.3465C115.736 12.3013 115.853 12.2781 115.971 12.2781H117.834C118.073 12.2781 118.301 12.3727 118.47 12.5412Z" fill="white"/>
<path d="M146.179 1.26296C146.067 1.14478 145.933 1.05061 145.784 0.98624C145.635 0.921873 145.474 0.888672 145.312 0.888672C145.15 0.888672 144.989 0.921873 144.84 0.98624C144.691 1.05061 144.557 1.14478 144.445 1.26296C138.325 7.79905 130.624 13.9383 130.624 21.376C130.624 29.4866 137.201 35.0259 145.312 35.0259C153.423 35.0259 160 29.4866 160 21.376C160 13.9383 152.299 7.79905 146.179 1.26296ZM153.27 14.7605C153.27 14.9988 153.176 15.2273 153.007 15.3957C152.839 15.5642 152.61 15.6589 152.372 15.6589H147.62C147.515 15.6589 147.414 15.7007 147.339 15.7751C147.265 15.8495 147.223 15.9504 147.223 16.0557V30.9214C147.223 31.1596 147.128 31.3881 146.96 31.5566C146.791 31.7251 146.563 31.8197 146.325 31.8197H144.287C144.048 31.8197 143.82 31.7251 143.651 31.5566C143.483 31.3881 143.388 31.1596 143.388 30.9214V16.0557C143.387 15.9501 143.345 15.8492 143.27 15.7749C143.195 15.7006 143.094 15.6589 142.988 15.6589H138.258C138.14 15.6589 138.024 15.6356 137.915 15.5905C137.806 15.5453 137.707 15.4792 137.623 15.3957C137.54 15.3123 137.474 15.2133 137.428 15.1043C137.383 14.9953 137.36 14.8785 137.36 14.7605V13.1733C137.36 13.0553 137.383 12.9385 137.428 12.8295C137.474 12.7205 137.54 12.6215 137.623 12.5381C137.707 12.4547 137.806 12.3885 137.915 12.3433C138.024 12.2982 138.14 12.275 138.258 12.275H152.381C152.62 12.275 152.848 12.3696 153.017 12.5381C153.185 12.7065 153.28 12.9351 153.28 13.1733L153.27 14.7605Z" fill="#6CC24A"/>
</g>
<defs>
<clipPath id="clip0">
<rect width="160" height="35.5556" fill="white"/>
</clipPath>
</defs>
</svg>
